<?xml version="1.0" encoding="utf-8" standalone="no"?>
<!DOCTYPE svg PUBLIC "-//W3C//DTD SVG 1.1//EN"
  "http://www.w3.org/Graphics/SVG/1.1/DTD/svg11.dtd">
<!-- Created with matplotlib (https://matplotlib.org/) -->
<svg height="432pt" version="1.1" viewBox="0 0 324 432" width="324pt" xmlns="http://www.w3.org/2000/svg" xmlns:xlink="http://www.w3.org/1999/xlink">
 <defs>
  <style type="text/css">
*{stroke-linecap:butt;stroke-linejoin:round;}
  </style>
 </defs>
 <g id="figure_1">
  <g id="patch_1">
   <path d="M 0 432 
L 324 432 
L 324 0 
L 0 0 
z
" style="fill:#ffffff;"/>
  </g>
  <g id="axes_1">
   <g id="patch_2">
    <path d="M 105.87 179.712268 
L 283.740814 179.712268 
L 283.740814 19.44 
L 105.87 19.44 
z
" style="fill:#ffffff;"/>
   </g>
   <g id="matplotlib.axis_1">
    <g id="xtick_1">
     <g id="line2d_1">
      <path clip-path="url(#p45d6ded886)" d="M 113.955037 179.712268 
L 113.955037 19.44 
" style="fill:none;stroke:#cccccc;stroke-linecap:round;stroke-width:1.5;"/>
     </g>
    </g>
    <g id="xtick_2">
     <g id="line2d_2">
      <path clip-path="url(#p45d6ded886)" d="M 181.330345 179.712268 
L 181.330345 19.44 
" style="fill:none;stroke:#cccccc;stroke-linecap:round;stroke-width:1.5;"/>
     </g>
    </g>
    <g id="xtick_3">
     <g id="line2d_3">
      <path clip-path="url(#p45d6ded886)" d="M 248.705654 179.712268 
L 248.705654 19.44 
" style="fill:none;stroke:#cccccc;stroke-linecap:round;stroke-width:1.5;"/>
     </g>
    </g>
   </g>
   <g id="matplotlib.axis_2">
    <g id="ytick_1">
     <g id="line2d_4">
      <path clip-path="url(#p45d6ded886)" d="M 105.87 172.428254 
L 283.740814 172.428254 
" style="fill:none;stroke:#cccccc;stroke-linecap:round;stroke-width:1.5;"/>
     </g>
     <g id="text_1">
      <!-- 0 -->
      <defs>
       <path d="M 31.78125 66.40625 
Q 24.171875 66.40625 20.328125 58.90625 
Q 16.5 51.421875 16.5 36.375 
Q 16.5 21.390625 20.328125 13.890625 
Q 24.171875 6.390625 31.78125 6.390625 
Q 39.453125 6.390625 43.28125 13.890625 
Q 47.125 21.390625 47.125 36.375 
Q 47.125 51.421875 43.28125 58.90625 
Q 39.453125 66.40625 31.78125 66.40625 
z
M 31.78125 74.21875 
Q 44.046875 74.21875 50.515625 64.515625 
Q 56.984375 54.828125 56.984375 36.375 
Q 56.984375 17.96875 50.515625 8.265625 
Q 44.046875 -1.421875 31.78125 -1.421875 
Q 19.53125 -1.421875 13.0625 8.265625 
Q 6.59375 17.96875 6.59375 36.375 
Q 6.59375 54.828125 13.0625 64.515625 
Q 19.53125 74.21875 31.78125 74.21875 
z
" id="DejaVuSans-48"/>
      </defs>
      <g style="fill:#262626;" transform="translate(82.871875 178.696965)scale(0.165 -0.165)">
       <use xlink:href="#DejaVuSans-48"/>
      </g>
     </g>
    </g>
    <g id="ytick_2">
     <g id="line2d_5">
      <path clip-path="url(#p45d6ded886)" d="M 105.87 132.29499 
L 283.740814 132.29499 
" style="fill:none;stroke:#cccccc;stroke-linecap:round;stroke-width:1.5;"/>
     </g>
     <g id="text_2">
      <!-- 5000 -->
      <defs>
       <path d="M 10.796875 72.90625 
L 49.515625 72.90625 
L 49.515625 64.59375 
L 19.828125 64.59375 
L 19.828125 46.734375 
Q 21.96875 47.46875 24.109375 47.828125 
Q 26.265625 48.1875 28.421875 48.1875 
Q 40.625 48.1875 47.75 41.5 
Q 54.890625 34.8125 54.890625 23.390625 
Q 54.890625 11.625 47.5625 5.09375 
Q 40.234375 -1.421875 26.90625 -1.421875 
Q 22.3125 -1.421875 17.546875 -0.640625 
Q 12.796875 0.140625 7.71875 1.703125 
L 7.71875 11.625 
Q 12.109375 9.234375 16.796875 8.0625 
Q 21.484375 6.890625 26.703125 6.890625 
Q 35.15625 6.890625 40.078125 11.328125 
Q 45.015625 15.765625 45.015625 23.390625 
Q 45.015625 31 40.078125 35.4375 
Q 35.15625 39.890625 26.703125 39.890625 
Q 22.75 39.890625 18.8125 39.015625 
Q 14.890625 38.140625 10.796875 36.28125 
z
" id="DejaVuSans-53"/>
      </defs>
      <g style="fill:#262626;" transform="translate(51.3775 138.563701)scale(0.165 -0.165)">
       <use xlink:href="#DejaVuSans-53"/>
       <use x="63.623047" xlink:href="#DejaVuSans-48"/>
       <use x="127.246094" xlink:href="#DejaVuSans-48"/>
       <use x="190.869141" xlink:href="#DejaVuSans-48"/>
      </g>
     </g>
    </g>
    <g id="ytick_3">
     <g id="line2d_6">
      <path clip-path="url(#p45d6ded886)" d="M 105.87 92.161725 
L 283.740814 92.161725 
" style="fill:none;stroke:#cccccc;stroke-linecap:round;stroke-width:1.5;"/>
     </g>
     <g id="text_3">
      <!-- 10000 -->
      <defs>
       <path d="M 12.40625 8.296875 
L 28.515625 8.296875 
L 28.515625 63.921875 
L 10.984375 60.40625 
L 10.984375 69.390625 
L 28.421875 72.90625 
L 38.28125 72.90625 
L 38.28125 8.296875 
L 54.390625 8.296875 
L 54.390625 0 
L 12.40625 0 
z
" id="DejaVuSans-49"/>
      </defs>
      <g style="fill:#262626;" transform="translate(40.879375 98.430436)scale(0.165 -0.165)">
       <use xlink:href="#DejaVuSans-49"/>
       <use x="63.623047" xlink:href="#DejaVuSans-48"/>
       <use x="127.246094" xlink:href="#DejaVuSans-48"/>
       <use x="190.869141" xlink:href="#DejaVuSans-48"/>
       <use x="254.492188" xlink:href="#DejaVuSans-48"/>
      </g>
     </g>
    </g>
    <g id="ytick_4">
     <g id="line2d_7">
      <path clip-path="url(#p45d6ded886)" d="M 105.87 52.028461 
L 283.740814 52.028461 
" style="fill:none;stroke:#cccccc;stroke-linecap:round;stroke-width:1.5;"/>
     </g>
     <g id="text_4">
      <!-- 15000 -->
      <g style="fill:#262626;" transform="translate(40.879375 58.297172)scale(0.165 -0.165)">
       <use xlink:href="#DejaVuSans-49"/>
       <use x="63.623047" xlink:href="#DejaVuSans-53"/>
       <use x="127.246094" xlink:href="#DejaVuSans-48"/>
       <use x="190.869141" xlink:href="#DejaVuSans-48"/>
       <use x="254.492188" xlink:href="#DejaVuSans-48"/>
      </g>
     </g>
    </g>
    <g id="text_5">
     <!-- Effect -->
     <defs>
      <path d="M 9.8125 72.90625 
L 55.90625 72.90625 
L 55.90625 64.59375 
L 19.671875 64.59375 
L 19.671875 43.015625 
L 54.390625 43.015625 
L 54.390625 34.71875 
L 19.671875 34.71875 
L 19.671875 8.296875 
L 56.78125 8.296875 
L 56.78125 0 
L 9.8125 0 
z
" id="DejaVuSans-69"/>
      <path d="M 37.109375 75.984375 
L 37.109375 68.5 
L 28.515625 68.5 
Q 23.6875 68.5 21.796875 66.546875 
Q 19.921875 64.59375 19.921875 59.515625 
L 19.921875 54.6875 
L 34.71875 54.6875 
L 34.71875 47.703125 
L 19.921875 47.703125 
L 19.921875 0 
L 10.890625 0 
L 10.890625 47.703125 
L 2.296875 47.703125 
L 2.296875 54.6875 
L 10.890625 54.6875 
L 10.890625 58.5 
Q 10.890625 67.625 15.140625 71.796875 
Q 19.390625 75.984375 28.609375 75.984375 
z
" id="DejaVuSans-102"/>
      <path d="M 56.203125 29.59375 
L 56.203125 25.203125 
L 14.890625 25.203125 
Q 15.484375 15.921875 20.484375 11.0625 
Q 25.484375 6.203125 34.421875 6.203125 
Q 39.59375 6.203125 44.453125 7.46875 
Q 49.3125 8.734375 54.109375 11.28125 
L 54.109375 2.78125 
Q 49.265625 0.734375 44.1875 -0.34375 
Q 39.109375 -1.421875 33.890625 -1.421875 
Q 20.796875 -1.421875 13.15625 6.1875 
Q 5.515625 13.8125 5.515625 26.8125 
Q 5.515625 40.234375 12.765625 48.109375 
Q 20.015625 56 32.328125 56 
Q 43.359375 56 49.78125 48.890625 
Q 56.203125 41.796875 56.203125 29.59375 
z
M 47.21875 32.234375 
Q 47.125 39.59375 43.09375 43.984375 
Q 39.0625 48.390625 32.421875 48.390625 
Q 24.90625 48.390625 20.390625 44.140625 
Q 15.875 39.890625 15.1875 32.171875 
z
" id="DejaVuSans-101"/>
      <path d="M 48.78125 52.59375 
L 48.78125 44.1875 
Q 44.96875 46.296875 41.140625 47.34375 
Q 37.3125 48.390625 33.40625 48.390625 
Q 24.65625 48.390625 19.8125 42.84375 
Q 14.984375 37.3125 14.984375 27.296875 
Q 14.984375 17.28125 19.8125 11.734375 
Q 24.65625 6.203125 33.40625 6.203125 
Q 37.3125 6.203125 41.140625 7.25 
Q 44.96875 8.296875 48.78125 10.40625 
L 48.78125 2.09375 
Q 45.015625 0.34375 40.984375 -0.53125 
Q 36.96875 -1.421875 32.421875 -1.421875 
Q 20.0625 -1.421875 12.78125 6.34375 
Q 5.515625 14.109375 5.515625 27.296875 
Q 5.515625 40.671875 12.859375 48.328125 
Q 20.21875 56 33.015625 56 
Q 37.15625 56 41.109375 55.140625 
Q 45.0625 54.296875 48.78125 52.59375 
z
" id="DejaVuSans-99"/>
      <path d="M 18.3125 70.21875 
L 18.3125 54.6875 
L 36.8125 54.6875 
L 36.8125 47.703125 
L 18.3125 47.703125 
L 18.3125 18.015625 
Q 18.3125 11.328125 20.140625 9.421875 
Q 21.96875 7.515625 27.59375 7.515625 
L 36.8125 7.515625 
L 36.8125 0 
L 27.59375 0 
Q 17.1875 0 13.234375 3.875 
Q 9.28125 7.765625 9.28125 18.015625 
L 9.28125 47.703125 
L 2.6875 47.703125 
L 2.6875 54.6875 
L 9.28125 54.6875 
L 9.28125 70.21875 
z
" id="DejaVuSans-116"/>
     </defs>
     <g style="fill:#262626;" transform="translate(33.135938 125.614259)rotate(-90)scale(0.18 -0.18)">
      <use xlink:href="#DejaVuSans-69"/>
      <use x="63.183594" xlink:href="#DejaVuSans-102"/>
      <use x="98.388672" xlink:href="#DejaVuSans-102"/>
      <use x="133.59375" xlink:href="#DejaVuSans-101"/>
      <use x="195.117188" xlink:href="#DejaVuSans-99"/>
      <use x="250.097656" xlink:href="#DejaVuSans-116"/>
     </g>
    </g>
   </g>
   <g id="PolyCollection_1">
    <defs>
     <path d="M 113.955037 -353.933865 
L 113.955037 -352.879441 
L 117.323802 -352.827548 
L 120.692568 -352.870222 
L 124.061333 -352.874596 
L 127.430099 -352.874432 
L 130.798864 -352.833855 
L 134.16763 -352.821671 
L 134.16763 -353.959246 
L 134.16763 -353.959246 
L 130.798864 -353.927804 
L 127.430099 -353.849526 
L 124.061333 -353.919899 
L 120.692568 -353.913374 
L 117.323802 -353.914514 
L 113.955037 -353.933865 
z
" id="m19c5e09bc9" style="stroke:#1f77b4;stroke-opacity:0.2;stroke-width:1.5;"/>
    </defs>
    <g clip-path="url(#p45d6ded886)">
     <use style="fill:#1f77b4;fill-opacity:0.2;stroke:#1f77b4;stroke-opacity:0.2;stroke-width:1.5;" x="0" xlink:href="#m19c5e09bc9" y="432"/>
    </g>
   </g>
   <g id="PolyCollection_2">
    <defs>
     <path d="M 113.955037 -303.760351 
L 113.955037 -303.28866 
L 117.323802 -303.296691 
L 120.692568 -303.292269 
L 124.061333 -303.307034 
L 127.430099 -303.286782 
L 130.798864 -303.29357 
L 134.16763 -303.280529 
L 137.536395 -303.292182 
L 140.90516 -303.30267 
L 144.273926 -303.28156 
L 147.642691 -303.299757 
L 151.011457 -303.282395 
L 154.380222 -303.301352 
L 157.748987 -303.301807 
L 161.117753 -303.287557 
L 164.486518 -303.287269 
L 167.855284 -303.292036 
L 171.224049 -303.292185 
L 174.592815 -303.269133 
L 177.96158 -303.294033 
L 181.330345 -303.301137 
L 184.699111 -303.27537 
L 188.067876 -303.293716 
L 191.436642 -303.294506 
L 194.805407 -303.29784 
L 198.174172 -303.304737 
L 201.542938 -303.27439 
L 204.911703 -303.284549 
L 208.280469 -303.297457 
L 211.649234 -303.293502 
L 215.017999 -303.316603 
L 218.386765 -303.294111 
L 221.75553 -303.286714 
L 225.124296 -303.300488 
L 228.493061 -303.288281 
L 231.861827 -303.309199 
L 235.230592 -303.282705 
L 235.230592 -303.769899 
L 235.230592 -303.769899 
L 231.861827 -303.751803 
L 228.493061 -303.737425 
L 225.124296 -303.763897 
L 221.75553 -303.756867 
L 218.386765 -303.744444 
L 215.017999 -303.741049 
L 211.649234 -303.745131 
L 208.280469 -303.750398 
L 204.911703 -303.744378 
L 201.542938 -303.745616 
L 198.174172 -303.753419 
L 194.805407 -303.736352 
L 191.436642 -303.778854 
L 188.067876 -303.740859 
L 184.699111 -303.766491 
L 181.330345 -303.746738 
L 177.96158 -303.741352 
L 174.592815 -303.769431 
L 171.224049 -303.763212 
L 167.855284 -303.754392 
L 164.486518 -303.762707 
L 161.117753 -303.76363 
L 157.748987 -303.757736 
L 154.380222 -303.752194 
L 151.011457 -303.753014 
L 147.642691 -303.761136 
L 144.273926 -303.755039 
L 140.90516 -303.752269 
L 137.536395 -303.749413 
L 134.16763 -303.74929 
L 130.798864 -303.764509 
L 127.430099 -303.743222 
L 124.061333 -303.75336 
L 120.692568 -303.771833 
L 117.323802 -303.767227 
L 113.955037 -303.760351 
z
" id="mc27ea32506" style="stroke:#ff7f0e;stroke-opacity:0.2;stroke-width:1.5;"/>
    </defs>
    <g clip-path="url(#p45d6ded886)">
     <use style="fill:#ff7f0e;fill-opacity:0.2;stroke:#ff7f0e;stroke-opacity:0.2;stroke-width:1.5;" x="0" xlink:href="#mc27ea32506" y="432"/>
    </g>
   </g>
   <g id="PolyCollection_3">
    <defs>
     <path d="M 113.955037 -405.185169 
L 113.955037 -403.301903 
L 117.323802 -403.319213 
L 120.692568 -403.276022 
L 124.061333 -403.351343 
L 127.430099 -403.278058 
L 130.798864 -403.433232 
L 134.16763 -403.275539 
L 137.536395 -403.32281 
L 140.90516 -403.305118 
L 144.273926 -403.333546 
L 147.642691 -403.316375 
L 151.011457 -403.321244 
L 154.380222 -403.455168 
L 154.380222 -405.274897 
L 154.380222 -405.274897 
L 151.011457 -405.169573 
L 147.642691 -405.24292 
L 144.273926 -405.224318 
L 140.90516 -405.167198 
L 137.536395 -405.200514 
L 134.16763 -405.266184 
L 130.798864 -405.161255 
L 127.430099 -405.253293 
L 124.061333 -405.192921 
L 120.692568 -405.230017 
L 117.323802 -405.225295 
L 113.955037 -405.185169 
z
" id="m51c229243e" style="stroke:#2ca02c;stroke-opacity:0.2;stroke-width:1.5;"/>
    </defs>
    <g clip-path="url(#p45d6ded886)">
     <use style="fill:#2ca02c;fill-opacity:0.2;stroke:#2ca02c;stroke-opacity:0.2;stroke-width:1.5;" x="0" xlink:href="#m51c229243e" y="432"/>
    </g>
   </g>
   <g id="PolyCollection_4">
    <defs>
     <path d="M 113.955037 -281.786251 
L 113.955037 -281.634922 
L 117.323802 -281.63513 
L 120.692568 -281.641871 
L 124.061333 -281.641742 
L 127.430099 -281.648449 
L 130.798864 -281.641682 
L 134.16763 -281.638988 
L 137.536395 -281.640539 
L 140.90516 -281.642566 
L 144.273926 -281.640288 
L 147.642691 -281.636847 
L 151.011457 -281.637489 
L 154.380222 -281.641034 
L 157.748987 -281.644786 
L 161.117753 -281.643075 
L 164.486518 -281.643009 
L 167.855284 -281.64443 
L 171.224049 -281.644386 
L 174.592815 -281.636492 
L 177.96158 -281.637225 
L 181.330345 -281.64014 
L 184.699111 -281.638856 
L 188.067876 -281.638857 
L 191.436642 -281.637221 
L 194.805407 -281.642066 
L 198.174172 -281.635138 
L 201.542938 -281.636935 
L 204.911703 -281.641377 
L 208.280469 -281.640845 
L 211.649234 -281.639569 
L 215.017999 -281.6367 
L 218.386765 -281.638603 
L 221.75553 -281.646707 
L 225.124296 -281.639614 
L 228.493061 -281.637551 
L 231.861827 -281.637487 
L 235.230592 -281.642937 
L 238.599357 -281.642367 
L 241.968123 -281.633564 
L 245.336888 -281.635301 
L 248.705654 -281.640712 
L 252.074419 -281.639197 
L 255.443184 -281.640327 
L 258.81195 -281.637101 
L 262.180715 -281.643333 
L 265.549481 -281.640385 
L 268.918246 -281.640043 
L 272.287012 -281.644692 
L 275.655777 -281.640532 
L 275.655777 -281.784886 
L 275.655777 -281.784886 
L 272.287012 -281.787103 
L 268.918246 -281.791173 
L 265.549481 -281.785108 
L 262.180715 -281.790819 
L 258.81195 -281.79025 
L 255.443184 -281.786448 
L 252.074419 -281.784057 
L 248.705654 -281.795829 
L 245.336888 -281.791772 
L 241.968123 -281.791502 
L 238.599357 -281.789527 
L 235.230592 -281.785272 
L 231.861827 -281.793329 
L 228.493061 -281.781061 
L 225.124296 -281.784334 
L 221.75553 -281.78601 
L 218.386765 -281.794645 
L 215.017999 -281.786084 
L 211.649234 -281.79319 
L 208.280469 -281.787181 
L 204.911703 -281.788191 
L 201.542938 -281.790829 
L 198.174172 -281.78644 
L 194.805407 -281.785421 
L 191.436642 -281.78851 
L 188.067876 -281.784612 
L 184.699111 -281.791136 
L 181.330345 -281.784253 
L 177.96158 -281.787051 
L 174.592815 -281.786354 
L 171.224049 -281.786066 
L 167.855284 -281.787133 
L 164.486518 -281.784914 
L 161.117753 -281.788725 
L 157.748987 -281.784277 
L 154.380222 -281.787705 
L 151.011457 -281.786926 
L 147.642691 -281.792511 
L 144.273926 -281.790051 
L 140.90516 -281.787179 
L 137.536395 -281.782718 
L 134.16763 -281.788845 
L 130.798864 -281.78724 
L 127.430099 -281.787568 
L 124.061333 -281.781842 
L 120.692568 -281.792079 
L 117.323802 -281.789423 
L 113.955037 -281.786251 
z
" id="mced817d30f" style="stroke:#d62728;stroke-opacity:0.2;stroke-width:1.5;"/>
    </defs>
    <g clip-path="url(#p45d6ded886)">
     <use style="fill:#d62728;fill-opacity:0.2;stroke:#d62728;stroke-opacity:0.2;stroke-width:1.5;" x="0" xlink:href="#mced817d30f" y="432"/>
    </g>
   </g>
   <g id="PolyCollection_5">
    <defs>
     <path d="M 113.955037 -331.577414 
L 113.955037 -330.839871 
L 117.323802 -330.836522 
L 120.692568 -330.801172 
L 124.061333 -330.826305 
L 127.430099 -330.833709 
L 130.798864 -330.823489 
L 134.16763 -330.788116 
L 137.536395 -330.830016 
L 140.90516 -330.801743 
L 144.273926 -330.785828 
L 147.642691 -330.805763 
L 151.011457 -330.795698 
L 154.380222 -330.82287 
L 157.748987 -330.801914 
L 161.117753 -330.830819 
L 164.486518 -330.829383 
L 167.855284 -330.822125 
L 171.224049 -330.796357 
L 174.592815 -330.824946 
L 177.96158 -330.845393 
L 181.330345 -330.823349 
L 184.699111 -330.806223 
L 188.067876 -330.823837 
L 191.436642 -330.817679 
L 194.805407 -330.815565 
L 194.805407 -331.596389 
L 194.805407 -331.596389 
L 191.436642 -331.575329 
L 188.067876 -331.560598 
L 184.699111 -331.55399 
L 181.330345 -331.577511 
L 177.96158 -331.596338 
L 174.592815 -331.569179 
L 171.224049 -331.598721 
L 167.855284 -331.563852 
L 164.486518 -331.581661 
L 161.117753 -331.59552 
L 157.748987 -331.538435 
L 154.380222 -331.558257 
L 151.011457 -331.575219 
L 147.642691 -331.548558 
L 144.273926 -331.590309 
L 140.90516 -331.55603 
L 137.536395 -331.576135 
L 134.16763 -331.562834 
L 130.798864 -331.55986 
L 127.430099 -331.579651 
L 124.061333 -331.569854 
L 120.692568 -331.598692 
L 117.323802 -331.572117 
L 113.955037 -331.577414 
z
" id="mbd2b266ee8" style="stroke:#9467bd;stroke-opacity:0.2;stroke-width:1.5;"/>
    </defs>
    <g clip-path="url(#p45d6ded886)">
     <use style="fill:#9467bd;fill-opacity:0.2;stroke:#9467bd;stroke-opacity:0.2;stroke-width:1.5;" x="0" xlink:href="#mbd2b266ee8" y="432"/>
    </g>
   </g>
   <g id="line2d_8">
    <path clip-path="url(#p45d6ded886)" d="M 113.955037 78.608757 
L 117.323802 78.628683 
L 120.692568 78.606372 
L 124.061333 78.600857 
L 127.430099 78.63223 
L 130.798864 78.617536 
L 134.16763 78.597479 
" style="fill:none;stroke:#1f77b4;stroke-linecap:round;stroke-width:2.25;"/>
   </g>
   <g id="line2d_9">
    <path clip-path="url(#p45d6ded886)" d="M 113.955037 128.476255 
L 117.323802 128.477082 
L 120.692568 128.476486 
L 124.061333 128.476032 
L 127.430099 128.47628 
L 130.798864 128.475783 
L 134.16763 128.476283 
L 137.536395 128.476249 
L 140.90516 128.476144 
L 144.273926 128.476919 
L 147.642691 128.476549 
L 151.011457 128.476097 
L 154.380222 128.476604 
L 157.748987 128.476409 
L 161.117753 128.476135 
L 164.486518 128.476885 
L 167.855284 128.475988 
L 171.224049 128.478218 
L 174.592815 128.477315 
L 177.96158 128.47777 
L 181.330345 128.478008 
L 184.699111 128.477428 
L 188.067876 128.480266 
L 191.436642 128.477003 
L 194.805407 128.479583 
L 198.174172 128.476833 
L 201.542938 128.476997 
L 204.911703 128.476802 
L 208.280469 128.47642 
L 211.649234 128.476532 
L 215.017999 128.476477 
L 218.386765 128.476843 
L 221.75553 128.476371 
L 225.124296 128.476385 
L 228.493061 128.47613 
L 231.861827 128.476044 
L 235.230592 128.476072 
" style="fill:none;stroke:#ff7f0e;stroke-linecap:round;stroke-width:2.25;"/>
   </g>
   <g id="line2d_10">
    <path clip-path="url(#p45d6ded886)" d="M 113.955037 27.71167 
L 117.323802 27.742953 
L 120.692568 27.728678 
L 124.061333 27.724747 
L 127.430099 27.721293 
L 130.798864 27.734615 
L 134.16763 27.725242 
L 137.536395 27.748885 
L 140.90516 27.747276 
L 144.273926 27.736839 
L 147.642691 27.765075 
L 151.011457 27.719587 
L 154.380222 27.713785 
" style="fill:none;stroke:#2ca02c;stroke-linecap:round;stroke-width:2.25;"/>
   </g>
   <g id="line2d_11">
    <path clip-path="url(#p45d6ded886)" d="M 113.955037 150.285886 
L 117.323802 150.285891 
L 120.692568 150.285891 
L 124.061333 150.285892 
L 127.430099 150.285892 
L 130.798864 150.285892 
L 134.16763 150.285891 
L 137.536395 150.285891 
L 140.90516 150.28589 
L 144.273926 150.28589 
L 147.642691 150.285889 
L 151.011457 150.285889 
L 154.380222 150.285889 
L 157.748987 150.285889 
L 161.117753 150.285889 
L 164.486518 150.285888 
L 167.855284 150.285888 
L 171.224049 150.285889 
L 174.592815 150.285889 
L 177.96158 150.285889 
L 181.330345 150.285888 
L 184.699111 150.285888 
L 188.067876 150.285887 
L 191.436642 150.285888 
L 194.805407 150.285887 
L 198.174172 150.285887 
L 201.542938 150.285887 
L 204.911703 150.285887 
L 208.280469 150.285887 
L 211.649234 150.285887 
L 215.017999 150.285887 
L 218.386765 150.285887 
L 221.75553 150.285888 
L 225.124296 150.285887 
L 228.493061 150.285888 
L 231.861827 150.285888 
L 235.230592 150.285889 
L 238.599357 150.285889 
L 241.968123 150.285888 
L 245.336888 150.285888 
L 248.705654 150.285889 
L 252.074419 150.285889 
L 255.443184 150.285889 
L 258.81195 150.285889 
L 262.180715 150.285889 
L 265.549481 150.28589 
L 268.918246 150.285888 
L 272.287012 150.285886 
L 275.655777 150.285886 
" style="fill:none;stroke:#d62728;stroke-linecap:round;stroke-width:2.25;"/>
   </g>
   <g id="line2d_12">
    <path clip-path="url(#p45d6ded886)" d="M 113.955037 100.802635 
L 117.323802 100.804826 
L 120.692568 100.800807 
L 124.061333 100.801642 
L 127.430099 100.803294 
L 130.798864 100.804187 
L 134.16763 100.80388 
L 137.536395 100.805471 
L 140.90516 100.803204 
L 144.273926 100.803505 
L 147.642691 100.804396 
L 151.011457 100.80363 
L 154.380222 100.802773 
L 157.748987 100.808942 
L 161.117753 100.805246 
L 164.486518 100.806996 
L 167.855284 100.807191 
L 171.224049 100.807941 
L 174.592815 100.804821 
L 177.96158 100.806449 
L 181.330345 100.80451 
L 184.699111 100.802511 
L 188.067876 100.80165 
L 191.436642 100.801431 
L 194.805407 100.801868 
" style="fill:none;stroke:#9467bd;stroke-linecap:round;stroke-width:2.25;"/>
   </g>
   <g id="patch_3">
    <path d="M 105.87 179.712268 
L 105.87 19.44 
" style="fill:none;stroke:#cccccc;stroke-linecap:square;stroke-linejoin:miter;stroke-width:1.875;"/>
   </g>
   <g id="patch_4">
    <path d="M 105.87 179.712268 
L 283.740814 179.712268 
" style="fill:none;stroke:#cccccc;stroke-linecap:square;stroke-linejoin:miter;stroke-width:1.875;"/>
   </g>
   <g id="text_6">
    <g id="patch_5">
     <path d="M 283.33823 21.49129 
L 283.33823 177.660978 
L 308.678855 177.660978 
L 308.678855 21.49129 
z
" style="fill:#ffffff;stroke:#ffffff;stroke-linejoin:miter;stroke-width:1.5;"/>
    </g>
    <!-- Random = False -->
    <defs>
     <path d="M 44.390625 34.1875 
Q 47.5625 33.109375 50.5625 29.59375 
Q 53.5625 26.078125 56.59375 19.921875 
L 66.609375 0 
L 56 0 
L 46.6875 18.703125 
Q 43.0625 26.03125 39.671875 28.421875 
Q 36.28125 30.8125 30.421875 30.8125 
L 19.671875 30.8125 
L 19.671875 0 
L 9.8125 0 
L 9.8125 72.90625 
L 32.078125 72.90625 
Q 44.578125 72.90625 50.734375 67.671875 
Q 56.890625 62.453125 56.890625 51.90625 
Q 56.890625 45.015625 53.6875 40.46875 
Q 50.484375 35.9375 44.390625 34.1875 
z
M 19.671875 64.796875 
L 19.671875 38.921875 
L 32.078125 38.921875 
Q 39.203125 38.921875 42.84375 42.21875 
Q 46.484375 45.515625 46.484375 51.90625 
Q 46.484375 58.296875 42.84375 61.546875 
Q 39.203125 64.796875 32.078125 64.796875 
z
" id="DejaVuSans-82"/>
     <path d="M 34.28125 27.484375 
Q 23.390625 27.484375 19.1875 25 
Q 14.984375 22.515625 14.984375 16.5 
Q 14.984375 11.71875 18.140625 8.90625 
Q 21.296875 6.109375 26.703125 6.109375 
Q 34.1875 6.109375 38.703125 11.40625 
Q 43.21875 16.703125 43.21875 25.484375 
L 43.21875 27.484375 
z
M 52.203125 31.203125 
L 52.203125 0 
L 43.21875 0 
L 43.21875 8.296875 
Q 40.140625 3.328125 35.546875 0.953125 
Q 30.953125 -1.421875 24.3125 -1.421875 
Q 15.921875 -1.421875 10.953125 3.296875 
Q 6 8.015625 6 15.921875 
Q 6 25.140625 12.171875 29.828125 
Q 18.359375 34.515625 30.609375 34.515625 
L 43.21875 34.515625 
L 43.21875 35.40625 
Q 43.21875 41.609375 39.140625 45 
Q 35.0625 48.390625 27.6875 48.390625 
Q 23 48.390625 18.546875 47.265625 
Q 14.109375 46.140625 10.015625 43.890625 
L 10.015625 52.203125 
Q 14.9375 54.109375 19.578125 55.046875 
Q 24.21875 56 28.609375 56 
Q 40.484375 56 46.34375 49.84375 
Q 52.203125 43.703125 52.203125 31.203125 
z
" id="DejaVuSans-97"/>
     <path d="M 54.890625 33.015625 
L 54.890625 0 
L 45.90625 0 
L 45.90625 32.71875 
Q 45.90625 40.484375 42.875 44.328125 
Q 39.84375 48.1875 33.796875 48.1875 
Q 26.515625 48.1875 22.3125 43.546875 
Q 18.109375 38.921875 18.109375 30.90625 
L 18.109375 0 
L 9.078125 0 
L 9.078125 54.6875 
L 18.109375 54.6875 
L 18.109375 46.1875 
Q 21.34375 51.125 25.703125 53.5625 
Q 30.078125 56 35.796875 56 
Q 45.21875 56 50.046875 50.171875 
Q 54.890625 44.34375 54.890625 33.015625 
z
" id="DejaVuSans-110"/>
     <path d="M 45.40625 46.390625 
L 45.40625 75.984375 
L 54.390625 75.984375 
L 54.390625 0 
L 45.40625 0 
L 45.40625 8.203125 
Q 42.578125 3.328125 38.25 0.953125 
Q 33.9375 -1.421875 27.875 -1.421875 
Q 17.96875 -1.421875 11.734375 6.484375 
Q 5.515625 14.40625 5.515625 27.296875 
Q 5.515625 40.1875 11.734375 48.09375 
Q 17.96875 56 27.875 56 
Q 33.9375 56 38.25 53.625 
Q 42.578125 51.265625 45.40625 46.390625 
z
M 14.796875 27.296875 
Q 14.796875 17.390625 18.875 11.75 
Q 22.953125 6.109375 30.078125 6.109375 
Q 37.203125 6.109375 41.296875 11.75 
Q 45.40625 17.390625 45.40625 27.296875 
Q 45.40625 37.203125 41.296875 42.84375 
Q 37.203125 48.484375 30.078125 48.484375 
Q 22.953125 48.484375 18.875 42.84375 
Q 14.796875 37.203125 14.796875 27.296875 
z
" id="DejaVuSans-100"/>
     <path d="M 30.609375 48.390625 
Q 23.390625 48.390625 19.1875 42.75 
Q 14.984375 37.109375 14.984375 27.296875 
Q 14.984375 17.484375 19.15625 11.84375 
Q 23.34375 6.203125 30.609375 6.203125 
Q 37.796875 6.203125 41.984375 11.859375 
Q 46.1875 17.53125 46.1875 27.296875 
Q 46.1875 37.015625 41.984375 42.703125 
Q 37.796875 48.390625 30.609375 48.390625 
z
M 30.609375 56 
Q 42.328125 56 49.015625 48.375 
Q 55.71875 40.765625 55.71875 27.296875 
Q 55.71875 13.875 49.015625 6.21875 
Q 42.328125 -1.421875 30.609375 -1.421875 
Q 18.84375 -1.421875 12.171875 6.21875 
Q 5.515625 13.875 5.515625 27.296875 
Q 5.515625 40.765625 12.171875 48.375 
Q 18.84375 56 30.609375 56 
z
" id="DejaVuSans-111"/>
     <path d="M 52 44.1875 
Q 55.375 50.25 60.0625 53.125 
Q 64.75 56 71.09375 56 
Q 79.640625 56 84.28125 50.015625 
Q 88.921875 44.046875 88.921875 33.015625 
L 88.921875 0 
L 79.890625 0 
L 79.890625 32.71875 
Q 79.890625 40.578125 77.09375 44.375 
Q 74.3125 48.1875 68.609375 48.1875 
Q 61.625 48.1875 57.5625 43.546875 
Q 53.515625 38.921875 53.515625 30.90625 
L 53.515625 0 
L 44.484375 0 
L 44.484375 32.71875 
Q 44.484375 40.625 41.703125 44.40625 
Q 38.921875 48.1875 33.109375 48.1875 
Q 26.21875 48.1875 22.15625 43.53125 
Q 18.109375 38.875 18.109375 30.90625 
L 18.109375 0 
L 9.078125 0 
L 9.078125 54.6875 
L 18.109375 54.6875 
L 18.109375 46.1875 
Q 21.1875 51.21875 25.484375 53.609375 
Q 29.78125 56 35.6875 56 
Q 41.65625 56 45.828125 52.96875 
Q 50 49.953125 52 44.1875 
z
" id="DejaVuSans-109"/>
     <path id="DejaVuSans-32"/>
     <path d="M 10.59375 45.40625 
L 73.1875 45.40625 
L 73.1875 37.203125 
L 10.59375 37.203125 
z
M 10.59375 25.484375 
L 73.1875 25.484375 
L 73.1875 17.1875 
L 10.59375 17.1875 
z
" id="DejaVuSans-61"/>
     <path d="M 9.8125 72.90625 
L 51.703125 72.90625 
L 51.703125 64.59375 
L 19.671875 64.59375 
L 19.671875 43.109375 
L 48.578125 43.109375 
L 48.578125 34.8125 
L 19.671875 34.8125 
L 19.671875 0 
L 9.8125 0 
z
" id="DejaVuSans-70"/>
     <path d="M 9.421875 75.984375 
L 18.40625 75.984375 
L 18.40625 0 
L 9.421875 0 
z
" id="DejaVuSans-108"/>
     <path d="M 44.28125 53.078125 
L 44.28125 44.578125 
Q 40.484375 46.53125 36.375 47.5 
Q 32.28125 48.484375 27.875 48.484375 
Q 21.1875 48.484375 17.84375 46.4375 
Q 14.5 44.390625 14.5 40.28125 
Q 14.5 37.15625 16.890625 35.375 
Q 19.28125 33.59375 26.515625 31.984375 
L 29.59375 31.296875 
Q 39.15625 29.25 43.1875 25.515625 
Q 47.21875 21.78125 47.21875 15.09375 
Q 47.21875 7.46875 41.1875 3.015625 
Q 35.15625 -1.421875 24.609375 -1.421875 
Q 20.21875 -1.421875 15.453125 -0.5625 
Q 10.6875 0.296875 5.421875 2 
L 5.421875 11.28125 
Q 10.40625 8.6875 15.234375 7.390625 
Q 20.0625 6.109375 24.8125 6.109375 
Q 31.15625 6.109375 34.5625 8.28125 
Q 37.984375 10.453125 37.984375 14.40625 
Q 37.984375 18.0625 35.515625 20.015625 
Q 33.0625 21.96875 24.703125 23.78125 
L 21.578125 24.515625 
Q 13.234375 26.265625 9.515625 29.90625 
Q 5.8125 33.546875 5.8125 39.890625 
Q 5.8125 47.609375 11.28125 51.796875 
Q 16.75 56 26.8125 56 
Q 31.78125 56 36.171875 55.265625 
Q 40.578125 54.546875 44.28125 53.078125 
z
" id="DejaVuSans-115"/>
    </defs>
    <g style="fill:#262626;" transform="translate(291.041668 25.45129)rotate(-270)scale(0.18 -0.18)">
     <use xlink:href="#DejaVuSans-82"/>
     <use x="69.451172" xlink:href="#DejaVuSans-97"/>
     <use x="130.730469" xlink:href="#DejaVuSans-110"/>
     <use x="194.109375" xlink:href="#DejaVuSans-100"/>
     <use x="257.585938" xlink:href="#DejaVuSans-111"/>
     <use x="318.767578" xlink:href="#DejaVuSans-109"/>
     <use x="416.179688" xlink:href="#DejaVuSans-32"/>
     <use x="447.966797" xlink:href="#DejaVuSans-61"/>
     <use x="531.755859" xlink:href="#DejaVuSans-32"/>
     <use x="563.542969" xlink:href="#DejaVuSans-70"/>
     <use x="620.921875" xlink:href="#DejaVuSans-97"/>
     <use x="682.201172" xlink:href="#DejaVuSans-108"/>
     <use x="709.984375" xlink:href="#DejaVuSans-115"/>
     <use x="762.083984" xlink:href="#DejaVuSans-101"/>
    </g>
   </g>
  </g>
  <g id="axes_2">
   <g id="patch_6">
    <path d="M 105.87 362.22 
L 283.740814 362.22 
L 283.740814 201.947732 
L 105.87 201.947732 
z
" style="fill:#ffffff;"/>
   </g>
   <g id="matplotlib.axis_3">
    <g id="xtick_4">
     <g id="line2d_13">
      <path clip-path="url(#p59fe2052a2)" d="M 113.955037 362.22 
L 113.955037 201.947732 
" style="fill:none;stroke:#cccccc;stroke-linecap:round;stroke-width:1.5;"/>
     </g>
     <g id="text_7">
      <!-- 0 -->
      <g style="fill:#262626;" transform="translate(108.705975 387.257422)scale(0.165 -0.165)">
       <use xlink:href="#DejaVuSans-48"/>
      </g>
     </g>
    </g>
    <g id="xtick_5">
     <g id="line2d_14">
      <path clip-path="url(#p59fe2052a2)" d="M 181.330345 362.22 
L 181.330345 201.947732 
" style="fill:none;stroke:#cccccc;stroke-linecap:round;stroke-width:1.5;"/>
     </g>
     <g id="text_8">
      <!-- 20 -->
      <defs>
       <path d="M 19.1875 8.296875 
L 53.609375 8.296875 
L 53.609375 0 
L 7.328125 0 
L 7.328125 8.296875 
Q 12.9375 14.109375 22.625 23.890625 
Q 32.328125 33.6875 34.8125 36.53125 
Q 39.546875 41.84375 41.421875 45.53125 
Q 43.3125 49.21875 43.3125 52.78125 
Q 43.3125 58.59375 39.234375 62.25 
Q 35.15625 65.921875 28.609375 65.921875 
Q 23.96875 65.921875 18.8125 64.3125 
Q 13.671875 62.703125 7.8125 59.421875 
L 7.8125 69.390625 
Q 13.765625 71.78125 18.9375 73 
Q 24.125 74.21875 28.421875 74.21875 
Q 39.75 74.21875 46.484375 68.546875 
Q 53.21875 62.890625 53.21875 53.421875 
Q 53.21875 48.921875 51.53125 44.890625 
Q 49.859375 40.875 45.40625 35.40625 
Q 44.1875 33.984375 37.640625 27.21875 
Q 31.109375 20.453125 19.1875 8.296875 
z
" id="DejaVuSans-50"/>
      </defs>
      <g style="fill:#262626;" transform="translate(170.83222 387.257422)scale(0.165 -0.165)">
       <use xlink:href="#DejaVuSans-50"/>
       <use x="63.623047" xlink:href="#DejaVuSans-48"/>
      </g>
     </g>
    </g>
    <g id="xtick_6">
     <g id="line2d_15">
      <path clip-path="url(#p59fe2052a2)" d="M 248.705654 362.22 
L 248.705654 201.947732 
" style="fill:none;stroke:#cccccc;stroke-linecap:round;stroke-width:1.5;"/>
     </g>
     <g id="text_9">
      <!-- 40 -->
      <defs>
       <path d="M 37.796875 64.3125 
L 12.890625 25.390625 
L 37.796875 25.390625 
z
M 35.203125 72.90625 
L 47.609375 72.90625 
L 47.609375 25.390625 
L 58.015625 25.390625 
L 58.015625 17.1875 
L 47.609375 17.1875 
L 47.609375 0 
L 37.796875 0 
L 37.796875 17.1875 
L 4.890625 17.1875 
L 4.890625 26.703125 
z
" id="DejaVuSans-52"/>
      </defs>
      <g style="fill:#262626;" transform="translate(238.207529 387.257422)scale(0.165 -0.165)">
       <use xlink:href="#DejaVuSans-52"/>
       <use x="63.623047" xlink:href="#DejaVuSans-48"/>
      </g>
     </g>
    </g>
    <g id="text_10">
     <!-- Layer -->
     <defs>
      <path d="M 9.8125 72.90625 
L 19.671875 72.90625 
L 19.671875 8.296875 
L 55.171875 8.296875 
L 55.171875 0 
L 9.8125 0 
z
" id="DejaVuSans-76"/>
      <path d="M 32.171875 -5.078125 
Q 28.375 -14.84375 24.75 -17.8125 
Q 21.140625 -20.796875 15.09375 -20.796875 
L 7.90625 -20.796875 
L 7.90625 -13.28125 
L 13.1875 -13.28125 
Q 16.890625 -13.28125 18.9375 -11.515625 
Q 21 -9.765625 23.484375 -3.21875 
L 25.09375 0.875 
L 2.984375 54.6875 
L 12.5 54.6875 
L 29.59375 11.921875 
L 46.6875 54.6875 
L 56.203125 54.6875 
z
" id="DejaVuSans-121"/>
      <path d="M 41.109375 46.296875 
Q 39.59375 47.171875 37.8125 47.578125 
Q 36.03125 48 33.890625 48 
Q 26.265625 48 22.1875 43.046875 
Q 18.109375 38.09375 18.109375 28.8125 
L 18.109375 0 
L 9.078125 0 
L 9.078125 54.6875 
L 18.109375 54.6875 
L 18.109375 46.1875 
Q 20.953125 51.171875 25.484375 53.578125 
Q 30.03125 56 36.53125 56 
Q 37.453125 56 38.578125 55.875 
Q 39.703125 55.765625 41.0625 55.515625 
z
" id="DejaVuSans-114"/>
     </defs>
     <g style="fill:#262626;" transform="translate(169.710876 408.366094)scale(0.18 -0.18)">
      <use xlink:href="#DejaVuSans-76"/>
      <use x="55.712891" xlink:href="#DejaVuSans-97"/>
      <use x="116.992188" xlink:href="#DejaVuSans-121"/>
      <use x="176.171875" xlink:href="#DejaVuSans-101"/>
      <use x="237.695312" xlink:href="#DejaVuSans-114"/>
     </g>
    </g>
   </g>
   <g id="matplotlib.axis_4">
    <g id="ytick_5">
     <g id="line2d_16">
      <path clip-path="url(#p59fe2052a2)" d="M 105.87 354.935986 
L 283.740814 354.935986 
" style="fill:none;stroke:#cccccc;stroke-linecap:round;stroke-width:1.5;"/>
     </g>
     <g id="text_11">
      <!-- 0 -->
      <g style="fill:#262626;" transform="translate(82.871875 361.204697)scale(0.165 -0.165)">
       <use xlink:href="#DejaVuSans-48"/>
      </g>
     </g>
    </g>
    <g id="ytick_6">
     <g id="line2d_17">
      <path clip-path="url(#p59fe2052a2)" d="M 105.87 314.802722 
L 283.740814 314.802722 
" style="fill:none;stroke:#cccccc;stroke-linecap:round;stroke-width:1.5;"/>
     </g>
     <g id="text_12">
      <!-- 5000 -->
      <g style="fill:#262626;" transform="translate(51.3775 321.071432)scale(0.165 -0.165)">
       <use xlink:href="#DejaVuSans-53"/>
       <use x="63.623047" xlink:href="#DejaVuSans-48"/>
       <use x="127.246094" xlink:href="#DejaVuSans-48"/>
       <use x="190.869141" xlink:href="#DejaVuSans-48"/>
      </g>
     </g>
    </g>
    <g id="ytick_7">
     <g id="line2d_18">
      <path clip-path="url(#p59fe2052a2)" d="M 105.87 274.669457 
L 283.740814 274.669457 
" style="fill:none;stroke:#cccccc;stroke-linecap:round;stroke-width:1.5;"/>
     </g>
     <g id="text_13">
      <!-- 10000 -->
      <g style="fill:#262626;" transform="translate(40.879375 280.938168)scale(0.165 -0.165)">
       <use xlink:href="#DejaVuSans-49"/>
       <use x="63.623047" xlink:href="#DejaVuSans-48"/>
       <use x="127.246094" xlink:href="#DejaVuSans-48"/>
       <use x="190.869141" xlink:href="#DejaVuSans-48"/>
       <use x="254.492188" xlink:href="#DejaVuSans-48"/>
      </g>
     </g>
    </g>
    <g id="ytick_8">
     <g id="line2d_19">
      <path clip-path="url(#p59fe2052a2)" d="M 105.87 234.536192 
L 283.740814 234.536192 
" style="fill:none;stroke:#cccccc;stroke-linecap:round;stroke-width:1.5;"/>
     </g>
     <g id="text_14">
      <!-- 15000 -->
      <g style="fill:#262626;" transform="translate(40.879375 240.804903)scale(0.165 -0.165)">
       <use xlink:href="#DejaVuSans-49"/>
       <use x="63.623047" xlink:href="#DejaVuSans-53"/>
       <use x="127.246094" xlink:href="#DejaVuSans-48"/>
       <use x="190.869141" xlink:href="#DejaVuSans-48"/>
       <use x="254.492188" xlink:href="#DejaVuSans-48"/>
      </g>
     </g>
    </g>
    <g id="text_15">
     <!-- Effect -->
     <g style="fill:#262626;" transform="translate(33.135938 308.121991)rotate(-90)scale(0.18 -0.18)">
      <use xlink:href="#DejaVuSans-69"/>
      <use x="63.183594" xlink:href="#DejaVuSans-102"/>
      <use x="98.388672" xlink:href="#DejaVuSans-102"/>
      <use x="133.59375" xlink:href="#DejaVuSans-101"/>
      <use x="195.117188" xlink:href="#DejaVuSans-99"/>
      <use x="250.097656" xlink:href="#DejaVuSans-116"/>
     </g>
    </g>
   </g>
   <g id="PolyCollection_6">
    <defs>
     <path d="M 113.955037 -77.065146 
L 113.955037 -77.065104 
L 117.323802 -77.065105 
L 120.692568 -77.065105 
L 124.061333 -77.065106 
L 127.430099 -77.065106 
L 130.798864 -77.065104 
L 134.16763 -77.065104 
L 137.536395 -77.065106 
L 140.90516 -77.065106 
L 144.273926 -77.065105 
L 147.642691 -77.065104 
L 151.011457 -77.065105 
L 154.380222 -77.065103 
L 157.748987 -77.065105 
L 161.117753 -77.065106 
L 164.486518 -77.065105 
L 167.855284 -77.065104 
L 171.224049 -77.065104 
L 174.592815 -77.065105 
L 177.96158 -77.065105 
L 181.330345 -77.065103 
L 184.699111 -77.065105 
L 188.067876 -77.065105 
L 191.436642 -77.065105 
L 194.805407 -77.065105 
L 194.805407 -77.065146 
L 194.805407 -77.065146 
L 191.436642 -77.065146 
L 188.067876 -77.065147 
L 184.699111 -77.065145 
L 181.330345 -77.065146 
L 177.96158 -77.065146 
L 174.592815 -77.065147 
L 171.224049 -77.065145 
L 167.855284 -77.065147 
L 164.486518 -77.065148 
L 161.117753 -77.065146 
L 157.748987 -77.065146 
L 154.380222 -77.065147 
L 151.011457 -77.065146 
L 147.642691 -77.065146 
L 144.273926 -77.065146 
L 140.90516 -77.065146 
L 137.536395 -77.065147 
L 134.16763 -77.065147 
L 130.798864 -77.065147 
L 127.430099 -77.065145 
L 124.061333 -77.065147 
L 120.692568 -77.065147 
L 117.323802 -77.065147 
L 113.955037 -77.065146 
z
" id="mbe6b348eff" style="stroke:#9467bd;stroke-opacity:0.2;stroke-width:1.5;"/>
    </defs>
    <g clip-path="url(#p59fe2052a2)">
     <use style="fill:#9467bd;fill-opacity:0.2;stroke:#9467bd;stroke-opacity:0.2;stroke-width:1.5;" x="0" xlink:href="#mbe6b348eff" y="432"/>
    </g>
   </g>
   <g id="line2d_20">
    <path clip-path="url(#p59fe2052a2)" d="M 113.955037 354.934876 
L 117.323802 354.934875 
L 120.692568 354.934874 
L 124.061333 354.934874 
L 127.430099 354.934874 
L 130.798864 354.934874 
L 134.16763 354.934874 
L 137.536395 354.934874 
L 140.90516 354.934874 
L 144.273926 354.934874 
L 147.642691 354.934874 
L 151.011457 354.934874 
L 154.380222 354.934874 
L 157.748987 354.934874 
L 161.117753 354.934874 
L 164.486518 354.934874 
L 167.855284 354.934874 
L 171.224049 354.934874 
L 174.592815 354.934874 
L 177.96158 354.934874 
L 181.330345 354.934874 
L 184.699111 354.934874 
L 188.067876 354.934874 
L 191.436642 354.934874 
L 194.805407 354.934874 
" style="fill:none;stroke:#9467bd;stroke-linecap:round;stroke-width:2.25;"/>
   </g>
   <g id="patch_7">
    <path d="M 105.87 362.22 
L 105.87 201.947732 
" style="fill:none;stroke:#cccccc;stroke-linecap:square;stroke-linejoin:miter;stroke-width:1.875;"/>
   </g>
   <g id="patch_8">
    <path d="M 105.87 362.22 
L 283.740814 362.22 
" style="fill:none;stroke:#cccccc;stroke-linecap:square;stroke-linejoin:miter;stroke-width:1.875;"/>
   </g>
   <g id="text_16">
    <g id="patch_9">
     <path d="M 283.33823 206.985897 
L 283.33823 357.181835 
L 308.678855 357.181835 
L 308.678855 206.985897 
z
" style="fill:#ffffff;stroke:#ffffff;stroke-linejoin:miter;stroke-width:1.5;"/>
    </g>
    <!-- Random = True -->
    <defs>
     <path d="M -0.296875 72.90625 
L 61.375 72.90625 
L 61.375 64.59375 
L 35.5 64.59375 
L 35.5 0 
L 25.59375 0 
L 25.59375 64.59375 
L -0.296875 64.59375 
z
" id="DejaVuSans-84"/>
     <path d="M 8.5 21.578125 
L 8.5 54.6875 
L 17.484375 54.6875 
L 17.484375 21.921875 
Q 17.484375 14.15625 20.5 10.265625 
Q 23.53125 6.390625 29.59375 6.390625 
Q 36.859375 6.390625 41.078125 11.03125 
Q 45.3125 15.671875 45.3125 23.6875 
L 45.3125 54.6875 
L 54.296875 54.6875 
L 54.296875 0 
L 45.3125 0 
L 45.3125 8.40625 
Q 42.046875 3.421875 37.71875 1 
Q 33.40625 -1.421875 27.6875 -1.421875 
Q 18.265625 -1.421875 13.375 4.4375 
Q 8.5 10.296875 8.5 21.578125 
z
M 31.109375 56 
z
" id="DejaVuSans-117"/>
    </defs>
    <g style="fill:#262626;" transform="translate(291.041668 210.945897)rotate(-270)scale(0.18 -0.18)">
     <use xlink:href="#DejaVuSans-82"/>
     <use x="69.451172" xlink:href="#DejaVuSans-97"/>
     <use x="130.730469" xlink:href="#DejaVuSans-110"/>
     <use x="194.109375" xlink:href="#DejaVuSans-100"/>
     <use x="257.585938" xlink:href="#DejaVuSans-111"/>
     <use x="318.767578" xlink:href="#DejaVuSans-109"/>
     <use x="416.179688" xlink:href="#DejaVuSans-32"/>
     <use x="447.966797" xlink:href="#DejaVuSans-61"/>
     <use x="531.755859" xlink:href="#DejaVuSans-32"/>
     <use x="563.542969" xlink:href="#DejaVuSans-84"/>
     <use x="624.408203" xlink:href="#DejaVuSans-114"/>
     <use x="665.521484" xlink:href="#DejaVuSans-117"/>
     <use x="728.900391" xlink:href="#DejaVuSans-101"/>
    </g>
   </g>
  </g>
 </g>
 <defs>
  <clipPath id="p45d6ded886">
   <rect height="160.272268" width="177.870814" x="105.87" y="19.44"/>
  </clipPath>
  <clipPath id="p59fe2052a2">
   <rect height="160.272268" width="177.870814" x="105.87" y="201.947732"/>
  </clipPath>
 </defs>
</svg>
