<?xml version="1.0" encoding="utf-8" standalone="no"?>
<!DOCTYPE svg PUBLIC "-//W3C//DTD SVG 1.1//EN"
  "http://www.w3.org/Graphics/SVG/1.1/DTD/svg11.dtd">
<!-- Created with matplotlib (https://matplotlib.org/) -->
<svg height="432pt" version="1.1" viewBox="0 0 324 432" width="324pt" xmlns="http://www.w3.org/2000/svg" xmlns:xlink="http://www.w3.org/1999/xlink">
 <defs>
  <style type="text/css">
*{stroke-linecap:butt;stroke-linejoin:round;}
  </style>
 </defs>
 <g id="figure_1">
  <g id="patch_1">
   <path d="M 0 432 
L 324 432 
L 324 0 
L 0 0 
z
" style="fill:#ffffff;"/>
  </g>
  <g id="axes_1">
   <g id="patch_2">
    <path d="M 111.18 180.967279 
L 283.847014 180.967279 
L 283.847014 19.44 
L 111.18 19.44 
z
" style="fill:#ffffff;"/>
   </g>
   <g id="matplotlib.axis_1">
    <g id="xtick_1">
     <g id="line2d_1">
      <path clip-path="url(#p7d632eb9d1)" d="M 119.028501 180.967279 
L 119.028501 19.44 
" style="fill:none;stroke:#cccccc;stroke-linecap:round;stroke-width:1.5;"/>
     </g>
    </g>
    <g id="xtick_2">
     <g id="line2d_2">
      <path clip-path="url(#p7d632eb9d1)" d="M 184.432673 180.967279 
L 184.432673 19.44 
" style="fill:none;stroke:#cccccc;stroke-linecap:round;stroke-width:1.5;"/>
     </g>
    </g>
    <g id="xtick_3">
     <g id="line2d_3">
      <path clip-path="url(#p7d632eb9d1)" d="M 249.836845 180.967279 
L 249.836845 19.44 
" style="fill:none;stroke:#cccccc;stroke-linecap:round;stroke-width:1.5;"/>
     </g>
    </g>
   </g>
   <g id="matplotlib.axis_2">
    <g id="ytick_1">
     <g id="line2d_4">
      <path clip-path="url(#p7d632eb9d1)" d="M 111.18 171.171405 
L 283.847014 171.171405 
" style="fill:none;stroke:#cccccc;stroke-linecap:round;stroke-width:1.5;"/>
     </g>
     <g id="text_1">
      <!-- 0.0000 -->
      <defs>
       <path d="M 31.78125 66.40625 
Q 24.171875 66.40625 20.328125 58.90625 
Q 16.5 51.421875 16.5 36.375 
Q 16.5 21.390625 20.328125 13.890625 
Q 24.171875 6.390625 31.78125 6.390625 
Q 39.453125 6.390625 43.28125 13.890625 
Q 47.125 21.390625 47.125 36.375 
Q 47.125 51.421875 43.28125 58.90625 
Q 39.453125 66.40625 31.78125 66.40625 
z
M 31.78125 74.21875 
Q 44.046875 74.21875 50.515625 64.515625 
Q 56.984375 54.828125 56.984375 36.375 
Q 56.984375 17.96875 50.515625 8.265625 
Q 44.046875 -1.421875 31.78125 -1.421875 
Q 19.53125 -1.421875 13.0625 8.265625 
Q 6.59375 17.96875 6.59375 36.375 
Q 6.59375 54.828125 13.0625 64.515625 
Q 19.53125 74.21875 31.78125 74.21875 
z
" id="DejaVuSans-48"/>
       <path d="M 10.6875 12.40625 
L 21 12.40625 
L 21 0 
L 10.6875 0 
z
" id="DejaVuSans-46"/>
      </defs>
      <g style="fill:#262626;" transform="translate(40.945469 177.440116)scale(0.165 -0.165)">
       <use xlink:href="#DejaVuSans-48"/>
       <use x="63.623047" xlink:href="#DejaVuSans-46"/>
       <use x="95.410156" xlink:href="#DejaVuSans-48"/>
       <use x="159.033203" xlink:href="#DejaVuSans-48"/>
       <use x="222.65625" xlink:href="#DejaVuSans-48"/>
       <use x="286.279297" xlink:href="#DejaVuSans-48"/>
      </g>
     </g>
    </g>
    <g id="ytick_2">
     <g id="line2d_5">
      <path clip-path="url(#p7d632eb9d1)" d="M 111.18 91.758728 
L 283.847014 91.758728 
" style="fill:none;stroke:#cccccc;stroke-linecap:round;stroke-width:1.5;"/>
     </g>
     <g id="text_2">
      <!-- 0.0005 -->
      <defs>
       <path d="M 10.796875 72.90625 
L 49.515625 72.90625 
L 49.515625 64.59375 
L 19.828125 64.59375 
L 19.828125 46.734375 
Q 21.96875 47.46875 24.109375 47.828125 
Q 26.265625 48.1875 28.421875 48.1875 
Q 40.625 48.1875 47.75 41.5 
Q 54.890625 34.8125 54.890625 23.390625 
Q 54.890625 11.625 47.5625 5.09375 
Q 40.234375 -1.421875 26.90625 -1.421875 
Q 22.3125 -1.421875 17.546875 -0.640625 
Q 12.796875 0.140625 7.71875 1.703125 
L 7.71875 11.625 
Q 12.109375 9.234375 16.796875 8.0625 
Q 21.484375 6.890625 26.703125 6.890625 
Q 35.15625 6.890625 40.078125 11.328125 
Q 45.015625 15.765625 45.015625 23.390625 
Q 45.015625 31 40.078125 35.4375 
Q 35.15625 39.890625 26.703125 39.890625 
Q 22.75 39.890625 18.8125 39.015625 
Q 14.890625 38.140625 10.796875 36.28125 
z
" id="DejaVuSans-53"/>
      </defs>
      <g style="fill:#262626;" transform="translate(40.945469 98.027439)scale(0.165 -0.165)">
       <use xlink:href="#DejaVuSans-48"/>
       <use x="63.623047" xlink:href="#DejaVuSans-46"/>
       <use x="95.410156" xlink:href="#DejaVuSans-48"/>
       <use x="159.033203" xlink:href="#DejaVuSans-48"/>
       <use x="222.65625" xlink:href="#DejaVuSans-48"/>
       <use x="286.279297" xlink:href="#DejaVuSans-53"/>
      </g>
     </g>
    </g>
    <g id="text_3">
     <!-- Effect -->
     <defs>
      <path d="M 9.8125 72.90625 
L 55.90625 72.90625 
L 55.90625 64.59375 
L 19.671875 64.59375 
L 19.671875 43.015625 
L 54.390625 43.015625 
L 54.390625 34.71875 
L 19.671875 34.71875 
L 19.671875 8.296875 
L 56.78125 8.296875 
L 56.78125 0 
L 9.8125 0 
z
" id="DejaVuSans-69"/>
      <path d="M 37.109375 75.984375 
L 37.109375 68.5 
L 28.515625 68.5 
Q 23.6875 68.5 21.796875 66.546875 
Q 19.921875 64.59375 19.921875 59.515625 
L 19.921875 54.6875 
L 34.71875 54.6875 
L 34.71875 47.703125 
L 19.921875 47.703125 
L 19.921875 0 
L 10.890625 0 
L 10.890625 47.703125 
L 2.296875 47.703125 
L 2.296875 54.6875 
L 10.890625 54.6875 
L 10.890625 58.5 
Q 10.890625 67.625 15.140625 71.796875 
Q 19.390625 75.984375 28.609375 75.984375 
z
" id="DejaVuSans-102"/>
      <path d="M 56.203125 29.59375 
L 56.203125 25.203125 
L 14.890625 25.203125 
Q 15.484375 15.921875 20.484375 11.0625 
Q 25.484375 6.203125 34.421875 6.203125 
Q 39.59375 6.203125 44.453125 7.46875 
Q 49.3125 8.734375 54.109375 11.28125 
L 54.109375 2.78125 
Q 49.265625 0.734375 44.1875 -0.34375 
Q 39.109375 -1.421875 33.890625 -1.421875 
Q 20.796875 -1.421875 13.15625 6.1875 
Q 5.515625 13.8125 5.515625 26.8125 
Q 5.515625 40.234375 12.765625 48.109375 
Q 20.015625 56 32.328125 56 
Q 43.359375 56 49.78125 48.890625 
Q 56.203125 41.796875 56.203125 29.59375 
z
M 47.21875 32.234375 
Q 47.125 39.59375 43.09375 43.984375 
Q 39.0625 48.390625 32.421875 48.390625 
Q 24.90625 48.390625 20.390625 44.140625 
Q 15.875 39.890625 15.1875 32.171875 
z
" id="DejaVuSans-101"/>
      <path d="M 48.78125 52.59375 
L 48.78125 44.1875 
Q 44.96875 46.296875 41.140625 47.34375 
Q 37.3125 48.390625 33.40625 48.390625 
Q 24.65625 48.390625 19.8125 42.84375 
Q 14.984375 37.3125 14.984375 27.296875 
Q 14.984375 17.28125 19.8125 11.734375 
Q 24.65625 6.203125 33.40625 6.203125 
Q 37.3125 6.203125 41.140625 7.25 
Q 44.96875 8.296875 48.78125 10.40625 
L 48.78125 2.09375 
Q 45.015625 0.34375 40.984375 -0.53125 
Q 36.96875 -1.421875 32.421875 -1.421875 
Q 20.0625 -1.421875 12.78125 6.34375 
Q 5.515625 14.109375 5.515625 27.296875 
Q 5.515625 40.671875 12.859375 48.328125 
Q 20.21875 56 33.015625 56 
Q 37.15625 56 41.109375 55.140625 
Q 45.0625 54.296875 48.78125 52.59375 
z
" id="DejaVuSans-99"/>
      <path d="M 18.3125 70.21875 
L 18.3125 54.6875 
L 36.8125 54.6875 
L 36.8125 47.703125 
L 18.3125 47.703125 
L 18.3125 18.015625 
Q 18.3125 11.328125 20.140625 9.421875 
Q 21.96875 7.515625 27.59375 7.515625 
L 36.8125 7.515625 
L 36.8125 0 
L 27.59375 0 
Q 17.1875 0 13.234375 3.875 
Q 9.28125 7.765625 9.28125 18.015625 
L 9.28125 47.703125 
L 2.6875 47.703125 
L 2.6875 54.6875 
L 9.28125 54.6875 
L 9.28125 70.21875 
z
" id="DejaVuSans-116"/>
     </defs>
     <g style="fill:#262626;" transform="translate(33.202031 126.241765)rotate(-90)scale(0.18 -0.18)">
      <use xlink:href="#DejaVuSans-69"/>
      <use x="63.183594" xlink:href="#DejaVuSans-102"/>
      <use x="98.388672" xlink:href="#DejaVuSans-102"/>
      <use x="133.59375" xlink:href="#DejaVuSans-101"/>
      <use x="195.117188" xlink:href="#DejaVuSans-99"/>
      <use x="250.097656" xlink:href="#DejaVuSans-116"/>
     </g>
    </g>
   </g>
   <g id="PolyCollection_1">
    <defs>
     <path d="M 119.028501 -260.197785 
L 119.028501 -258.527485 
L 122.298709 -260.382086 
L 125.568918 -259.788252 
L 128.839126 -260.401334 
L 132.109335 -259.562173 
L 135.379544 -261.75534 
L 138.649752 -262.312986 
L 141.919961 -261.751842 
L 145.190169 -262.787444 
L 148.460378 -262.181362 
L 151.730587 -262.146382 
L 155.000795 -265.100172 
L 158.271004 -264.154494 
L 161.541212 -259.415166 
L 164.811421 -258.37487 
L 168.08163 -261.634595 
L 171.351838 -260.482978 
L 174.622047 -261.666169 
L 177.892255 -263.195954 
L 181.162464 -261.545515 
L 184.432673 -263.673817 
L 187.702881 -265.011453 
L 190.97309 -265.945788 
L 194.243298 -261.716278 
L 197.513507 -268.367619 
L 200.783716 -263.425127 
L 204.053924 -263.593253 
L 207.324133 -262.386027 
L 210.594341 -261.551222 
L 213.86455 -261.627729 
L 217.134759 -261.3581 
L 220.404967 -261.756871 
L 223.675176 -261.443458 
L 226.945384 -261.670435 
L 230.215593 -260.683874 
L 233.485802 -261.072514 
L 236.75601 -260.847232 
L 236.75601 -260.849987 
L 236.75601 -260.849987 
L 233.485802 -261.216575 
L 230.215593 -260.92419 
L 226.945384 -261.920352 
L 223.675176 -261.695211 
L 220.404967 -262.027153 
L 217.134759 -261.589667 
L 213.86455 -261.859606 
L 210.594341 -261.75731 
L 207.324133 -262.690771 
L 204.053924 -263.911178 
L 200.783716 -263.799623 
L 197.513507 -269.043803 
L 194.243298 -262.41774 
L 190.97309 -266.661632 
L 187.702881 -265.78881 
L 184.432673 -264.423452 
L 181.162464 -262.229679 
L 177.892255 -263.928064 
L 174.622047 -262.462813 
L 171.351838 -261.356248 
L 168.08163 -262.528134 
L 164.811421 -259.369916 
L 161.541212 -260.421552 
L 158.271004 -265.140745 
L 155.000795 -266.21166 
L 151.730587 -263.307449 
L 148.460378 -263.112587 
L 145.190169 -263.779715 
L 141.919961 -262.676564 
L 138.649752 -263.164687 
L 135.379544 -262.617293 
L 132.109335 -260.322178 
L 128.839126 -261.152658 
L 125.568918 -260.755576 
L 122.298709 -261.745208 
L 119.028501 -260.197785 
z
" id="md9f6e58566" style="stroke:#1f77b4;stroke-opacity:0.2;stroke-width:1.5;"/>
    </defs>
    <g clip-path="url(#p7d632eb9d1)">
     <use style="fill:#1f77b4;fill-opacity:0.2;stroke:#1f77b4;stroke-opacity:0.2;stroke-width:1.5;" x="0" xlink:href="#md9f6e58566" y="432"/>
    </g>
   </g>
   <g id="PolyCollection_2">
    <defs>
     <path d="M 119.028501 -260.722599 
L 119.028501 -260.720402 
L 122.298709 -260.790291 
L 125.568918 -260.793916 
L 128.839126 -260.792256 
L 132.109335 -260.786229 
L 135.379544 -260.780639 
L 138.649752 -260.77432 
L 141.919961 -260.770073 
L 145.190169 -260.771146 
L 148.460378 -260.761781 
L 151.730587 -260.758199 
L 155.000795 -260.757039 
L 158.271004 -260.752419 
L 161.541212 -260.748608 
L 164.811421 -260.749564 
L 168.08163 -260.748779 
L 171.351838 -260.751822 
L 174.622047 -260.748021 
L 177.892255 -260.745466 
L 181.162464 -260.740169 
L 184.432673 -260.734134 
L 187.702881 -260.730714 
L 190.97309 -260.732358 
L 194.243298 -260.736355 
L 197.513507 -260.736368 
L 200.783716 -260.733367 
L 204.053924 -260.736242 
L 207.324133 -260.734628 
L 210.594341 -260.733634 
L 213.86455 -260.734484 
L 217.134759 -260.732475 
L 220.404967 -260.731725 
L 223.675176 -260.732017 
L 226.945384 -260.735275 
L 230.215593 -260.734014 
L 233.485802 -260.732525 
L 236.75601 -260.732853 
L 240.026219 -260.733875 
L 243.296427 -260.735444 
L 246.566636 -260.734844 
L 249.836845 -260.73697 
L 253.107053 -260.740044 
L 256.377262 -260.738433 
L 259.64747 -260.739439 
L 262.917679 -260.736736 
L 266.187888 -260.730663 
L 269.458096 -260.729011 
L 272.728305 -260.726888 
L 275.998513 -260.720387 
L 275.998513 -260.722533 
L 275.998513 -260.722533 
L 272.728305 -260.729074 
L 269.458096 -260.731168 
L 266.187888 -260.732785 
L 262.917679 -260.738836 
L 259.64747 -260.741471 
L 256.377262 -260.740565 
L 253.107053 -260.742273 
L 249.836845 -260.739123 
L 246.566636 -260.737039 
L 243.296427 -260.737471 
L 240.026219 -260.735846 
L 236.75601 -260.734885 
L 233.485802 -260.73472 
L 230.215593 -260.736058 
L 226.945384 -260.737373 
L 223.675176 -260.734184 
L 220.404967 -260.733697 
L 217.134759 -260.734597 
L 213.86455 -260.736533 
L 210.594341 -260.735716 
L 207.324133 -260.736815 
L 204.053924 -260.738398 
L 200.783716 -260.735469 
L 197.513507 -260.738537 
L 194.243298 -260.738406 
L 190.97309 -260.734486 
L 187.702881 -260.73283 
L 184.432673 -260.736414 
L 181.162464 -260.742437 
L 177.892255 -260.747681 
L 174.622047 -260.75015 
L 171.351838 -260.753944 
L 168.08163 -260.751002 
L 164.811421 -260.751689 
L 161.541212 -260.750798 
L 158.271004 -260.754746 
L 155.000795 -260.759334 
L 151.730587 -260.760336 
L 148.460378 -260.764076 
L 145.190169 -260.773255 
L 141.919961 -260.772316 
L 138.649752 -260.776529 
L 135.379544 -260.782895 
L 132.109335 -260.788487 
L 128.839126 -260.794542 
L 125.568918 -260.796128 
L 122.298709 -260.792513 
L 119.028501 -260.722599 
z
" id="mb5e3b8086e" style="stroke:#ff7f0e;stroke-opacity:0.2;stroke-width:1.5;"/>
    </defs>
    <g clip-path="url(#p7d632eb9d1)">
     <use style="fill:#ff7f0e;fill-opacity:0.2;stroke:#ff7f0e;stroke-opacity:0.2;stroke-width:1.5;" x="0" xlink:href="#mb5e3b8086e" y="432"/>
    </g>
   </g>
   <g id="PolyCollection_3">
    <defs>
     <path d="M 119.028501 -264.218035 
L 119.028501 -260.994767 
L 122.298709 -265.438056 
L 125.568918 -258.943811 
L 128.839126 -261.990547 
L 132.109335 -268.483744 
L 135.379544 -265.520781 
L 138.649752 -263.43079 
L 141.919961 -261.630365 
L 145.190169 -261.367636 
L 148.460378 -262.44034 
L 151.730587 -264.052644 
L 155.000795 -265.753506 
L 158.271004 -262.977136 
L 161.541212 -275.192603 
L 164.811421 -269.454527 
L 168.08163 -267.701834 
L 171.351838 -283.70116 
L 174.622047 -271.635061 
L 177.892255 -274.466519 
L 181.162464 -268.741836 
L 184.432673 -268.056578 
L 187.702881 -263.645559 
L 190.97309 -261.927941 
L 194.243298 -262.120085 
L 197.513507 -260.674827 
L 197.513507 -260.691819 
L 197.513507 -260.691819 
L 194.243298 -262.5353 
L 190.97309 -262.259042 
L 187.702881 -264.094121 
L 184.432673 -268.593808 
L 181.162464 -269.371549 
L 177.892255 -275.363713 
L 174.622047 -272.55125 
L 171.351838 -285.130936 
L 168.08163 -269.2087 
L 164.811421 -270.936613 
L 161.541212 -276.66831 
L 158.271004 -264.224715 
L 155.000795 -267.316838 
L 151.730587 -265.390954 
L 148.460378 -263.868789 
L 145.190169 -262.651709 
L 141.919961 -263.132281 
L 138.649752 -264.867556 
L 135.379544 -267.172404 
L 132.109335 -270.069473 
L 128.839126 -263.315459 
L 125.568918 -260.153068 
L 122.298709 -267.808277 
L 119.028501 -264.218035 
z
" id="med07b98108" style="stroke:#2ca02c;stroke-opacity:0.2;stroke-width:1.5;"/>
    </defs>
    <g clip-path="url(#p7d632eb9d1)">
     <use style="fill:#2ca02c;fill-opacity:0.2;stroke:#2ca02c;stroke-opacity:0.2;stroke-width:1.5;" x="0" xlink:href="#med07b98108" y="432"/>
    </g>
   </g>
   <g id="PolyCollection_4">
    <defs>
     <path d="M 119.028501 -299.444767 
L 119.028501 -289.333478 
L 122.298709 -345.833328 
L 125.568918 -328.451419 
L 128.839126 -279.169382 
L 132.109335 -399.006337 
L 135.379544 -295.68257 
L 138.649752 -260.698258 
L 138.649752 -260.725693 
L 138.649752 -260.725693 
L 135.379544 -297.934597 
L 132.109335 -405.217851 
L 128.839126 -283.164679 
L 125.568918 -334.373469 
L 122.298709 -356.908753 
L 119.028501 -299.444767 
z
" id="mf4549e251b" style="stroke:#d62728;stroke-opacity:0.2;stroke-width:1.5;"/>
    </defs>
    <g clip-path="url(#p7d632eb9d1)">
     <use style="fill:#d62728;fill-opacity:0.2;stroke:#d62728;stroke-opacity:0.2;stroke-width:1.5;" x="0" xlink:href="#mf4549e251b" y="432"/>
    </g>
   </g>
   <g id="PolyCollection_5">
    <defs>
     <path d="M 119.028501 -278.664585 
L 119.028501 -273.355689 
L 122.298709 -272.571552 
L 125.568918 -259.525044 
L 128.839126 -275.245948 
L 132.109335 -267.081071 
L 135.379544 -266.120472 
L 138.649752 -283.64028 
L 141.919961 -282.551397 
L 145.190169 -309.158522 
L 148.460378 -302.175565 
L 151.730587 -298.969449 
L 155.000795 -265.411245 
L 158.271004 -260.612247 
L 158.271004 -260.642814 
L 158.271004 -260.642814 
L 155.000795 -266.764382 
L 151.730587 -301.481346 
L 148.460378 -304.768561 
L 145.190169 -312.480394 
L 141.919961 -285.570881 
L 138.649752 -287.068462 
L 135.379544 -268.976411 
L 132.109335 -270.325404 
L 128.839126 -278.537624 
L 125.568918 -262.180521 
L 122.298709 -276.929579 
L 119.028501 -278.664585 
z
" id="mc952089d14" style="stroke:#9467bd;stroke-opacity:0.2;stroke-width:1.5;"/>
    </defs>
    <g clip-path="url(#p7d632eb9d1)">
     <use style="fill:#9467bd;fill-opacity:0.2;stroke:#9467bd;stroke-opacity:0.2;stroke-width:1.5;" x="0" xlink:href="#mc952089d14" y="432"/>
    </g>
   </g>
   <g id="line2d_6">
    <path clip-path="url(#p7d632eb9d1)" d="M 119.028501 172.647619 
L 122.298709 170.90756 
L 125.568918 171.719134 
L 128.839126 171.214049 
L 132.109335 172.059502 
L 135.379544 169.808031 
L 138.649752 169.267219 
L 141.919961 169.783598 
L 145.190169 168.726469 
L 148.460378 169.368152 
L 151.730587 169.254192 
L 155.000795 166.344052 
L 158.271004 167.327622 
L 161.541212 172.077268 
L 164.811421 173.131529 
L 168.08163 169.897138 
L 171.351838 171.090008 
L 174.622047 169.943231 
L 177.892255 168.459258 
L 181.162464 170.124872 
L 184.432673 167.961022 
L 187.702881 166.579446 
L 190.97309 165.694134 
L 194.243298 169.917272 
L 197.513507 163.287289 
L 200.783716 168.386195 
L 204.053924 168.258503 
L 207.324133 169.458629 
L 210.594341 170.354808 
L 213.86455 170.262092 
L 217.134759 170.518895 
L 220.404967 170.10179 
L 223.675176 170.429198 
L 226.945384 170.203356 
L 230.215593 171.196807 
L 233.485802 170.854106 
L 236.75601 171.151481 
" style="fill:none;stroke:#1f77b4;stroke-linecap:round;stroke-width:2.25;"/>
   </g>
   <g id="line2d_7">
    <path clip-path="url(#p7d632eb9d1)" d="M 119.028501 171.278507 
L 122.298709 171.208615 
L 125.568918 171.20497 
L 128.839126 171.206565 
L 132.109335 171.212651 
L 135.379544 171.218285 
L 138.649752 171.224551 
L 141.919961 171.228768 
L 145.190169 171.227814 
L 148.460378 171.237066 
L 151.730587 171.240743 
L 155.000795 171.241787 
L 158.271004 171.246373 
L 161.541212 171.250387 
L 164.811421 171.249391 
L 168.08163 171.250076 
L 171.351838 171.247096 
L 174.622047 171.250919 
L 177.892255 171.253417 
L 181.162464 171.258703 
L 184.432673 171.264767 
L 187.702881 171.268187 
L 190.97309 171.266589 
L 194.243298 171.262623 
L 197.513507 171.26256 
L 200.783716 171.265561 
L 204.053924 171.262657 
L 207.324133 171.264271 
L 210.594341 171.265284 
L 213.86455 171.26449 
L 217.134759 171.266448 
L 220.404967 171.26726 
L 223.675176 171.266893 
L 226.945384 171.263703 
L 230.215593 171.26497 
L 233.485802 171.26641 
L 236.75601 171.266092 
L 240.026219 171.2651 
L 243.296427 171.263521 
L 246.566636 171.264027 
L 249.836845 171.261986 
L 253.107053 171.258844 
L 256.377262 171.260551 
L 259.64747 171.259539 
L 262.917679 171.262197 
L 266.187888 171.268281 
L 269.458096 171.26985 
L 272.728305 171.272047 
L 275.998513 171.278507 
" style="fill:none;stroke:#ff7f0e;stroke-linecap:round;stroke-width:2.25;"/>
   </g>
   <g id="line2d_8">
    <path clip-path="url(#p7d632eb9d1)" d="M 119.028501 169.39844 
L 122.298709 165.347125 
L 125.568918 172.44876 
L 128.839126 169.353628 
L 132.109335 162.739982 
L 135.379544 165.677864 
L 138.649752 167.849374 
L 141.919961 169.613949 
L 145.190169 170.003217 
L 148.460378 168.860773 
L 151.730587 167.258155 
L 155.000795 165.478842 
L 158.271004 168.429254 
L 161.541212 156.056126 
L 164.811421 161.798486 
L 168.08163 163.554976 
L 171.351838 147.574592 
L 174.622047 159.886091 
L 177.892255 157.084777 
L 181.162464 162.938733 
L 184.432673 163.6611 
L 187.702881 168.119319 
L 190.97309 169.911525 
L 194.243298 169.681912 
L 197.513507 171.316315 
" style="fill:none;stroke:#2ca02c;stroke-linecap:round;stroke-width:2.25;"/>
   </g>
   <g id="line2d_9">
    <path clip-path="url(#p7d632eb9d1)" d="M 119.028501 137.555568 
L 122.298709 80.672738 
L 125.568918 100.511567 
L 128.839126 150.813749 
L 132.109335 29.766434 
L 135.379544 135.217542 
L 138.649752 171.288651 
" style="fill:none;stroke:#d62728;stroke-linecap:round;stroke-width:2.25;"/>
   </g>
   <g id="line2d_10">
    <path clip-path="url(#p7d632eb9d1)" d="M 119.028501 156.055959 
L 122.298709 157.19625 
L 125.568918 171.161747 
L 128.839126 155.187078 
L 132.109335 163.272593 
L 135.379544 164.510835 
L 138.649752 146.648824 
L 141.919961 147.873159 
L 145.190169 121.131372 
L 148.460378 128.467582 
L 151.730587 131.749271 
L 155.000795 165.890038 
L 158.271004 171.372513 
" style="fill:none;stroke:#9467bd;stroke-linecap:round;stroke-width:2.25;"/>
   </g>
   <g id="patch_3">
    <path d="M 111.18 180.967279 
L 111.18 19.44 
" style="fill:none;stroke:#cccccc;stroke-linecap:square;stroke-linejoin:miter;stroke-width:1.875;"/>
   </g>
   <g id="patch_4">
    <path d="M 111.18 180.967279 
L 283.847014 180.967279 
" style="fill:none;stroke:#cccccc;stroke-linecap:square;stroke-linejoin:miter;stroke-width:1.875;"/>
   </g>
   <g id="text_4">
    <g id="patch_5">
     <path d="M 283.340354 22.118796 
L 283.340354 178.288483 
L 308.680979 178.288483 
L 308.680979 22.118796 
z
" style="fill:#ffffff;stroke:#ffffff;stroke-linejoin:miter;stroke-width:1.5;"/>
    </g>
    <!-- Random = False -->
    <defs>
     <path d="M 44.390625 34.1875 
Q 47.5625 33.109375 50.5625 29.59375 
Q 53.5625 26.078125 56.59375 19.921875 
L 66.609375 0 
L 56 0 
L 46.6875 18.703125 
Q 43.0625 26.03125 39.671875 28.421875 
Q 36.28125 30.8125 30.421875 30.8125 
L 19.671875 30.8125 
L 19.671875 0 
L 9.8125 0 
L 9.8125 72.90625 
L 32.078125 72.90625 
Q 44.578125 72.90625 50.734375 67.671875 
Q 56.890625 62.453125 56.890625 51.90625 
Q 56.890625 45.015625 53.6875 40.46875 
Q 50.484375 35.9375 44.390625 34.1875 
z
M 19.671875 64.796875 
L 19.671875 38.921875 
L 32.078125 38.921875 
Q 39.203125 38.921875 42.84375 42.21875 
Q 46.484375 45.515625 46.484375 51.90625 
Q 46.484375 58.296875 42.84375 61.546875 
Q 39.203125 64.796875 32.078125 64.796875 
z
" id="DejaVuSans-82"/>
     <path d="M 34.28125 27.484375 
Q 23.390625 27.484375 19.1875 25 
Q 14.984375 22.515625 14.984375 16.5 
Q 14.984375 11.71875 18.140625 8.90625 
Q 21.296875 6.109375 26.703125 6.109375 
Q 34.1875 6.109375 38.703125 11.40625 
Q 43.21875 16.703125 43.21875 25.484375 
L 43.21875 27.484375 
z
M 52.203125 31.203125 
L 52.203125 0 
L 43.21875 0 
L 43.21875 8.296875 
Q 40.140625 3.328125 35.546875 0.953125 
Q 30.953125 -1.421875 24.3125 -1.421875 
Q 15.921875 -1.421875 10.953125 3.296875 
Q 6 8.015625 6 15.921875 
Q 6 25.140625 12.171875 29.828125 
Q 18.359375 34.515625 30.609375 34.515625 
L 43.21875 34.515625 
L 43.21875 35.40625 
Q 43.21875 41.609375 39.140625 45 
Q 35.0625 48.390625 27.6875 48.390625 
Q 23 48.390625 18.546875 47.265625 
Q 14.109375 46.140625 10.015625 43.890625 
L 10.015625 52.203125 
Q 14.9375 54.109375 19.578125 55.046875 
Q 24.21875 56 28.609375 56 
Q 40.484375 56 46.34375 49.84375 
Q 52.203125 43.703125 52.203125 31.203125 
z
" id="DejaVuSans-97"/>
     <path d="M 54.890625 33.015625 
L 54.890625 0 
L 45.90625 0 
L 45.90625 32.71875 
Q 45.90625 40.484375 42.875 44.328125 
Q 39.84375 48.1875 33.796875 48.1875 
Q 26.515625 48.1875 22.3125 43.546875 
Q 18.109375 38.921875 18.109375 30.90625 
L 18.109375 0 
L 9.078125 0 
L 9.078125 54.6875 
L 18.109375 54.6875 
L 18.109375 46.1875 
Q 21.34375 51.125 25.703125 53.5625 
Q 30.078125 56 35.796875 56 
Q 45.21875 56 50.046875 50.171875 
Q 54.890625 44.34375 54.890625 33.015625 
z
" id="DejaVuSans-110"/>
     <path d="M 45.40625 46.390625 
L 45.40625 75.984375 
L 54.390625 75.984375 
L 54.390625 0 
L 45.40625 0 
L 45.40625 8.203125 
Q 42.578125 3.328125 38.25 0.953125 
Q 33.9375 -1.421875 27.875 -1.421875 
Q 17.96875 -1.421875 11.734375 6.484375 
Q 5.515625 14.40625 5.515625 27.296875 
Q 5.515625 40.1875 11.734375 48.09375 
Q 17.96875 56 27.875 56 
Q 33.9375 56 38.25 53.625 
Q 42.578125 51.265625 45.40625 46.390625 
z
M 14.796875 27.296875 
Q 14.796875 17.390625 18.875 11.75 
Q 22.953125 6.109375 30.078125 6.109375 
Q 37.203125 6.109375 41.296875 11.75 
Q 45.40625 17.390625 45.40625 27.296875 
Q 45.40625 37.203125 41.296875 42.84375 
Q 37.203125 48.484375 30.078125 48.484375 
Q 22.953125 48.484375 18.875 42.84375 
Q 14.796875 37.203125 14.796875 27.296875 
z
" id="DejaVuSans-100"/>
     <path d="M 30.609375 48.390625 
Q 23.390625 48.390625 19.1875 42.75 
Q 14.984375 37.109375 14.984375 27.296875 
Q 14.984375 17.484375 19.15625 11.84375 
Q 23.34375 6.203125 30.609375 6.203125 
Q 37.796875 6.203125 41.984375 11.859375 
Q 46.1875 17.53125 46.1875 27.296875 
Q 46.1875 37.015625 41.984375 42.703125 
Q 37.796875 48.390625 30.609375 48.390625 
z
M 30.609375 56 
Q 42.328125 56 49.015625 48.375 
Q 55.71875 40.765625 55.71875 27.296875 
Q 55.71875 13.875 49.015625 6.21875 
Q 42.328125 -1.421875 30.609375 -1.421875 
Q 18.84375 -1.421875 12.171875 6.21875 
Q 5.515625 13.875 5.515625 27.296875 
Q 5.515625 40.765625 12.171875 48.375 
Q 18.84375 56 30.609375 56 
z
" id="DejaVuSans-111"/>
     <path d="M 52 44.1875 
Q 55.375 50.25 60.0625 53.125 
Q 64.75 56 71.09375 56 
Q 79.640625 56 84.28125 50.015625 
Q 88.921875 44.046875 88.921875 33.015625 
L 88.921875 0 
L 79.890625 0 
L 79.890625 32.71875 
Q 79.890625 40.578125 77.09375 44.375 
Q 74.3125 48.1875 68.609375 48.1875 
Q 61.625 48.1875 57.5625 43.546875 
Q 53.515625 38.921875 53.515625 30.90625 
L 53.515625 0 
L 44.484375 0 
L 44.484375 32.71875 
Q 44.484375 40.625 41.703125 44.40625 
Q 38.921875 48.1875 33.109375 48.1875 
Q 26.21875 48.1875 22.15625 43.53125 
Q 18.109375 38.875 18.109375 30.90625 
L 18.109375 0 
L 9.078125 0 
L 9.078125 54.6875 
L 18.109375 54.6875 
L 18.109375 46.1875 
Q 21.1875 51.21875 25.484375 53.609375 
Q 29.78125 56 35.6875 56 
Q 41.65625 56 45.828125 52.96875 
Q 50 49.953125 52 44.1875 
z
" id="DejaVuSans-109"/>
     <path id="DejaVuSans-32"/>
     <path d="M 10.59375 45.40625 
L 73.1875 45.40625 
L 73.1875 37.203125 
L 10.59375 37.203125 
z
M 10.59375 25.484375 
L 73.1875 25.484375 
L 73.1875 17.1875 
L 10.59375 17.1875 
z
" id="DejaVuSans-61"/>
     <path d="M 9.8125 72.90625 
L 51.703125 72.90625 
L 51.703125 64.59375 
L 19.671875 64.59375 
L 19.671875 43.109375 
L 48.578125 43.109375 
L 48.578125 34.8125 
L 19.671875 34.8125 
L 19.671875 0 
L 9.8125 0 
z
" id="DejaVuSans-70"/>
     <path d="M 9.421875 75.984375 
L 18.40625 75.984375 
L 18.40625 0 
L 9.421875 0 
z
" id="DejaVuSans-108"/>
     <path d="M 44.28125 53.078125 
L 44.28125 44.578125 
Q 40.484375 46.53125 36.375 47.5 
Q 32.28125 48.484375 27.875 48.484375 
Q 21.1875 48.484375 17.84375 46.4375 
Q 14.5 44.390625 14.5 40.28125 
Q 14.5 37.15625 16.890625 35.375 
Q 19.28125 33.59375 26.515625 31.984375 
L 29.59375 31.296875 
Q 39.15625 29.25 43.1875 25.515625 
Q 47.21875 21.78125 47.21875 15.09375 
Q 47.21875 7.46875 41.1875 3.015625 
Q 35.15625 -1.421875 24.609375 -1.421875 
Q 20.21875 -1.421875 15.453125 -0.5625 
Q 10.6875 0.296875 5.421875 2 
L 5.421875 11.28125 
Q 10.40625 8.6875 15.234375 7.390625 
Q 20.0625 6.109375 24.8125 6.109375 
Q 31.15625 6.109375 34.5625 8.28125 
Q 37.984375 10.453125 37.984375 14.40625 
Q 37.984375 18.0625 35.515625 20.015625 
Q 33.0625 21.96875 24.703125 23.78125 
L 21.578125 24.515625 
Q 13.234375 26.265625 9.515625 29.90625 
Q 5.8125 33.546875 5.8125 39.890625 
Q 5.8125 47.609375 11.28125 51.796875 
Q 16.75 56 26.8125 56 
Q 31.78125 56 36.171875 55.265625 
Q 40.578125 54.546875 44.28125 53.078125 
z
" id="DejaVuSans-115"/>
    </defs>
    <g style="fill:#262626;" transform="translate(291.043792 26.078796)rotate(-270)scale(0.18 -0.18)">
     <use xlink:href="#DejaVuSans-82"/>
     <use x="69.451172" xlink:href="#DejaVuSans-97"/>
     <use x="130.730469" xlink:href="#DejaVuSans-110"/>
     <use x="194.109375" xlink:href="#DejaVuSans-100"/>
     <use x="257.585938" xlink:href="#DejaVuSans-111"/>
     <use x="318.767578" xlink:href="#DejaVuSans-109"/>
     <use x="416.179688" xlink:href="#DejaVuSans-32"/>
     <use x="447.966797" xlink:href="#DejaVuSans-61"/>
     <use x="531.755859" xlink:href="#DejaVuSans-32"/>
     <use x="563.542969" xlink:href="#DejaVuSans-70"/>
     <use x="620.921875" xlink:href="#DejaVuSans-97"/>
     <use x="682.201172" xlink:href="#DejaVuSans-108"/>
     <use x="709.984375" xlink:href="#DejaVuSans-115"/>
     <use x="762.083984" xlink:href="#DejaVuSans-101"/>
    </g>
   </g>
  </g>
  <g id="axes_2">
   <g id="patch_6">
    <path d="M 111.18 362.22 
L 283.847014 362.22 
L 283.847014 200.692721 
L 111.18 200.692721 
z
" style="fill:#ffffff;"/>
   </g>
   <g id="matplotlib.axis_3">
    <g id="xtick_4">
     <g id="line2d_11">
      <path clip-path="url(#p54d44587e8)" d="M 119.028501 362.22 
L 119.028501 200.692721 
" style="fill:none;stroke:#cccccc;stroke-linecap:round;stroke-width:1.5;"/>
     </g>
     <g id="text_5">
      <!-- 0 -->
      <g style="fill:#262626;" transform="translate(113.779438 387.257422)scale(0.165 -0.165)">
       <use xlink:href="#DejaVuSans-48"/>
      </g>
     </g>
    </g>
    <g id="xtick_5">
     <g id="line2d_12">
      <path clip-path="url(#p54d44587e8)" d="M 184.432673 362.22 
L 184.432673 200.692721 
" style="fill:none;stroke:#cccccc;stroke-linecap:round;stroke-width:1.5;"/>
     </g>
     <g id="text_6">
      <!-- 20 -->
      <defs>
       <path d="M 19.1875 8.296875 
L 53.609375 8.296875 
L 53.609375 0 
L 7.328125 0 
L 7.328125 8.296875 
Q 12.9375 14.109375 22.625 23.890625 
Q 32.328125 33.6875 34.8125 36.53125 
Q 39.546875 41.84375 41.421875 45.53125 
Q 43.3125 49.21875 43.3125 52.78125 
Q 43.3125 58.59375 39.234375 62.25 
Q 35.15625 65.921875 28.609375 65.921875 
Q 23.96875 65.921875 18.8125 64.3125 
Q 13.671875 62.703125 7.8125 59.421875 
L 7.8125 69.390625 
Q 13.765625 71.78125 18.9375 73 
Q 24.125 74.21875 28.421875 74.21875 
Q 39.75 74.21875 46.484375 68.546875 
Q 53.21875 62.890625 53.21875 53.421875 
Q 53.21875 48.921875 51.53125 44.890625 
Q 49.859375 40.875 45.40625 35.40625 
Q 44.1875 33.984375 37.640625 27.21875 
Q 31.109375 20.453125 19.1875 8.296875 
z
" id="DejaVuSans-50"/>
      </defs>
      <g style="fill:#262626;" transform="translate(173.934548 387.257422)scale(0.165 -0.165)">
       <use xlink:href="#DejaVuSans-50"/>
       <use x="63.623047" xlink:href="#DejaVuSans-48"/>
      </g>
     </g>
    </g>
    <g id="xtick_6">
     <g id="line2d_13">
      <path clip-path="url(#p54d44587e8)" d="M 249.836845 362.22 
L 249.836845 200.692721 
" style="fill:none;stroke:#cccccc;stroke-linecap:round;stroke-width:1.5;"/>
     </g>
     <g id="text_7">
      <!-- 40 -->
      <defs>
       <path d="M 37.796875 64.3125 
L 12.890625 25.390625 
L 37.796875 25.390625 
z
M 35.203125 72.90625 
L 47.609375 72.90625 
L 47.609375 25.390625 
L 58.015625 25.390625 
L 58.015625 17.1875 
L 47.609375 17.1875 
L 47.609375 0 
L 37.796875 0 
L 37.796875 17.1875 
L 4.890625 17.1875 
L 4.890625 26.703125 
z
" id="DejaVuSans-52"/>
      </defs>
      <g style="fill:#262626;" transform="translate(239.33872 387.257422)scale(0.165 -0.165)">
       <use xlink:href="#DejaVuSans-52"/>
       <use x="63.623047" xlink:href="#DejaVuSans-48"/>
      </g>
     </g>
    </g>
    <g id="text_8">
     <!-- Layer -->
     <defs>
      <path d="M 9.8125 72.90625 
L 19.671875 72.90625 
L 19.671875 8.296875 
L 55.171875 8.296875 
L 55.171875 0 
L 9.8125 0 
z
" id="DejaVuSans-76"/>
      <path d="M 32.171875 -5.078125 
Q 28.375 -14.84375 24.75 -17.8125 
Q 21.140625 -20.796875 15.09375 -20.796875 
L 7.90625 -20.796875 
L 7.90625 -13.28125 
L 13.1875 -13.28125 
Q 16.890625 -13.28125 18.9375 -11.515625 
Q 21 -9.765625 23.484375 -3.21875 
L 25.09375 0.875 
L 2.984375 54.6875 
L 12.5 54.6875 
L 29.59375 11.921875 
L 46.6875 54.6875 
L 56.203125 54.6875 
z
" id="DejaVuSans-121"/>
      <path d="M 41.109375 46.296875 
Q 39.59375 47.171875 37.8125 47.578125 
Q 36.03125 48 33.890625 48 
Q 26.265625 48 22.1875 43.046875 
Q 18.109375 38.09375 18.109375 28.8125 
L 18.109375 0 
L 9.078125 0 
L 9.078125 54.6875 
L 18.109375 54.6875 
L 18.109375 46.1875 
Q 20.953125 51.171875 25.484375 53.578125 
Q 30.03125 56 36.53125 56 
Q 37.453125 56 38.578125 55.875 
Q 39.703125 55.765625 41.0625 55.515625 
z
" id="DejaVuSans-114"/>
     </defs>
     <g style="fill:#262626;" transform="translate(172.418976 408.366094)scale(0.18 -0.18)">
      <use xlink:href="#DejaVuSans-76"/>
      <use x="55.712891" xlink:href="#DejaVuSans-97"/>
      <use x="116.992188" xlink:href="#DejaVuSans-121"/>
      <use x="176.171875" xlink:href="#DejaVuSans-101"/>
      <use x="237.695312" xlink:href="#DejaVuSans-114"/>
     </g>
    </g>
   </g>
   <g id="matplotlib.axis_4">
    <g id="ytick_3">
     <g id="line2d_14">
      <path clip-path="url(#p54d44587e8)" d="M 111.18 352.424126 
L 283.847014 352.424126 
" style="fill:none;stroke:#cccccc;stroke-linecap:round;stroke-width:1.5;"/>
     </g>
     <g id="text_9">
      <!-- 0.0000 -->
      <g style="fill:#262626;" transform="translate(40.945469 358.692837)scale(0.165 -0.165)">
       <use xlink:href="#DejaVuSans-48"/>
       <use x="63.623047" xlink:href="#DejaVuSans-46"/>
       <use x="95.410156" xlink:href="#DejaVuSans-48"/>
       <use x="159.033203" xlink:href="#DejaVuSans-48"/>
       <use x="222.65625" xlink:href="#DejaVuSans-48"/>
       <use x="286.279297" xlink:href="#DejaVuSans-48"/>
      </g>
     </g>
    </g>
    <g id="ytick_4">
     <g id="line2d_15">
      <path clip-path="url(#p54d44587e8)" d="M 111.18 273.011449 
L 283.847014 273.011449 
" style="fill:none;stroke:#cccccc;stroke-linecap:round;stroke-width:1.5;"/>
     </g>
     <g id="text_10">
      <!-- 0.0005 -->
      <g style="fill:#262626;" transform="translate(40.945469 279.28016)scale(0.165 -0.165)">
       <use xlink:href="#DejaVuSans-48"/>
       <use x="63.623047" xlink:href="#DejaVuSans-46"/>
       <use x="95.410156" xlink:href="#DejaVuSans-48"/>
       <use x="159.033203" xlink:href="#DejaVuSans-48"/>
       <use x="222.65625" xlink:href="#DejaVuSans-48"/>
       <use x="286.279297" xlink:href="#DejaVuSans-53"/>
      </g>
     </g>
    </g>
    <g id="text_11">
     <!-- Effect -->
     <g style="fill:#262626;" transform="translate(33.202031 307.494485)rotate(-90)scale(0.18 -0.18)">
      <use xlink:href="#DejaVuSans-69"/>
      <use x="63.183594" xlink:href="#DejaVuSans-102"/>
      <use x="98.388672" xlink:href="#DejaVuSans-102"/>
      <use x="133.59375" xlink:href="#DejaVuSans-101"/>
      <use x="195.117188" xlink:href="#DejaVuSans-99"/>
      <use x="250.097656" xlink:href="#DejaVuSans-116"/>
     </g>
    </g>
   </g>
   <g id="PolyCollection_6">
    <defs>
     <path d="M 119.028501 -107.941025 
L 119.028501 -89.095357 
L 122.298709 -79.4395 
L 125.568918 -78.148064 
L 128.839126 -78.338447 
L 132.109335 -78.181615 
L 135.379544 -79.424696 
L 138.649752 -79.459578 
L 141.919961 -79.288822 
L 145.190169 -79.172409 
L 148.460378 -79.549253 
L 151.730587 -79.133214 
L 155.000795 -79.392154 
L 158.271004 -79.15449 
L 161.541212 -79.197925 
L 164.811421 -79.239671 
L 168.08163 -79.27337 
L 171.351838 -78.997892 
L 174.622047 -79.367138 
L 177.892255 -79.405073 
L 181.162464 -79.414513 
L 184.432673 -79.407983 
L 187.702881 -79.528129 
L 190.97309 -79.482032 
L 194.243298 -79.528551 
L 197.513507 -79.581907 
L 197.513507 -79.584064 
L 197.513507 -79.584064 
L 194.243298 -79.621491 
L 190.97309 -79.619885 
L 187.702881 -79.716342 
L 184.432673 -79.620852 
L 181.162464 -79.665858 
L 177.892255 -79.714051 
L 174.622047 -79.712482 
L 171.351838 -79.374712 
L 168.08163 -79.679889 
L 164.811421 -79.696581 
L 161.541212 -79.727354 
L 158.271004 -79.74043 
L 155.000795 -80.044184 
L 151.730587 -79.872723 
L 148.460378 -80.39914 
L 145.190169 -80.148066 
L 141.919961 -80.411356 
L 138.649752 -80.722998 
L 135.379544 -80.911007 
L 132.109335 -80.02848 
L 128.839126 -80.734452 
L 125.568918 -81.621636 
L 122.298709 -85.583524 
L 119.028501 -107.941025 
z
" id="m98bab3c5d5" style="stroke:#2ca02c;stroke-opacity:0.2;stroke-width:1.5;"/>
    </defs>
    <g clip-path="url(#p54d44587e8)">
     <use style="fill:#2ca02c;fill-opacity:0.2;stroke:#2ca02c;stroke-opacity:0.2;stroke-width:1.5;" x="0" xlink:href="#m98bab3c5d5" y="432"/>
    </g>
   </g>
   <g id="line2d_16">
    <path clip-path="url(#p54d44587e8)" d="M 119.028501 333.735036 
L 122.298709 349.542423 
L 125.568918 352.138402 
L 128.839126 352.514284 
L 132.109335 352.877821 
L 135.379544 351.844458 
L 138.649752 351.880627 
L 141.919961 352.146854 
L 145.190169 352.303983 
L 148.460378 352.026651 
L 151.730587 352.505772 
L 155.000795 352.301395 
L 158.271004 352.559021 
L 161.541212 352.534688 
L 164.811421 352.540363 
L 168.08163 352.526806 
L 171.351838 352.812131 
L 174.622047 352.464298 
L 177.892255 352.437022 
L 181.162464 352.458075 
L 184.432673 352.488132 
L 187.702881 352.378546 
L 190.97309 352.447599 
L 194.243298 352.424739 
L 197.513507 352.416992 
" style="fill:none;stroke:#2ca02c;stroke-linecap:round;stroke-width:2.25;"/>
   </g>
   <g id="patch_7">
    <path d="M 111.18 362.22 
L 111.18 200.692721 
" style="fill:none;stroke:#cccccc;stroke-linecap:square;stroke-linejoin:miter;stroke-width:1.875;"/>
   </g>
   <g id="patch_8">
    <path d="M 111.18 362.22 
L 283.847014 362.22 
" style="fill:none;stroke:#cccccc;stroke-linecap:square;stroke-linejoin:miter;stroke-width:1.875;"/>
   </g>
   <g id="text_12">
    <g id="patch_9">
     <path d="M 283.340354 206.358392 
L 283.340354 356.554329 
L 308.680979 356.554329 
L 308.680979 206.358392 
z
" style="fill:#ffffff;stroke:#ffffff;stroke-linejoin:miter;stroke-width:1.5;"/>
    </g>
    <!-- Random = True -->
    <defs>
     <path d="M -0.296875 72.90625 
L 61.375 72.90625 
L 61.375 64.59375 
L 35.5 64.59375 
L 35.5 0 
L 25.59375 0 
L 25.59375 64.59375 
L -0.296875 64.59375 
z
" id="DejaVuSans-84"/>
     <path d="M 8.5 21.578125 
L 8.5 54.6875 
L 17.484375 54.6875 
L 17.484375 21.921875 
Q 17.484375 14.15625 20.5 10.265625 
Q 23.53125 6.390625 29.59375 6.390625 
Q 36.859375 6.390625 41.078125 11.03125 
Q 45.3125 15.671875 45.3125 23.6875 
L 45.3125 54.6875 
L 54.296875 54.6875 
L 54.296875 0 
L 45.3125 0 
L 45.3125 8.40625 
Q 42.046875 3.421875 37.71875 1 
Q 33.40625 -1.421875 27.6875 -1.421875 
Q 18.265625 -1.421875 13.375 4.4375 
Q 8.5 10.296875 8.5 21.578125 
z
M 31.109375 56 
z
" id="DejaVuSans-117"/>
    </defs>
    <g style="fill:#262626;" transform="translate(291.043792 210.318392)rotate(-270)scale(0.18 -0.18)">
     <use xlink:href="#DejaVuSans-82"/>
     <use x="69.451172" xlink:href="#DejaVuSans-97"/>
     <use x="130.730469" xlink:href="#DejaVuSans-110"/>
     <use x="194.109375" xlink:href="#DejaVuSans-100"/>
     <use x="257.585938" xlink:href="#DejaVuSans-111"/>
     <use x="318.767578" xlink:href="#DejaVuSans-109"/>
     <use x="416.179688" xlink:href="#DejaVuSans-32"/>
     <use x="447.966797" xlink:href="#DejaVuSans-61"/>
     <use x="531.755859" xlink:href="#DejaVuSans-32"/>
     <use x="563.542969" xlink:href="#DejaVuSans-84"/>
     <use x="624.408203" xlink:href="#DejaVuSans-114"/>
     <use x="665.521484" xlink:href="#DejaVuSans-117"/>
     <use x="728.900391" xlink:href="#DejaVuSans-101"/>
    </g>
   </g>
  </g>
 </g>
 <defs>
  <clipPath id="p7d632eb9d1">
   <rect height="161.527279" width="172.667014" x="111.18" y="19.44"/>
  </clipPath>
  <clipPath id="p54d44587e8">
   <rect height="161.527279" width="172.667014" x="111.18" y="200.692721"/>
  </clipPath>
 </defs>
</svg>
