<?xml version="1.0" encoding="utf-8" standalone="no"?>
<!DOCTYPE svg PUBLIC "-//W3C//DTD SVG 1.1//EN"
  "http://www.w3.org/Graphics/SVG/1.1/DTD/svg11.dtd">
<!-- Created with matplotlib (https://matplotlib.org/) -->
<svg height="432pt" version="1.1" viewBox="0 0 324 432" width="324pt" xmlns="http://www.w3.org/2000/svg" xmlns:xlink="http://www.w3.org/1999/xlink">
 <defs>
  <style type="text/css">
*{stroke-linecap:butt;stroke-linejoin:round;}
  </style>
 </defs>
 <g id="figure_1">
  <g id="patch_1">
   <path d="M 0 432 
L 324 432 
L 324 0 
L 0 0 
z
" style="fill:#ffffff;"/>
  </g>
  <g id="axes_1">
   <g id="patch_2">
    <path d="M 111.18 180.98955 
L 283.847014 180.98955 
L 283.847014 20.880929 
L 111.18 20.880929 
z
" style="fill:#ffffff;"/>
   </g>
   <g id="matplotlib.axis_1">
    <g id="xtick_1">
     <g id="line2d_1">
      <path clip-path="url(#pdf0491f954)" d="M 119.028501 180.98955 
L 119.028501 20.880929 
" style="fill:none;stroke:#cccccc;stroke-linecap:round;stroke-width:1.5;"/>
     </g>
    </g>
    <g id="xtick_2">
     <g id="line2d_2">
      <path clip-path="url(#pdf0491f954)" d="M 206.234063 180.98955 
L 206.234063 20.880929 
" style="fill:none;stroke:#cccccc;stroke-linecap:round;stroke-width:1.5;"/>
     </g>
    </g>
   </g>
   <g id="matplotlib.axis_2">
    <g id="ytick_1">
     <g id="line2d_3">
      <path clip-path="url(#pdf0491f954)" d="M 111.18 171.1529 
L 283.847014 171.1529 
" style="fill:none;stroke:#cccccc;stroke-linecap:round;stroke-width:1.5;"/>
     </g>
     <g id="text_1">
      <!-- 0.0000 -->
      <defs>
       <path d="M 31.78125 66.40625 
Q 24.171875 66.40625 20.328125 58.90625 
Q 16.5 51.421875 16.5 36.375 
Q 16.5 21.390625 20.328125 13.890625 
Q 24.171875 6.390625 31.78125 6.390625 
Q 39.453125 6.390625 43.28125 13.890625 
Q 47.125 21.390625 47.125 36.375 
Q 47.125 51.421875 43.28125 58.90625 
Q 39.453125 66.40625 31.78125 66.40625 
z
M 31.78125 74.21875 
Q 44.046875 74.21875 50.515625 64.515625 
Q 56.984375 54.828125 56.984375 36.375 
Q 56.984375 17.96875 50.515625 8.265625 
Q 44.046875 -1.421875 31.78125 -1.421875 
Q 19.53125 -1.421875 13.0625 8.265625 
Q 6.59375 17.96875 6.59375 36.375 
Q 6.59375 54.828125 13.0625 64.515625 
Q 19.53125 74.21875 31.78125 74.21875 
z
" id="DejaVuSans-48"/>
       <path d="M 10.6875 12.40625 
L 21 12.40625 
L 21 0 
L 10.6875 0 
z
" id="DejaVuSans-46"/>
      </defs>
      <g style="fill:#262626;" transform="translate(40.945469 177.421611)scale(0.165 -0.165)">
       <use xlink:href="#DejaVuSans-48"/>
       <use x="63.623047" xlink:href="#DejaVuSans-46"/>
       <use x="95.410156" xlink:href="#DejaVuSans-48"/>
       <use x="159.033203" xlink:href="#DejaVuSans-48"/>
       <use x="222.65625" xlink:href="#DejaVuSans-48"/>
       <use x="286.279297" xlink:href="#DejaVuSans-48"/>
      </g>
     </g>
    </g>
    <g id="ytick_2">
     <g id="line2d_4">
      <path clip-path="url(#pdf0491f954)" d="M 111.18 98.535823 
L 283.847014 98.535823 
" style="fill:none;stroke:#cccccc;stroke-linecap:round;stroke-width:1.5;"/>
     </g>
     <g id="text_2">
      <!-- 0.0005 -->
      <defs>
       <path d="M 10.796875 72.90625 
L 49.515625 72.90625 
L 49.515625 64.59375 
L 19.828125 64.59375 
L 19.828125 46.734375 
Q 21.96875 47.46875 24.109375 47.828125 
Q 26.265625 48.1875 28.421875 48.1875 
Q 40.625 48.1875 47.75 41.5 
Q 54.890625 34.8125 54.890625 23.390625 
Q 54.890625 11.625 47.5625 5.09375 
Q 40.234375 -1.421875 26.90625 -1.421875 
Q 22.3125 -1.421875 17.546875 -0.640625 
Q 12.796875 0.140625 7.71875 1.703125 
L 7.71875 11.625 
Q 12.109375 9.234375 16.796875 8.0625 
Q 21.484375 6.890625 26.703125 6.890625 
Q 35.15625 6.890625 40.078125 11.328125 
Q 45.015625 15.765625 45.015625 23.390625 
Q 45.015625 31 40.078125 35.4375 
Q 35.15625 39.890625 26.703125 39.890625 
Q 22.75 39.890625 18.8125 39.015625 
Q 14.890625 38.140625 10.796875 36.28125 
z
" id="DejaVuSans-53"/>
      </defs>
      <g style="fill:#262626;" transform="translate(40.945469 104.804534)scale(0.165 -0.165)">
       <use xlink:href="#DejaVuSans-48"/>
       <use x="63.623047" xlink:href="#DejaVuSans-46"/>
       <use x="95.410156" xlink:href="#DejaVuSans-48"/>
       <use x="159.033203" xlink:href="#DejaVuSans-48"/>
       <use x="222.65625" xlink:href="#DejaVuSans-48"/>
       <use x="286.279297" xlink:href="#DejaVuSans-53"/>
      </g>
     </g>
    </g>
    <g id="ytick_3">
     <g id="line2d_5">
      <path clip-path="url(#pdf0491f954)" d="M 111.18 25.918745 
L 283.847014 25.918745 
" style="fill:none;stroke:#cccccc;stroke-linecap:round;stroke-width:1.5;"/>
     </g>
     <g id="text_3">
      <!-- 0.0010 -->
      <defs>
       <path d="M 12.40625 8.296875 
L 28.515625 8.296875 
L 28.515625 63.921875 
L 10.984375 60.40625 
L 10.984375 69.390625 
L 28.421875 72.90625 
L 38.28125 72.90625 
L 38.28125 8.296875 
L 54.390625 8.296875 
L 54.390625 0 
L 12.40625 0 
z
" id="DejaVuSans-49"/>
      </defs>
      <g style="fill:#262626;" transform="translate(40.945469 32.187456)scale(0.165 -0.165)">
       <use xlink:href="#DejaVuSans-48"/>
       <use x="63.623047" xlink:href="#DejaVuSans-46"/>
       <use x="95.410156" xlink:href="#DejaVuSans-48"/>
       <use x="159.033203" xlink:href="#DejaVuSans-48"/>
       <use x="222.65625" xlink:href="#DejaVuSans-49"/>
       <use x="286.279297" xlink:href="#DejaVuSans-48"/>
      </g>
     </g>
    </g>
    <g id="text_4">
     <!-- Effect -->
     <defs>
      <path d="M 9.8125 72.90625 
L 55.90625 72.90625 
L 55.90625 64.59375 
L 19.671875 64.59375 
L 19.671875 43.015625 
L 54.390625 43.015625 
L 54.390625 34.71875 
L 19.671875 34.71875 
L 19.671875 8.296875 
L 56.78125 8.296875 
L 56.78125 0 
L 9.8125 0 
z
" id="DejaVuSans-69"/>
      <path d="M 37.109375 75.984375 
L 37.109375 68.5 
L 28.515625 68.5 
Q 23.6875 68.5 21.796875 66.546875 
Q 19.921875 64.59375 19.921875 59.515625 
L 19.921875 54.6875 
L 34.71875 54.6875 
L 34.71875 47.703125 
L 19.921875 47.703125 
L 19.921875 0 
L 10.890625 0 
L 10.890625 47.703125 
L 2.296875 47.703125 
L 2.296875 54.6875 
L 10.890625 54.6875 
L 10.890625 58.5 
Q 10.890625 67.625 15.140625 71.796875 
Q 19.390625 75.984375 28.609375 75.984375 
z
" id="DejaVuSans-102"/>
      <path d="M 56.203125 29.59375 
L 56.203125 25.203125 
L 14.890625 25.203125 
Q 15.484375 15.921875 20.484375 11.0625 
Q 25.484375 6.203125 34.421875 6.203125 
Q 39.59375 6.203125 44.453125 7.46875 
Q 49.3125 8.734375 54.109375 11.28125 
L 54.109375 2.78125 
Q 49.265625 0.734375 44.1875 -0.34375 
Q 39.109375 -1.421875 33.890625 -1.421875 
Q 20.796875 -1.421875 13.15625 6.1875 
Q 5.515625 13.8125 5.515625 26.8125 
Q 5.515625 40.234375 12.765625 48.109375 
Q 20.015625 56 32.328125 56 
Q 43.359375 56 49.78125 48.890625 
Q 56.203125 41.796875 56.203125 29.59375 
z
M 47.21875 32.234375 
Q 47.125 39.59375 43.09375 43.984375 
Q 39.0625 48.390625 32.421875 48.390625 
Q 24.90625 48.390625 20.390625 44.140625 
Q 15.875 39.890625 15.1875 32.171875 
z
" id="DejaVuSans-101"/>
      <path d="M 48.78125 52.59375 
L 48.78125 44.1875 
Q 44.96875 46.296875 41.140625 47.34375 
Q 37.3125 48.390625 33.40625 48.390625 
Q 24.65625 48.390625 19.8125 42.84375 
Q 14.984375 37.3125 14.984375 27.296875 
Q 14.984375 17.28125 19.8125 11.734375 
Q 24.65625 6.203125 33.40625 6.203125 
Q 37.3125 6.203125 41.140625 7.25 
Q 44.96875 8.296875 48.78125 10.40625 
L 48.78125 2.09375 
Q 45.015625 0.34375 40.984375 -0.53125 
Q 36.96875 -1.421875 32.421875 -1.421875 
Q 20.0625 -1.421875 12.78125 6.34375 
Q 5.515625 14.109375 5.515625 27.296875 
Q 5.515625 40.671875 12.859375 48.328125 
Q 20.21875 56 33.015625 56 
Q 37.15625 56 41.109375 55.140625 
Q 45.0625 54.296875 48.78125 52.59375 
z
" id="DejaVuSans-99"/>
      <path d="M 18.3125 70.21875 
L 18.3125 54.6875 
L 36.8125 54.6875 
L 36.8125 47.703125 
L 18.3125 47.703125 
L 18.3125 18.015625 
Q 18.3125 11.328125 20.140625 9.421875 
Q 21.96875 7.515625 27.59375 7.515625 
L 36.8125 7.515625 
L 36.8125 0 
L 27.59375 0 
Q 17.1875 0 13.234375 3.875 
Q 9.28125 7.765625 9.28125 18.015625 
L 9.28125 47.703125 
L 2.6875 47.703125 
L 2.6875 54.6875 
L 9.28125 54.6875 
L 9.28125 70.21875 
z
" id="DejaVuSans-116"/>
     </defs>
     <g style="fill:#262626;" transform="translate(33.202031 126.973365)rotate(-90)scale(0.18 -0.18)">
      <use xlink:href="#DejaVuSans-69"/>
      <use x="63.183594" xlink:href="#DejaVuSans-102"/>
      <use x="98.388672" xlink:href="#DejaVuSans-102"/>
      <use x="133.59375" xlink:href="#DejaVuSans-101"/>
      <use x="195.117188" xlink:href="#DejaVuSans-99"/>
      <use x="250.097656" xlink:href="#DejaVuSans-116"/>
     </g>
    </g>
   </g>
   <g id="PolyCollection_1">
    <defs>
     <path d="M 119.028501 -294.806128 
L 119.028501 -283.792917 
L 123.388779 -327.604764 
L 127.749057 -297.259047 
L 132.109335 -281.513689 
L 136.469613 -397.991615 
L 140.829891 -330.818769 
L 145.190169 -260.763023 
L 145.190169 -260.790175 
L 145.190169 -260.790175 
L 140.829891 -334.904355 
L 136.469613 -403.841406 
L 132.109335 -286.008837 
L 127.749057 -303.399964 
L 123.388779 -338.244311 
L 119.028501 -294.806128 
z
" id="mfd3af0e993" style="stroke:#1f77b4;stroke-opacity:0.2;stroke-width:1.5;"/>
    </defs>
    <g clip-path="url(#pdf0491f954)">
     <use style="fill:#1f77b4;fill-opacity:0.2;stroke:#1f77b4;stroke-opacity:0.2;stroke-width:1.5;" x="0" xlink:href="#mfd3af0e993" y="432"/>
    </g>
   </g>
   <g id="PolyCollection_2">
    <defs>
     <path d="M 119.028501 -269.461539 
L 119.028501 -265.857625 
L 123.388779 -260.50096 
L 127.749057 -260.412867 
L 132.109335 -260.933958 
L 136.469613 -264.050199 
L 140.829891 -264.126241 
L 145.190169 -260.889981 
L 149.550448 -259.181051 
L 153.910726 -260.374359 
L 158.271004 -260.819818 
L 162.631282 -262.815705 
L 166.99156 -261.362518 
L 171.351838 -260.178206 
L 175.712116 -266.532834 
L 180.072394 -263.901942 
L 184.432673 -259.922646 
L 188.792951 -272.492374 
L 193.153229 -269.15224 
L 197.513507 -274.564091 
L 201.873785 -272.953274 
L 206.234063 -268.784812 
L 210.594341 -263.941647 
L 214.95462 -263.023414 
L 219.314898 -262.490907 
L 223.675176 -261.054759 
L 223.675176 -261.071472 
L 223.675176 -261.071472 
L 219.314898 -263.001365 
L 214.95462 -263.479347 
L 210.594341 -264.516873 
L 206.234063 -269.471546 
L 201.873785 -274.12996 
L 197.513507 -275.903728 
L 193.153229 -270.55403 
L 188.792951 -274.281886 
L 184.432673 -261.330372 
L 180.072394 -265.242377 
L 175.712116 -267.941533 
L 171.351838 -261.28317 
L 166.99156 -262.520474 
L 162.631282 -264.117049 
L 158.271004 -262.126573 
L 153.910726 -261.656567 
L 149.550448 -260.491887 
L 145.190169 -262.35866 
L 140.829891 -265.68746 
L 136.469613 -265.688216 
L 132.109335 -262.552183 
L 127.749057 -261.77769 
L 123.388779 -263.474356 
L 119.028501 -269.461539 
z
" id="m49666268ae" style="stroke:#ff7f0e;stroke-opacity:0.2;stroke-width:1.5;"/>
    </defs>
    <g clip-path="url(#pdf0491f954)">
     <use style="fill:#ff7f0e;fill-opacity:0.2;stroke:#ff7f0e;stroke-opacity:0.2;stroke-width:1.5;" x="0" xlink:href="#m49666268ae" y="432"/>
    </g>
   </g>
   <g id="PolyCollection_3">
    <defs>
     <path d="M 119.028501 -260.781031 
L 119.028501 -258.574283 
L 123.388779 -258.964716 
L 127.749057 -259.788556 
L 132.109335 -260.778471 
L 136.469613 -259.504671 
L 140.829891 -260.760453 
L 145.190169 -260.996435 
L 149.550448 -259.76594 
L 153.910726 -259.364898 
L 158.271004 -259.799684 
L 162.631282 -260.176573 
L 166.99156 -262.52677 
L 171.351838 -262.24721 
L 175.712116 -258.53622 
L 180.072394 -258.677395 
L 184.432673 -261.499326 
L 188.792951 -260.90454 
L 193.153229 -261.845725 
L 197.513507 -261.678503 
L 201.873785 -260.694061 
L 206.234063 -261.725894 
L 210.594341 -264.831307 
L 214.95462 -263.264549 
L 219.314898 -261.693163 
L 223.675176 -267.031518 
L 228.035454 -262.688792 
L 232.395732 -262.339773 
L 236.75601 -261.57399 
L 241.116288 -262.421928 
L 245.476566 -262.289241 
L 249.836845 -262.328352 
L 254.197123 -263.579535 
L 258.557401 -263.399074 
L 262.917679 -262.189198 
L 267.277957 -261.012429 
L 271.638235 -261.1787 
L 275.998513 -260.771912 
L 275.998513 -260.774966 
L 275.998513 -260.774966 
L 271.638235 -261.326122 
L 267.277957 -261.20749 
L 262.917679 -262.474025 
L 258.557401 -263.753678 
L 254.197123 -263.955952 
L 249.836845 -262.645143 
L 245.476566 -262.596564 
L 241.116288 -262.716969 
L 236.75601 -261.922046 
L 232.395732 -262.722585 
L 228.035454 -263.265702 
L 223.675176 -267.897193 
L 219.314898 -262.517603 
L 214.95462 -264.001552 
L 210.594341 -265.613692 
L 206.234063 -262.501438 
L 201.873785 -261.387887 
L 197.513507 -262.387506 
L 193.153229 -262.569316 
L 188.792951 -261.621058 
L 184.432673 -262.304242 
L 180.072394 -259.569136 
L 175.712116 -259.485908 
L 171.351838 -263.228975 
L 166.99156 -263.653074 
L 162.631282 -261.272485 
L 158.271004 -260.799684 
L 153.910726 -260.394401 
L 149.550448 -260.875999 
L 145.190169 -262.045353 
L 140.829891 -261.759858 
L 136.469613 -260.441038 
L 132.109335 -261.756309 
L 127.749057 -261.070433 
L 123.388779 -260.788649 
L 119.028501 -260.781031 
z
" id="m5c7d4c3f24" style="stroke:#2ca02c;stroke-opacity:0.2;stroke-width:1.5;"/>
    </defs>
    <g clip-path="url(#pdf0491f954)">
     <use style="fill:#2ca02c;fill-opacity:0.2;stroke:#2ca02c;stroke-opacity:0.2;stroke-width:1.5;" x="0" xlink:href="#m5c7d4c3f24" y="432"/>
    </g>
   </g>
   <g id="PolyCollection_4">
    <defs>
     <path d="M 119.028501 -281.884954 
L 119.028501 -274.190452 
L 123.388779 -270.948001 
L 127.749057 -258.288114 
L 132.109335 -264.050104 
L 136.469613 -265.603264 
L 140.829891 -263.424964 
L 145.190169 -271.036184 
L 149.550448 -275.735042 
L 153.910726 -295.318181 
L 158.271004 -301.293127 
L 162.631282 -298.244496 
L 166.99156 -270.525644 
L 171.351838 -260.899652 
L 171.351838 -260.927707 
L 171.351838 -260.927707 
L 166.99156 -272.31878 
L 162.631282 -302.12359 
L 158.271004 -304.755345 
L 153.910726 -299.259411 
L 149.550448 -279.110497 
L 145.190169 -273.9397 
L 140.829891 -266.381915 
L 136.469613 -269.411175 
L 132.109335 -267.961712 
L 127.749057 -261.727031 
L 123.388779 -276.996403 
L 119.028501 -281.884954 
z
" id="mae28dd8711" style="stroke:#d62728;stroke-opacity:0.2;stroke-width:1.5;"/>
    </defs>
    <g clip-path="url(#pdf0491f954)">
     <use style="fill:#d62728;fill-opacity:0.2;stroke:#d62728;stroke-opacity:0.2;stroke-width:1.5;" x="0" xlink:href="#mae28dd8711" y="432"/>
    </g>
   </g>
   <g id="line2d_6">
    <path clip-path="url(#pdf0491f954)" d="M 119.028501 142.584841 
L 123.388779 99.063794 
L 127.749057 131.736631 
L 132.109335 148.148232 
L 136.469613 31.034071 
L 140.829891 99.193316 
L 145.190169 171.224467 
" style="fill:none;stroke:#1f77b4;stroke-linecap:round;stroke-width:2.25;"/>
   </g>
   <g id="line2d_7">
    <path clip-path="url(#pdf0491f954)" d="M 119.028501 164.345664 
L 123.388779 169.982024 
L 127.749057 170.909382 
L 132.109335 170.25734 
L 136.469613 167.141656 
L 140.829891 167.108045 
L 145.190169 170.409005 
L 149.550448 172.169228 
L 153.910726 170.997471 
L 158.271004 170.528272 
L 162.631282 168.543773 
L 166.99156 170.054593 
L 171.351838 171.231012 
L 175.712116 164.761699 
L 180.072394 167.39073 
L 184.432673 171.364465 
L 188.792951 158.594149 
L 193.153229 162.178413 
L 197.513507 156.765393 
L 201.873785 158.44058 
L 206.234063 162.864822 
L 210.594341 167.788535 
L 214.95462 168.739779 
L 219.314898 169.245593 
L 223.675176 170.937324 
" style="fill:none;stroke:#ff7f0e;stroke-linecap:round;stroke-width:2.25;"/>
   </g>
   <g id="line2d_8">
    <path clip-path="url(#pdf0491f954)" d="M 119.028501 172.324449 
L 123.388779 172.11521 
L 127.749057 171.571715 
L 132.109335 170.750169 
L 136.469613 172.030652 
L 140.829891 170.706338 
L 145.190169 170.474321 
L 149.550448 171.684608 
L 153.910726 172.125343 
L 158.271004 171.716824 
L 162.631282 171.290152 
L 166.99156 168.920755 
L 171.351838 169.287724 
L 175.712116 172.997897 
L 180.072394 172.871387 
L 184.432673 170.091134 
L 188.792951 170.759919 
L 193.153229 169.794378 
L 197.513507 169.971094 
L 201.873785 170.966806 
L 206.234063 169.889441 
L 210.594341 166.787731 
L 214.95462 168.370197 
L 219.314898 169.91925 
L 223.675176 164.528734 
L 228.035454 169.024147 
L 232.395732 169.46882 
L 236.75601 170.260459 
L 241.116288 169.427752 
L 245.476566 169.55379 
L 249.836845 169.511569 
L 254.197123 168.234412 
L 258.557401 168.431998 
L 262.917679 169.66199 
L 267.277957 170.888806 
L 271.638235 170.746555 
L 275.998513 171.226566 
" style="fill:none;stroke:#2ca02c;stroke-linecap:round;stroke-width:2.25;"/>
   </g>
   <g id="line2d_9">
    <path clip-path="url(#pdf0491f954)" d="M 119.028501 153.925253 
L 123.388779 158.021032 
L 127.749057 171.941408 
L 132.109335 166.070489 
L 136.469613 164.475281 
L 140.829891 167.177305 
L 145.190169 159.52991 
L 149.550448 154.698099 
L 153.910726 134.715786 
L 158.271004 128.974195 
L 162.631282 131.841457 
L 166.99156 160.585483 
L 171.351838 171.085938 
" style="fill:none;stroke:#d62728;stroke-linecap:round;stroke-width:2.25;"/>
   </g>
   <g id="patch_3">
    <path d="M 111.18 180.98955 
L 111.18 20.880929 
" style="fill:none;stroke:#cccccc;stroke-linecap:square;stroke-linejoin:miter;stroke-width:1.875;"/>
   </g>
   <g id="patch_4">
    <path d="M 111.18 180.98955 
L 283.847014 180.98955 
" style="fill:none;stroke:#cccccc;stroke-linecap:square;stroke-linejoin:miter;stroke-width:1.875;"/>
   </g>
   <g id="text_5">
    <g id="patch_5">
     <path d="M 283.340354 22.850396 
L 283.340354 179.020084 
L 308.680979 179.020084 
L 308.680979 22.850396 
z
" style="fill:#ffffff;stroke:#ffffff;stroke-linejoin:miter;stroke-width:1.5;"/>
    </g>
    <!-- Random = False -->
    <defs>
     <path d="M 44.390625 34.1875 
Q 47.5625 33.109375 50.5625 29.59375 
Q 53.5625 26.078125 56.59375 19.921875 
L 66.609375 0 
L 56 0 
L 46.6875 18.703125 
Q 43.0625 26.03125 39.671875 28.421875 
Q 36.28125 30.8125 30.421875 30.8125 
L 19.671875 30.8125 
L 19.671875 0 
L 9.8125 0 
L 9.8125 72.90625 
L 32.078125 72.90625 
Q 44.578125 72.90625 50.734375 67.671875 
Q 56.890625 62.453125 56.890625 51.90625 
Q 56.890625 45.015625 53.6875 40.46875 
Q 50.484375 35.9375 44.390625 34.1875 
z
M 19.671875 64.796875 
L 19.671875 38.921875 
L 32.078125 38.921875 
Q 39.203125 38.921875 42.84375 42.21875 
Q 46.484375 45.515625 46.484375 51.90625 
Q 46.484375 58.296875 42.84375 61.546875 
Q 39.203125 64.796875 32.078125 64.796875 
z
" id="DejaVuSans-82"/>
     <path d="M 34.28125 27.484375 
Q 23.390625 27.484375 19.1875 25 
Q 14.984375 22.515625 14.984375 16.5 
Q 14.984375 11.71875 18.140625 8.90625 
Q 21.296875 6.109375 26.703125 6.109375 
Q 34.1875 6.109375 38.703125 11.40625 
Q 43.21875 16.703125 43.21875 25.484375 
L 43.21875 27.484375 
z
M 52.203125 31.203125 
L 52.203125 0 
L 43.21875 0 
L 43.21875 8.296875 
Q 40.140625 3.328125 35.546875 0.953125 
Q 30.953125 -1.421875 24.3125 -1.421875 
Q 15.921875 -1.421875 10.953125 3.296875 
Q 6 8.015625 6 15.921875 
Q 6 25.140625 12.171875 29.828125 
Q 18.359375 34.515625 30.609375 34.515625 
L 43.21875 34.515625 
L 43.21875 35.40625 
Q 43.21875 41.609375 39.140625 45 
Q 35.0625 48.390625 27.6875 48.390625 
Q 23 48.390625 18.546875 47.265625 
Q 14.109375 46.140625 10.015625 43.890625 
L 10.015625 52.203125 
Q 14.9375 54.109375 19.578125 55.046875 
Q 24.21875 56 28.609375 56 
Q 40.484375 56 46.34375 49.84375 
Q 52.203125 43.703125 52.203125 31.203125 
z
" id="DejaVuSans-97"/>
     <path d="M 54.890625 33.015625 
L 54.890625 0 
L 45.90625 0 
L 45.90625 32.71875 
Q 45.90625 40.484375 42.875 44.328125 
Q 39.84375 48.1875 33.796875 48.1875 
Q 26.515625 48.1875 22.3125 43.546875 
Q 18.109375 38.921875 18.109375 30.90625 
L 18.109375 0 
L 9.078125 0 
L 9.078125 54.6875 
L 18.109375 54.6875 
L 18.109375 46.1875 
Q 21.34375 51.125 25.703125 53.5625 
Q 30.078125 56 35.796875 56 
Q 45.21875 56 50.046875 50.171875 
Q 54.890625 44.34375 54.890625 33.015625 
z
" id="DejaVuSans-110"/>
     <path d="M 45.40625 46.390625 
L 45.40625 75.984375 
L 54.390625 75.984375 
L 54.390625 0 
L 45.40625 0 
L 45.40625 8.203125 
Q 42.578125 3.328125 38.25 0.953125 
Q 33.9375 -1.421875 27.875 -1.421875 
Q 17.96875 -1.421875 11.734375 6.484375 
Q 5.515625 14.40625 5.515625 27.296875 
Q 5.515625 40.1875 11.734375 48.09375 
Q 17.96875 56 27.875 56 
Q 33.9375 56 38.25 53.625 
Q 42.578125 51.265625 45.40625 46.390625 
z
M 14.796875 27.296875 
Q 14.796875 17.390625 18.875 11.75 
Q 22.953125 6.109375 30.078125 6.109375 
Q 37.203125 6.109375 41.296875 11.75 
Q 45.40625 17.390625 45.40625 27.296875 
Q 45.40625 37.203125 41.296875 42.84375 
Q 37.203125 48.484375 30.078125 48.484375 
Q 22.953125 48.484375 18.875 42.84375 
Q 14.796875 37.203125 14.796875 27.296875 
z
" id="DejaVuSans-100"/>
     <path d="M 30.609375 48.390625 
Q 23.390625 48.390625 19.1875 42.75 
Q 14.984375 37.109375 14.984375 27.296875 
Q 14.984375 17.484375 19.15625 11.84375 
Q 23.34375 6.203125 30.609375 6.203125 
Q 37.796875 6.203125 41.984375 11.859375 
Q 46.1875 17.53125 46.1875 27.296875 
Q 46.1875 37.015625 41.984375 42.703125 
Q 37.796875 48.390625 30.609375 48.390625 
z
M 30.609375 56 
Q 42.328125 56 49.015625 48.375 
Q 55.71875 40.765625 55.71875 27.296875 
Q 55.71875 13.875 49.015625 6.21875 
Q 42.328125 -1.421875 30.609375 -1.421875 
Q 18.84375 -1.421875 12.171875 6.21875 
Q 5.515625 13.875 5.515625 27.296875 
Q 5.515625 40.765625 12.171875 48.375 
Q 18.84375 56 30.609375 56 
z
" id="DejaVuSans-111"/>
     <path d="M 52 44.1875 
Q 55.375 50.25 60.0625 53.125 
Q 64.75 56 71.09375 56 
Q 79.640625 56 84.28125 50.015625 
Q 88.921875 44.046875 88.921875 33.015625 
L 88.921875 0 
L 79.890625 0 
L 79.890625 32.71875 
Q 79.890625 40.578125 77.09375 44.375 
Q 74.3125 48.1875 68.609375 48.1875 
Q 61.625 48.1875 57.5625 43.546875 
Q 53.515625 38.921875 53.515625 30.90625 
L 53.515625 0 
L 44.484375 0 
L 44.484375 32.71875 
Q 44.484375 40.625 41.703125 44.40625 
Q 38.921875 48.1875 33.109375 48.1875 
Q 26.21875 48.1875 22.15625 43.53125 
Q 18.109375 38.875 18.109375 30.90625 
L 18.109375 0 
L 9.078125 0 
L 9.078125 54.6875 
L 18.109375 54.6875 
L 18.109375 46.1875 
Q 21.1875 51.21875 25.484375 53.609375 
Q 29.78125 56 35.6875 56 
Q 41.65625 56 45.828125 52.96875 
Q 50 49.953125 52 44.1875 
z
" id="DejaVuSans-109"/>
     <path id="DejaVuSans-32"/>
     <path d="M 10.59375 45.40625 
L 73.1875 45.40625 
L 73.1875 37.203125 
L 10.59375 37.203125 
z
M 10.59375 25.484375 
L 73.1875 25.484375 
L 73.1875 17.1875 
L 10.59375 17.1875 
z
" id="DejaVuSans-61"/>
     <path d="M 9.8125 72.90625 
L 51.703125 72.90625 
L 51.703125 64.59375 
L 19.671875 64.59375 
L 19.671875 43.109375 
L 48.578125 43.109375 
L 48.578125 34.8125 
L 19.671875 34.8125 
L 19.671875 0 
L 9.8125 0 
z
" id="DejaVuSans-70"/>
     <path d="M 9.421875 75.984375 
L 18.40625 75.984375 
L 18.40625 0 
L 9.421875 0 
z
" id="DejaVuSans-108"/>
     <path d="M 44.28125 53.078125 
L 44.28125 44.578125 
Q 40.484375 46.53125 36.375 47.5 
Q 32.28125 48.484375 27.875 48.484375 
Q 21.1875 48.484375 17.84375 46.4375 
Q 14.5 44.390625 14.5 40.28125 
Q 14.5 37.15625 16.890625 35.375 
Q 19.28125 33.59375 26.515625 31.984375 
L 29.59375 31.296875 
Q 39.15625 29.25 43.1875 25.515625 
Q 47.21875 21.78125 47.21875 15.09375 
Q 47.21875 7.46875 41.1875 3.015625 
Q 35.15625 -1.421875 24.609375 -1.421875 
Q 20.21875 -1.421875 15.453125 -0.5625 
Q 10.6875 0.296875 5.421875 2 
L 5.421875 11.28125 
Q 10.40625 8.6875 15.234375 7.390625 
Q 20.0625 6.109375 24.8125 6.109375 
Q 31.15625 6.109375 34.5625 8.28125 
Q 37.984375 10.453125 37.984375 14.40625 
Q 37.984375 18.0625 35.515625 20.015625 
Q 33.0625 21.96875 24.703125 23.78125 
L 21.578125 24.515625 
Q 13.234375 26.265625 9.515625 29.90625 
Q 5.8125 33.546875 5.8125 39.890625 
Q 5.8125 47.609375 11.28125 51.796875 
Q 16.75 56 26.8125 56 
Q 31.78125 56 36.171875 55.265625 
Q 40.578125 54.546875 44.28125 53.078125 
z
" id="DejaVuSans-115"/>
    </defs>
    <g style="fill:#262626;" transform="translate(291.043792 26.810396)rotate(-270)scale(0.18 -0.18)">
     <use xlink:href="#DejaVuSans-82"/>
     <use x="69.451172" xlink:href="#DejaVuSans-97"/>
     <use x="130.730469" xlink:href="#DejaVuSans-110"/>
     <use x="194.109375" xlink:href="#DejaVuSans-100"/>
     <use x="257.585938" xlink:href="#DejaVuSans-111"/>
     <use x="318.767578" xlink:href="#DejaVuSans-109"/>
     <use x="416.179688" xlink:href="#DejaVuSans-32"/>
     <use x="447.966797" xlink:href="#DejaVuSans-61"/>
     <use x="531.755859" xlink:href="#DejaVuSans-32"/>
     <use x="563.542969" xlink:href="#DejaVuSans-70"/>
     <use x="620.921875" xlink:href="#DejaVuSans-97"/>
     <use x="682.201172" xlink:href="#DejaVuSans-108"/>
     <use x="709.984375" xlink:href="#DejaVuSans-115"/>
     <use x="762.083984" xlink:href="#DejaVuSans-101"/>
    </g>
   </g>
  </g>
  <g id="axes_2">
   <g id="patch_6">
    <path d="M 111.18 362.22 
L 283.847014 362.22 
L 283.847014 202.111379 
L 111.18 202.111379 
z
" style="fill:#ffffff;"/>
   </g>
   <g id="matplotlib.axis_3">
    <g id="xtick_3">
     <g id="line2d_10">
      <path clip-path="url(#pdcbb233607)" d="M 119.028501 362.22 
L 119.028501 202.111379 
" style="fill:none;stroke:#cccccc;stroke-linecap:round;stroke-width:1.5;"/>
     </g>
     <g id="text_6">
      <!-- 0 -->
      <g style="fill:#262626;" transform="translate(113.779438 387.257422)scale(0.165 -0.165)">
       <use xlink:href="#DejaVuSans-48"/>
      </g>
     </g>
    </g>
    <g id="xtick_4">
     <g id="line2d_11">
      <path clip-path="url(#pdcbb233607)" d="M 206.234063 362.22 
L 206.234063 202.111379 
" style="fill:none;stroke:#cccccc;stroke-linecap:round;stroke-width:1.5;"/>
     </g>
     <g id="text_7">
      <!-- 20 -->
      <defs>
       <path d="M 19.1875 8.296875 
L 53.609375 8.296875 
L 53.609375 0 
L 7.328125 0 
L 7.328125 8.296875 
Q 12.9375 14.109375 22.625 23.890625 
Q 32.328125 33.6875 34.8125 36.53125 
Q 39.546875 41.84375 41.421875 45.53125 
Q 43.3125 49.21875 43.3125 52.78125 
Q 43.3125 58.59375 39.234375 62.25 
Q 35.15625 65.921875 28.609375 65.921875 
Q 23.96875 65.921875 18.8125 64.3125 
Q 13.671875 62.703125 7.8125 59.421875 
L 7.8125 69.390625 
Q 13.765625 71.78125 18.9375 73 
Q 24.125 74.21875 28.421875 74.21875 
Q 39.75 74.21875 46.484375 68.546875 
Q 53.21875 62.890625 53.21875 53.421875 
Q 53.21875 48.921875 51.53125 44.890625 
Q 49.859375 40.875 45.40625 35.40625 
Q 44.1875 33.984375 37.640625 27.21875 
Q 31.109375 20.453125 19.1875 8.296875 
z
" id="DejaVuSans-50"/>
      </defs>
      <g style="fill:#262626;" transform="translate(195.735938 387.257422)scale(0.165 -0.165)">
       <use xlink:href="#DejaVuSans-50"/>
       <use x="63.623047" xlink:href="#DejaVuSans-48"/>
      </g>
     </g>
    </g>
    <g id="text_8">
     <!-- Layer -->
     <defs>
      <path d="M 9.8125 72.90625 
L 19.671875 72.90625 
L 19.671875 8.296875 
L 55.171875 8.296875 
L 55.171875 0 
L 9.8125 0 
z
" id="DejaVuSans-76"/>
      <path d="M 32.171875 -5.078125 
Q 28.375 -14.84375 24.75 -17.8125 
Q 21.140625 -20.796875 15.09375 -20.796875 
L 7.90625 -20.796875 
L 7.90625 -13.28125 
L 13.1875 -13.28125 
Q 16.890625 -13.28125 18.9375 -11.515625 
Q 21 -9.765625 23.484375 -3.21875 
L 25.09375 0.875 
L 2.984375 54.6875 
L 12.5 54.6875 
L 29.59375 11.921875 
L 46.6875 54.6875 
L 56.203125 54.6875 
z
" id="DejaVuSans-121"/>
      <path d="M 41.109375 46.296875 
Q 39.59375 47.171875 37.8125 47.578125 
Q 36.03125 48 33.890625 48 
Q 26.265625 48 22.1875 43.046875 
Q 18.109375 38.09375 18.109375 28.8125 
L 18.109375 0 
L 9.078125 0 
L 9.078125 54.6875 
L 18.109375 54.6875 
L 18.109375 46.1875 
Q 20.953125 51.171875 25.484375 53.578125 
Q 30.03125 56 36.53125 56 
Q 37.453125 56 38.578125 55.875 
Q 39.703125 55.765625 41.0625 55.515625 
z
" id="DejaVuSans-114"/>
     </defs>
     <g style="fill:#262626;" transform="translate(172.418976 408.366094)scale(0.18 -0.18)">
      <use xlink:href="#DejaVuSans-76"/>
      <use x="55.712891" xlink:href="#DejaVuSans-97"/>
      <use x="116.992188" xlink:href="#DejaVuSans-121"/>
      <use x="176.171875" xlink:href="#DejaVuSans-101"/>
      <use x="237.695312" xlink:href="#DejaVuSans-114"/>
     </g>
    </g>
   </g>
   <g id="matplotlib.axis_4">
    <g id="ytick_4">
     <g id="line2d_12">
      <path clip-path="url(#pdcbb233607)" d="M 111.18 352.38335 
L 283.847014 352.38335 
" style="fill:none;stroke:#cccccc;stroke-linecap:round;stroke-width:1.5;"/>
     </g>
     <g id="text_9">
      <!-- 0.0000 -->
      <g style="fill:#262626;" transform="translate(40.945469 358.652061)scale(0.165 -0.165)">
       <use xlink:href="#DejaVuSans-48"/>
       <use x="63.623047" xlink:href="#DejaVuSans-46"/>
       <use x="95.410156" xlink:href="#DejaVuSans-48"/>
       <use x="159.033203" xlink:href="#DejaVuSans-48"/>
       <use x="222.65625" xlink:href="#DejaVuSans-48"/>
       <use x="286.279297" xlink:href="#DejaVuSans-48"/>
      </g>
     </g>
    </g>
    <g id="ytick_5">
     <g id="line2d_13">
      <path clip-path="url(#pdcbb233607)" d="M 111.18 279.766272 
L 283.847014 279.766272 
" style="fill:none;stroke:#cccccc;stroke-linecap:round;stroke-width:1.5;"/>
     </g>
     <g id="text_10">
      <!-- 0.0005 -->
      <g style="fill:#262626;" transform="translate(40.945469 286.034983)scale(0.165 -0.165)">
       <use xlink:href="#DejaVuSans-48"/>
       <use x="63.623047" xlink:href="#DejaVuSans-46"/>
       <use x="95.410156" xlink:href="#DejaVuSans-48"/>
       <use x="159.033203" xlink:href="#DejaVuSans-48"/>
       <use x="222.65625" xlink:href="#DejaVuSans-48"/>
       <use x="286.279297" xlink:href="#DejaVuSans-53"/>
      </g>
     </g>
    </g>
    <g id="ytick_6">
     <g id="line2d_14">
      <path clip-path="url(#pdcbb233607)" d="M 111.18 207.149195 
L 283.847014 207.149195 
" style="fill:none;stroke:#cccccc;stroke-linecap:round;stroke-width:1.5;"/>
     </g>
     <g id="text_11">
      <!-- 0.0010 -->
      <g style="fill:#262626;" transform="translate(40.945469 213.417906)scale(0.165 -0.165)">
       <use xlink:href="#DejaVuSans-48"/>
       <use x="63.623047" xlink:href="#DejaVuSans-46"/>
       <use x="95.410156" xlink:href="#DejaVuSans-48"/>
       <use x="159.033203" xlink:href="#DejaVuSans-48"/>
       <use x="222.65625" xlink:href="#DejaVuSans-49"/>
       <use x="286.279297" xlink:href="#DejaVuSans-48"/>
      </g>
     </g>
    </g>
    <g id="text_12">
     <!-- Effect -->
     <g style="fill:#262626;" transform="translate(33.202031 308.203815)rotate(-90)scale(0.18 -0.18)">
      <use xlink:href="#DejaVuSans-69"/>
      <use x="63.183594" xlink:href="#DejaVuSans-102"/>
      <use x="98.388672" xlink:href="#DejaVuSans-102"/>
      <use x="133.59375" xlink:href="#DejaVuSans-101"/>
      <use x="195.117188" xlink:href="#DejaVuSans-99"/>
      <use x="250.097656" xlink:href="#DejaVuSans-116"/>
     </g>
    </g>
   </g>
   <g id="PolyCollection_5">
    <defs>
     <path d="M 119.028501 -107.55977 
L 119.028501 -90.272513 
L 123.388779 -80.819728 
L 127.749057 -78.454264 
L 132.109335 -80.252837 
L 136.469613 -79.259715 
L 140.829891 -79.989678 
L 145.190169 -79.354213 
L 149.550448 -79.393113 
L 153.910726 -79.04086 
L 158.271004 -79.078258 
L 162.631282 -79.33305 
L 166.99156 -79.604038 
L 171.351838 -79.188735 
L 175.712116 -79.275789 
L 180.072394 -79.286409 
L 184.432673 -79.521549 
L 188.792951 -79.27876 
L 193.153229 -79.397608 
L 197.513507 -79.471141 
L 201.873785 -79.520698 
L 206.234063 -79.655416 
L 210.594341 -79.588536 
L 214.95462 -79.593448 
L 219.314898 -79.607254 
L 223.675176 -79.650366 
L 223.675176 -79.652131 
L 223.675176 -79.652131 
L 219.314898 -79.69443 
L 214.95462 -79.717181 
L 210.594341 -79.758832 
L 206.234063 -79.843189 
L 201.873785 -79.750389 
L 197.513507 -79.739418 
L 193.153229 -79.697842 
L 188.792951 -79.614432 
L 184.432673 -79.887424 
L 180.072394 -79.713751 
L 175.712116 -79.749053 
L 171.351838 -79.738472 
L 166.99156 -80.185565 
L 162.631282 -80.006849 
L 158.271004 -79.858653 
L 153.910726 -79.942193 
L 149.550448 -80.400818 
L 145.190169 -80.614683 
L 140.829891 -81.398054 
L 136.469613 -80.944677 
L 132.109335 -82.467923 
L 127.749057 -81.662467 
L 123.388779 -86.695052 
L 119.028501 -107.55977 
z
" id="mdbccd5ff20" style="stroke:#ff7f0e;stroke-opacity:0.2;stroke-width:1.5;"/>
    </defs>
    <g clip-path="url(#pdcbb233607)">
     <use style="fill:#ff7f0e;fill-opacity:0.2;stroke:#ff7f0e;stroke-opacity:0.2;stroke-width:1.5;" x="0" xlink:href="#mdbccd5ff20" y="432"/>
    </g>
   </g>
   <g id="line2d_15">
    <path clip-path="url(#pdcbb233607)" d="M 119.028501 332.952987 
L 123.388779 348.04311 
L 127.749057 351.900181 
L 132.109335 350.65173 
L 136.469613 351.922232 
L 140.829891 351.364903 
L 145.190169 351.985631 
L 149.550448 352.101051 
L 153.910726 352.52784 
L 158.271004 352.544779 
L 162.631282 352.336922 
L 166.99156 352.106166 
L 171.351838 352.54177 
L 175.712116 352.483907 
L 180.072394 352.490087 
L 184.432673 352.297391 
L 188.792951 352.551438 
L 193.153229 352.454025 
L 197.513507 352.38687 
L 201.873785 352.361265 
L 206.234063 352.248515 
L 210.594341 352.323388 
L 214.95462 352.343573 
L 219.314898 352.348751 
L 223.675176 352.348786 
" style="fill:none;stroke:#ff7f0e;stroke-linecap:round;stroke-width:2.25;"/>
   </g>
   <g id="patch_7">
    <path d="M 111.18 362.22 
L 111.18 202.111379 
" style="fill:none;stroke:#cccccc;stroke-linecap:square;stroke-linejoin:miter;stroke-width:1.875;"/>
   </g>
   <g id="patch_8">
    <path d="M 111.18 362.22 
L 283.847014 362.22 
" style="fill:none;stroke:#cccccc;stroke-linecap:square;stroke-linejoin:miter;stroke-width:1.875;"/>
   </g>
   <g id="text_13">
    <g id="patch_9">
     <path d="M 283.340354 207.067721 
L 283.340354 357.263658 
L 308.680979 357.263658 
L 308.680979 207.067721 
z
" style="fill:#ffffff;stroke:#ffffff;stroke-linejoin:miter;stroke-width:1.5;"/>
    </g>
    <!-- Random = True -->
    <defs>
     <path d="M -0.296875 72.90625 
L 61.375 72.90625 
L 61.375 64.59375 
L 35.5 64.59375 
L 35.5 0 
L 25.59375 0 
L 25.59375 64.59375 
L -0.296875 64.59375 
z
" id="DejaVuSans-84"/>
     <path d="M 8.5 21.578125 
L 8.5 54.6875 
L 17.484375 54.6875 
L 17.484375 21.921875 
Q 17.484375 14.15625 20.5 10.265625 
Q 23.53125 6.390625 29.59375 6.390625 
Q 36.859375 6.390625 41.078125 11.03125 
Q 45.3125 15.671875 45.3125 23.6875 
L 45.3125 54.6875 
L 54.296875 54.6875 
L 54.296875 0 
L 45.3125 0 
L 45.3125 8.40625 
Q 42.046875 3.421875 37.71875 1 
Q 33.40625 -1.421875 27.6875 -1.421875 
Q 18.265625 -1.421875 13.375 4.4375 
Q 8.5 10.296875 8.5 21.578125 
z
M 31.109375 56 
z
" id="DejaVuSans-117"/>
    </defs>
    <g style="fill:#262626;" transform="translate(291.043792 211.027721)rotate(-270)scale(0.18 -0.18)">
     <use xlink:href="#DejaVuSans-82"/>
     <use x="69.451172" xlink:href="#DejaVuSans-97"/>
     <use x="130.730469" xlink:href="#DejaVuSans-110"/>
     <use x="194.109375" xlink:href="#DejaVuSans-100"/>
     <use x="257.585938" xlink:href="#DejaVuSans-111"/>
     <use x="318.767578" xlink:href="#DejaVuSans-109"/>
     <use x="416.179688" xlink:href="#DejaVuSans-32"/>
     <use x="447.966797" xlink:href="#DejaVuSans-61"/>
     <use x="531.755859" xlink:href="#DejaVuSans-32"/>
     <use x="563.542969" xlink:href="#DejaVuSans-84"/>
     <use x="624.408203" xlink:href="#DejaVuSans-114"/>
     <use x="665.521484" xlink:href="#DejaVuSans-117"/>
     <use x="728.900391" xlink:href="#DejaVuSans-101"/>
    </g>
   </g>
  </g>
 </g>
 <defs>
  <clipPath id="pdf0491f954">
   <rect height="160.108621" width="172.667014" x="111.18" y="20.880929"/>
  </clipPath>
  <clipPath id="pdcbb233607">
   <rect height="160.108621" width="172.667014" x="111.18" y="202.111379"/>
  </clipPath>
 </defs>
</svg>
