<?xml version="1.0" encoding="utf-8" standalone="no"?>
<!DOCTYPE svg PUBLIC "-//W3C//DTD SVG 1.1//EN"
  "http://www.w3.org/Graphics/SVG/1.1/DTD/svg11.dtd">
<!-- Created with matplotlib (https://matplotlib.org/) -->
<svg height="432pt" version="1.1" viewBox="0 0 324 432" width="324pt" xmlns="http://www.w3.org/2000/svg" xmlns:xlink="http://www.w3.org/1999/xlink">
 <defs>
  <style type="text/css">
*{stroke-linecap:butt;stroke-linejoin:round;}
  </style>
 </defs>
 <g id="figure_1">
  <g id="patch_1">
   <path d="M 0 432 
L 324 432 
L 324 0 
L 0 0 
z
" style="fill:#ffffff;"/>
  </g>
  <g id="axes_1">
   <g id="patch_2">
    <path d="M 95.34 179.591771 
L 283.530214 179.591771 
L 283.530214 24.383574 
L 95.34 24.383574 
z
" style="fill:#ffffff;"/>
   </g>
   <g id="matplotlib.axis_1">
    <g id="xtick_1">
     <g id="line2d_1">
      <path clip-path="url(#p1b9c5c62cc)" d="M 103.894101 179.591771 
L 103.894101 24.383574 
" style="fill:none;stroke:#cccccc;stroke-linecap:round;stroke-width:1.5;"/>
     </g>
    </g>
    <g id="xtick_2">
     <g id="line2d_2">
      <path clip-path="url(#p1b9c5c62cc)" d="M 198.939663 179.591771 
L 198.939663 24.383574 
" style="fill:none;stroke:#cccccc;stroke-linecap:round;stroke-width:1.5;"/>
     </g>
    </g>
   </g>
   <g id="matplotlib.axis_2">
    <g id="ytick_1">
     <g id="line2d_3">
      <path clip-path="url(#p1b9c5c62cc)" d="M 95.34 172.556206 
L 283.530214 172.556206 
" style="fill:none;stroke:#cccccc;stroke-linecap:round;stroke-width:1.5;"/>
     </g>
     <g id="text_1">
      <!-- 0 -->
      <defs>
       <path d="M 31.78125 66.40625 
Q 24.171875 66.40625 20.328125 58.90625 
Q 16.5 51.421875 16.5 36.375 
Q 16.5 21.390625 20.328125 13.890625 
Q 24.171875 6.390625 31.78125 6.390625 
Q 39.453125 6.390625 43.28125 13.890625 
Q 47.125 21.390625 47.125 36.375 
Q 47.125 51.421875 43.28125 58.90625 
Q 39.453125 66.40625 31.78125 66.40625 
z
M 31.78125 74.21875 
Q 44.046875 74.21875 50.515625 64.515625 
Q 56.984375 54.828125 56.984375 36.375 
Q 56.984375 17.96875 50.515625 8.265625 
Q 44.046875 -1.421875 31.78125 -1.421875 
Q 19.53125 -1.421875 13.0625 8.265625 
Q 6.59375 17.96875 6.59375 36.375 
Q 6.59375 54.828125 13.0625 64.515625 
Q 19.53125 74.21875 31.78125 74.21875 
z
" id="DejaVuSans-48"/>
      </defs>
      <g style="fill:#262626;" transform="translate(72.341875 178.824917)scale(0.165 -0.165)">
       <use xlink:href="#DejaVuSans-48"/>
      </g>
     </g>
    </g>
    <g id="ytick_2">
     <g id="line2d_4">
      <path clip-path="url(#p1b9c5c62cc)" d="M 95.34 99.237233 
L 283.530214 99.237233 
" style="fill:none;stroke:#cccccc;stroke-linecap:round;stroke-width:1.5;"/>
     </g>
     <g id="text_2">
      <!-- 500 -->
      <defs>
       <path d="M 10.796875 72.90625 
L 49.515625 72.90625 
L 49.515625 64.59375 
L 19.828125 64.59375 
L 19.828125 46.734375 
Q 21.96875 47.46875 24.109375 47.828125 
Q 26.265625 48.1875 28.421875 48.1875 
Q 40.625 48.1875 47.75 41.5 
Q 54.890625 34.8125 54.890625 23.390625 
Q 54.890625 11.625 47.5625 5.09375 
Q 40.234375 -1.421875 26.90625 -1.421875 
Q 22.3125 -1.421875 17.546875 -0.640625 
Q 12.796875 0.140625 7.71875 1.703125 
L 7.71875 11.625 
Q 12.109375 9.234375 16.796875 8.0625 
Q 21.484375 6.890625 26.703125 6.890625 
Q 35.15625 6.890625 40.078125 11.328125 
Q 45.015625 15.765625 45.015625 23.390625 
Q 45.015625 31 40.078125 35.4375 
Q 35.15625 39.890625 26.703125 39.890625 
Q 22.75 39.890625 18.8125 39.015625 
Q 14.890625 38.140625 10.796875 36.28125 
z
" id="DejaVuSans-53"/>
      </defs>
      <g style="fill:#262626;" transform="translate(51.345625 105.505944)scale(0.165 -0.165)">
       <use xlink:href="#DejaVuSans-53"/>
       <use x="63.623047" xlink:href="#DejaVuSans-48"/>
       <use x="127.246094" xlink:href="#DejaVuSans-48"/>
      </g>
     </g>
    </g>
    <g id="ytick_3">
     <g id="line2d_5">
      <path clip-path="url(#p1b9c5c62cc)" d="M 95.34 25.91826 
L 283.530214 25.91826 
" style="fill:none;stroke:#cccccc;stroke-linecap:round;stroke-width:1.5;"/>
     </g>
     <g id="text_3">
      <!-- 1000 -->
      <defs>
       <path d="M 12.40625 8.296875 
L 28.515625 8.296875 
L 28.515625 63.921875 
L 10.984375 60.40625 
L 10.984375 69.390625 
L 28.421875 72.90625 
L 38.28125 72.90625 
L 38.28125 8.296875 
L 54.390625 8.296875 
L 54.390625 0 
L 12.40625 0 
z
" id="DejaVuSans-49"/>
      </defs>
      <g style="fill:#262626;" transform="translate(40.8475 32.186971)scale(0.165 -0.165)">
       <use xlink:href="#DejaVuSans-49"/>
       <use x="63.623047" xlink:href="#DejaVuSans-48"/>
       <use x="127.246094" xlink:href="#DejaVuSans-48"/>
       <use x="190.869141" xlink:href="#DejaVuSans-48"/>
      </g>
     </g>
    </g>
    <g id="text_4">
     <!-- Effect -->
     <defs>
      <path d="M 9.8125 72.90625 
L 55.90625 72.90625 
L 55.90625 64.59375 
L 19.671875 64.59375 
L 19.671875 43.015625 
L 54.390625 43.015625 
L 54.390625 34.71875 
L 19.671875 34.71875 
L 19.671875 8.296875 
L 56.78125 8.296875 
L 56.78125 0 
L 9.8125 0 
z
" id="DejaVuSans-69"/>
      <path d="M 37.109375 75.984375 
L 37.109375 68.5 
L 28.515625 68.5 
Q 23.6875 68.5 21.796875 66.546875 
Q 19.921875 64.59375 19.921875 59.515625 
L 19.921875 54.6875 
L 34.71875 54.6875 
L 34.71875 47.703125 
L 19.921875 47.703125 
L 19.921875 0 
L 10.890625 0 
L 10.890625 47.703125 
L 2.296875 47.703125 
L 2.296875 54.6875 
L 10.890625 54.6875 
L 10.890625 58.5 
Q 10.890625 67.625 15.140625 71.796875 
Q 19.390625 75.984375 28.609375 75.984375 
z
" id="DejaVuSans-102"/>
      <path d="M 56.203125 29.59375 
L 56.203125 25.203125 
L 14.890625 25.203125 
Q 15.484375 15.921875 20.484375 11.0625 
Q 25.484375 6.203125 34.421875 6.203125 
Q 39.59375 6.203125 44.453125 7.46875 
Q 49.3125 8.734375 54.109375 11.28125 
L 54.109375 2.78125 
Q 49.265625 0.734375 44.1875 -0.34375 
Q 39.109375 -1.421875 33.890625 -1.421875 
Q 20.796875 -1.421875 13.15625 6.1875 
Q 5.515625 13.8125 5.515625 26.8125 
Q 5.515625 40.234375 12.765625 48.109375 
Q 20.015625 56 32.328125 56 
Q 43.359375 56 49.78125 48.890625 
Q 56.203125 41.796875 56.203125 29.59375 
z
M 47.21875 32.234375 
Q 47.125 39.59375 43.09375 43.984375 
Q 39.0625 48.390625 32.421875 48.390625 
Q 24.90625 48.390625 20.390625 44.140625 
Q 15.875 39.890625 15.1875 32.171875 
z
" id="DejaVuSans-101"/>
      <path d="M 48.78125 52.59375 
L 48.78125 44.1875 
Q 44.96875 46.296875 41.140625 47.34375 
Q 37.3125 48.390625 33.40625 48.390625 
Q 24.65625 48.390625 19.8125 42.84375 
Q 14.984375 37.3125 14.984375 27.296875 
Q 14.984375 17.28125 19.8125 11.734375 
Q 24.65625 6.203125 33.40625 6.203125 
Q 37.3125 6.203125 41.140625 7.25 
Q 44.96875 8.296875 48.78125 10.40625 
L 48.78125 2.09375 
Q 45.015625 0.34375 40.984375 -0.53125 
Q 36.96875 -1.421875 32.421875 -1.421875 
Q 20.0625 -1.421875 12.78125 6.34375 
Q 5.515625 14.109375 5.515625 27.296875 
Q 5.515625 40.671875 12.859375 48.328125 
Q 20.21875 56 33.015625 56 
Q 37.15625 56 41.109375 55.140625 
Q 45.0625 54.296875 48.78125 52.59375 
z
" id="DejaVuSans-99"/>
      <path d="M 18.3125 70.21875 
L 18.3125 54.6875 
L 36.8125 54.6875 
L 36.8125 47.703125 
L 18.3125 47.703125 
L 18.3125 18.015625 
Q 18.3125 11.328125 20.140625 9.421875 
Q 21.96875 7.515625 27.59375 7.515625 
L 36.8125 7.515625 
L 36.8125 0 
L 27.59375 0 
Q 17.1875 0 13.234375 3.875 
Q 9.28125 7.765625 9.28125 18.015625 
L 9.28125 47.703125 
L 2.6875 47.703125 
L 2.6875 54.6875 
L 9.28125 54.6875 
L 9.28125 70.21875 
z
" id="DejaVuSans-116"/>
     </defs>
     <g style="fill:#262626;" transform="translate(33.104063 128.025797)rotate(-90)scale(0.18 -0.18)">
      <use xlink:href="#DejaVuSans-69"/>
      <use x="63.183594" xlink:href="#DejaVuSans-102"/>
      <use x="98.388672" xlink:href="#DejaVuSans-102"/>
      <use x="133.59375" xlink:href="#DejaVuSans-101"/>
      <use x="195.117188" xlink:href="#DejaVuSans-99"/>
      <use x="250.097656" xlink:href="#DejaVuSans-116"/>
     </g>
    </g>
   </g>
   <g id="PolyCollection_1">
    <defs>
     <path d="M 103.894101 -400.513893 
L 103.894101 -398.855375 
L 108.646379 -398.845498 
L 113.398657 -398.838472 
L 118.150935 -398.838523 
L 122.903213 -398.881144 
L 127.655491 -398.871305 
L 132.407769 -398.870699 
L 137.160048 -398.90431 
L 141.912326 -398.843851 
L 146.664604 -398.858175 
L 151.416882 -398.858579 
L 156.16916 -398.817745 
L 160.921438 -398.887827 
L 165.673716 -398.856096 
L 170.425994 -398.885447 
L 175.178273 -398.906747 
L 179.930551 -398.837751 
L 184.682829 -398.776568 
L 189.435107 -398.905503 
L 194.187385 -398.855779 
L 198.939663 -398.88037 
L 203.691941 -398.81583 
L 208.44422 -398.847164 
L 213.196498 -398.921053 
L 217.948776 -398.902129 
L 217.948776 -400.504854 
L 217.948776 -400.504854 
L 213.196498 -400.421715 
L 208.44422 -400.495432 
L 203.691941 -400.461015 
L 198.939663 -400.486215 
L 194.187385 -400.561508 
L 189.435107 -400.457846 
L 184.682829 -400.477731 
L 179.930551 -400.484839 
L 175.178273 -400.449271 
L 170.425994 -400.445999 
L 165.673716 -400.437045 
L 160.921438 -400.459976 
L 156.16916 -400.451217 
L 151.416882 -400.488589 
L 146.664604 -400.529094 
L 141.912326 -400.495367 
L 137.160048 -400.452159 
L 132.407769 -400.483547 
L 127.655491 -400.467196 
L 122.903213 -400.508639 
L 118.150935 -400.480617 
L 113.398657 -400.534104 
L 108.646379 -400.503898 
L 103.894101 -400.513893 
z
" id="m608fd71f68" style="stroke:#1f77b4;stroke-opacity:0.2;stroke-width:1.5;"/>
    </defs>
    <g clip-path="url(#p1b9c5c62cc)">
     <use style="fill:#1f77b4;fill-opacity:0.2;stroke:#1f77b4;stroke-opacity:0.2;stroke-width:1.5;" x="0" xlink:href="#m608fd71f68" y="432"/>
    </g>
   </g>
   <g id="PolyCollection_2">
    <defs>
     <path d="M 103.894101 -320.405914 
L 103.894101 -319.61125 
L 108.646379 -319.614404 
L 113.398657 -319.635766 
L 118.150935 -319.593217 
L 122.903213 -319.610929 
L 127.655491 -319.607968 
L 132.407769 -319.624049 
L 137.160048 -319.584216 
L 141.912326 -319.606096 
L 146.664604 -319.563533 
L 151.416882 -319.604343 
L 156.16916 -319.588553 
L 160.921438 -319.608272 
L 160.921438 -320.413704 
L 160.921438 -320.413704 
L 156.16916 -320.407951 
L 151.416882 -320.384624 
L 146.664604 -320.370379 
L 141.912326 -320.376783 
L 137.160048 -320.373813 
L 132.407769 -320.445518 
L 127.655491 -320.381578 
L 122.903213 -320.406737 
L 118.150935 -320.38385 
L 113.398657 -320.417598 
L 108.646379 -320.416343 
L 103.894101 -320.405914 
z
" id="m2023dd5d74" style="stroke:#ff7f0e;stroke-opacity:0.2;stroke-width:1.5;"/>
    </defs>
    <g clip-path="url(#p1b9c5c62cc)">
     <use style="fill:#ff7f0e;fill-opacity:0.2;stroke:#ff7f0e;stroke-opacity:0.2;stroke-width:1.5;" x="0" xlink:href="#m2023dd5d74" y="432"/>
    </g>
   </g>
   <g id="PolyCollection_3">
    <defs>
     <path d="M 103.894101 -326.870108 
L 103.894101 -325.843783 
L 108.646379 -325.824532 
L 113.398657 -325.815387 
L 118.150935 -325.818885 
L 122.903213 -325.80099 
L 127.655491 -325.789348 
L 132.407769 -325.821547 
L 132.407769 -326.782541 
L 132.407769 -326.782541 
L 127.655491 -326.774362 
L 122.903213 -326.776897 
L 118.150935 -326.810294 
L 113.398657 -326.812927 
L 108.646379 -326.818795 
L 103.894101 -326.870108 
z
" id="mcbce1bbac5" style="stroke:#2ca02c;stroke-opacity:0.2;stroke-width:1.5;"/>
    </defs>
    <g clip-path="url(#p1b9c5c62cc)">
     <use style="fill:#2ca02c;fill-opacity:0.2;stroke:#2ca02c;stroke-opacity:0.2;stroke-width:1.5;" x="0" xlink:href="#mcbce1bbac5" y="432"/>
    </g>
   </g>
   <g id="PolyCollection_4">
    <defs>
     <path d="M 103.894101 -382.664412 
L 103.894101 -381.218689 
L 108.646379 -381.210252 
L 113.398657 -381.207079 
L 118.150935 -381.132989 
L 122.903213 -381.22233 
L 127.655491 -381.162067 
L 132.407769 -381.19988 
L 137.160048 -381.173334 
L 141.912326 -381.207505 
L 146.664604 -381.190159 
L 151.416882 -381.177305 
L 156.16916 -381.223475 
L 160.921438 -381.188884 
L 165.673716 -381.185901 
L 170.425994 -381.189152 
L 175.178273 -381.197316 
L 179.930551 -381.276356 
L 184.682829 -381.186303 
L 189.435107 -381.181712 
L 194.187385 -381.18344 
L 198.939663 -381.149283 
L 203.691941 -381.21522 
L 208.44422 -381.175866 
L 213.196498 -381.200033 
L 217.948776 -381.170847 
L 222.701054 -381.212735 
L 227.453332 -381.247525 
L 232.20561 -381.136943 
L 236.957888 -381.17521 
L 241.710166 -381.177045 
L 246.462445 -381.213757 
L 251.214723 -381.212739 
L 255.967001 -381.184929 
L 260.719279 -381.102485 
L 265.471557 -381.263033 
L 270.223835 -381.177135 
L 274.976113 -381.204918 
L 274.976113 -382.657458 
L 274.976113 -382.657458 
L 270.223835 -382.670651 
L 265.471557 -382.642267 
L 260.719279 -382.623855 
L 255.967001 -382.673385 
L 251.214723 -382.664261 
L 246.462445 -382.620057 
L 241.710166 -382.604517 
L 236.957888 -382.648651 
L 232.20561 -382.597879 
L 227.453332 -382.61648 
L 222.701054 -382.666523 
L 217.948776 -382.616784 
L 213.196498 -382.638016 
L 208.44422 -382.59735 
L 203.691941 -382.663849 
L 198.939663 -382.643195 
L 194.187385 -382.60665 
L 189.435107 -382.640463 
L 184.682829 -382.637953 
L 179.930551 -382.688061 
L 175.178273 -382.678359 
L 170.425994 -382.638283 
L 165.673716 -382.628268 
L 160.921438 -382.706031 
L 156.16916 -382.665003 
L 151.416882 -382.64034 
L 146.664604 -382.628212 
L 141.912326 -382.631866 
L 137.160048 -382.590303 
L 132.407769 -382.688529 
L 127.655491 -382.674447 
L 122.903213 -382.608815 
L 118.150935 -382.672577 
L 113.398657 -382.634232 
L 108.646379 -382.660868 
L 103.894101 -382.664412 
z
" id="m095572ec19" style="stroke:#d62728;stroke-opacity:0.2;stroke-width:1.5;"/>
    </defs>
    <g clip-path="url(#p1b9c5c62cc)">
     <use style="fill:#d62728;fill-opacity:0.2;stroke:#d62728;stroke-opacity:0.2;stroke-width:1.5;" x="0" xlink:href="#m095572ec19" y="432"/>
    </g>
   </g>
   <g id="line2d_6">
    <path clip-path="url(#p1b9c5c62cc)" d="M 103.894101 32.324279 
L 108.646379 32.323735 
L 113.398657 32.323114 
L 118.150935 32.324192 
L 122.903213 32.320824 
L 127.655491 32.324198 
L 132.407769 32.328544 
L 137.160048 32.330437 
L 141.912326 32.327211 
L 146.664604 32.324119 
L 151.416882 32.326182 
L 156.16916 32.327708 
L 160.921438 32.328184 
L 165.673716 32.338036 
L 170.425994 32.332992 
L 175.178273 32.334965 
L 179.930551 32.336617 
L 184.682829 32.341281 
L 189.435107 32.333796 
L 194.187385 32.343366 
L 198.939663 32.331618 
L 203.691941 32.326109 
L 208.44422 32.325604 
L 213.196498 32.323959 
L 217.948776 32.323006 
" style="fill:none;stroke:#1f77b4;stroke-linecap:round;stroke-width:2.25;"/>
   </g>
   <g id="line2d_7">
    <path clip-path="url(#p1b9c5c62cc)" d="M 103.894101 111.981014 
L 108.646379 111.98581 
L 113.398657 111.991939 
L 118.150935 111.993756 
L 122.903213 111.995665 
L 127.655491 111.995732 
L 132.407769 111.993155 
L 137.160048 112.000935 
L 141.912326 111.998 
L 146.664604 112.003981 
L 151.416882 112.020594 
L 156.16916 111.996974 
L 160.921438 111.991201 
" style="fill:none;stroke:#ff7f0e;stroke-linecap:round;stroke-width:2.25;"/>
   </g>
   <g id="line2d_8">
    <path clip-path="url(#p1b9c5c62cc)" d="M 103.894101 105.685731 
L 108.646379 105.693766 
L 113.398657 105.705922 
L 118.150935 105.695827 
L 122.903213 105.711721 
L 127.655491 105.725155 
L 132.407769 105.698997 
" style="fill:none;stroke:#2ca02c;stroke-linecap:round;stroke-width:2.25;"/>
   </g>
   <g id="line2d_9">
    <path clip-path="url(#p1b9c5c62cc)" d="M 103.894101 50.074051 
L 108.646379 50.079728 
L 113.398657 50.079939 
L 118.150935 50.079506 
L 122.903213 50.080254 
L 127.655491 50.078814 
L 132.407769 50.07993 
L 137.160048 50.080339 
L 141.912326 50.082745 
L 146.664604 50.083117 
L 151.416882 50.083297 
L 156.16916 50.080474 
L 160.921438 50.081599 
L 165.673716 50.082368 
L 170.425994 50.079585 
L 175.178273 50.082337 
L 179.930551 50.080219 
L 184.682829 50.083645 
L 189.435107 50.081312 
L 194.187385 50.083997 
L 198.939663 50.084503 
L 203.691941 50.081887 
L 208.44422 50.091144 
L 213.196498 50.082583 
L 217.948776 50.087678 
L 222.701054 50.081843 
L 227.453332 50.081669 
L 232.20561 50.082872 
L 236.957888 50.083317 
L 241.710166 50.083569 
L 246.462445 50.083038 
L 251.214723 50.085611 
L 255.967001 50.082858 
L 260.719279 50.081537 
L 265.471557 50.080248 
L 270.223835 50.079878 
L 274.976113 50.079819 
" style="fill:none;stroke:#d62728;stroke-linecap:round;stroke-width:2.25;"/>
   </g>
   <g id="patch_3">
    <path d="M 95.34 179.591771 
L 95.34 24.383574 
" style="fill:none;stroke:#cccccc;stroke-linecap:square;stroke-linejoin:miter;stroke-width:1.875;"/>
   </g>
   <g id="patch_4">
    <path d="M 95.34 179.591771 
L 283.530214 179.591771 
" style="fill:none;stroke:#cccccc;stroke-linecap:square;stroke-linejoin:miter;stroke-width:1.875;"/>
   </g>
   <g id="text_5">
    <g id="patch_5">
     <path d="M 283.334018 23.902829 
L 283.334018 180.072516 
L 308.674643 180.072516 
L 308.674643 23.902829 
z
" style="fill:#ffffff;stroke:#ffffff;stroke-linejoin:miter;stroke-width:1.5;"/>
    </g>
    <!-- Random = False -->
    <defs>
     <path d="M 44.390625 34.1875 
Q 47.5625 33.109375 50.5625 29.59375 
Q 53.5625 26.078125 56.59375 19.921875 
L 66.609375 0 
L 56 0 
L 46.6875 18.703125 
Q 43.0625 26.03125 39.671875 28.421875 
Q 36.28125 30.8125 30.421875 30.8125 
L 19.671875 30.8125 
L 19.671875 0 
L 9.8125 0 
L 9.8125 72.90625 
L 32.078125 72.90625 
Q 44.578125 72.90625 50.734375 67.671875 
Q 56.890625 62.453125 56.890625 51.90625 
Q 56.890625 45.015625 53.6875 40.46875 
Q 50.484375 35.9375 44.390625 34.1875 
z
M 19.671875 64.796875 
L 19.671875 38.921875 
L 32.078125 38.921875 
Q 39.203125 38.921875 42.84375 42.21875 
Q 46.484375 45.515625 46.484375 51.90625 
Q 46.484375 58.296875 42.84375 61.546875 
Q 39.203125 64.796875 32.078125 64.796875 
z
" id="DejaVuSans-82"/>
     <path d="M 34.28125 27.484375 
Q 23.390625 27.484375 19.1875 25 
Q 14.984375 22.515625 14.984375 16.5 
Q 14.984375 11.71875 18.140625 8.90625 
Q 21.296875 6.109375 26.703125 6.109375 
Q 34.1875 6.109375 38.703125 11.40625 
Q 43.21875 16.703125 43.21875 25.484375 
L 43.21875 27.484375 
z
M 52.203125 31.203125 
L 52.203125 0 
L 43.21875 0 
L 43.21875 8.296875 
Q 40.140625 3.328125 35.546875 0.953125 
Q 30.953125 -1.421875 24.3125 -1.421875 
Q 15.921875 -1.421875 10.953125 3.296875 
Q 6 8.015625 6 15.921875 
Q 6 25.140625 12.171875 29.828125 
Q 18.359375 34.515625 30.609375 34.515625 
L 43.21875 34.515625 
L 43.21875 35.40625 
Q 43.21875 41.609375 39.140625 45 
Q 35.0625 48.390625 27.6875 48.390625 
Q 23 48.390625 18.546875 47.265625 
Q 14.109375 46.140625 10.015625 43.890625 
L 10.015625 52.203125 
Q 14.9375 54.109375 19.578125 55.046875 
Q 24.21875 56 28.609375 56 
Q 40.484375 56 46.34375 49.84375 
Q 52.203125 43.703125 52.203125 31.203125 
z
" id="DejaVuSans-97"/>
     <path d="M 54.890625 33.015625 
L 54.890625 0 
L 45.90625 0 
L 45.90625 32.71875 
Q 45.90625 40.484375 42.875 44.328125 
Q 39.84375 48.1875 33.796875 48.1875 
Q 26.515625 48.1875 22.3125 43.546875 
Q 18.109375 38.921875 18.109375 30.90625 
L 18.109375 0 
L 9.078125 0 
L 9.078125 54.6875 
L 18.109375 54.6875 
L 18.109375 46.1875 
Q 21.34375 51.125 25.703125 53.5625 
Q 30.078125 56 35.796875 56 
Q 45.21875 56 50.046875 50.171875 
Q 54.890625 44.34375 54.890625 33.015625 
z
" id="DejaVuSans-110"/>
     <path d="M 45.40625 46.390625 
L 45.40625 75.984375 
L 54.390625 75.984375 
L 54.390625 0 
L 45.40625 0 
L 45.40625 8.203125 
Q 42.578125 3.328125 38.25 0.953125 
Q 33.9375 -1.421875 27.875 -1.421875 
Q 17.96875 -1.421875 11.734375 6.484375 
Q 5.515625 14.40625 5.515625 27.296875 
Q 5.515625 40.1875 11.734375 48.09375 
Q 17.96875 56 27.875 56 
Q 33.9375 56 38.25 53.625 
Q 42.578125 51.265625 45.40625 46.390625 
z
M 14.796875 27.296875 
Q 14.796875 17.390625 18.875 11.75 
Q 22.953125 6.109375 30.078125 6.109375 
Q 37.203125 6.109375 41.296875 11.75 
Q 45.40625 17.390625 45.40625 27.296875 
Q 45.40625 37.203125 41.296875 42.84375 
Q 37.203125 48.484375 30.078125 48.484375 
Q 22.953125 48.484375 18.875 42.84375 
Q 14.796875 37.203125 14.796875 27.296875 
z
" id="DejaVuSans-100"/>
     <path d="M 30.609375 48.390625 
Q 23.390625 48.390625 19.1875 42.75 
Q 14.984375 37.109375 14.984375 27.296875 
Q 14.984375 17.484375 19.15625 11.84375 
Q 23.34375 6.203125 30.609375 6.203125 
Q 37.796875 6.203125 41.984375 11.859375 
Q 46.1875 17.53125 46.1875 27.296875 
Q 46.1875 37.015625 41.984375 42.703125 
Q 37.796875 48.390625 30.609375 48.390625 
z
M 30.609375 56 
Q 42.328125 56 49.015625 48.375 
Q 55.71875 40.765625 55.71875 27.296875 
Q 55.71875 13.875 49.015625 6.21875 
Q 42.328125 -1.421875 30.609375 -1.421875 
Q 18.84375 -1.421875 12.171875 6.21875 
Q 5.515625 13.875 5.515625 27.296875 
Q 5.515625 40.765625 12.171875 48.375 
Q 18.84375 56 30.609375 56 
z
" id="DejaVuSans-111"/>
     <path d="M 52 44.1875 
Q 55.375 50.25 60.0625 53.125 
Q 64.75 56 71.09375 56 
Q 79.640625 56 84.28125 50.015625 
Q 88.921875 44.046875 88.921875 33.015625 
L 88.921875 0 
L 79.890625 0 
L 79.890625 32.71875 
Q 79.890625 40.578125 77.09375 44.375 
Q 74.3125 48.1875 68.609375 48.1875 
Q 61.625 48.1875 57.5625 43.546875 
Q 53.515625 38.921875 53.515625 30.90625 
L 53.515625 0 
L 44.484375 0 
L 44.484375 32.71875 
Q 44.484375 40.625 41.703125 44.40625 
Q 38.921875 48.1875 33.109375 48.1875 
Q 26.21875 48.1875 22.15625 43.53125 
Q 18.109375 38.875 18.109375 30.90625 
L 18.109375 0 
L 9.078125 0 
L 9.078125 54.6875 
L 18.109375 54.6875 
L 18.109375 46.1875 
Q 21.1875 51.21875 25.484375 53.609375 
Q 29.78125 56 35.6875 56 
Q 41.65625 56 45.828125 52.96875 
Q 50 49.953125 52 44.1875 
z
" id="DejaVuSans-109"/>
     <path id="DejaVuSans-32"/>
     <path d="M 10.59375 45.40625 
L 73.1875 45.40625 
L 73.1875 37.203125 
L 10.59375 37.203125 
z
M 10.59375 25.484375 
L 73.1875 25.484375 
L 73.1875 17.1875 
L 10.59375 17.1875 
z
" id="DejaVuSans-61"/>
     <path d="M 9.8125 72.90625 
L 51.703125 72.90625 
L 51.703125 64.59375 
L 19.671875 64.59375 
L 19.671875 43.109375 
L 48.578125 43.109375 
L 48.578125 34.8125 
L 19.671875 34.8125 
L 19.671875 0 
L 9.8125 0 
z
" id="DejaVuSans-70"/>
     <path d="M 9.421875 75.984375 
L 18.40625 75.984375 
L 18.40625 0 
L 9.421875 0 
z
" id="DejaVuSans-108"/>
     <path d="M 44.28125 53.078125 
L 44.28125 44.578125 
Q 40.484375 46.53125 36.375 47.5 
Q 32.28125 48.484375 27.875 48.484375 
Q 21.1875 48.484375 17.84375 46.4375 
Q 14.5 44.390625 14.5 40.28125 
Q 14.5 37.15625 16.890625 35.375 
Q 19.28125 33.59375 26.515625 31.984375 
L 29.59375 31.296875 
Q 39.15625 29.25 43.1875 25.515625 
Q 47.21875 21.78125 47.21875 15.09375 
Q 47.21875 7.46875 41.1875 3.015625 
Q 35.15625 -1.421875 24.609375 -1.421875 
Q 20.21875 -1.421875 15.453125 -0.5625 
Q 10.6875 0.296875 5.421875 2 
L 5.421875 11.28125 
Q 10.40625 8.6875 15.234375 7.390625 
Q 20.0625 6.109375 24.8125 6.109375 
Q 31.15625 6.109375 34.5625 8.28125 
Q 37.984375 10.453125 37.984375 14.40625 
Q 37.984375 18.0625 35.515625 20.015625 
Q 33.0625 21.96875 24.703125 23.78125 
L 21.578125 24.515625 
Q 13.234375 26.265625 9.515625 29.90625 
Q 5.8125 33.546875 5.8125 39.890625 
Q 5.8125 47.609375 11.28125 51.796875 
Q 16.75 56 26.8125 56 
Q 31.78125 56 36.171875 55.265625 
Q 40.578125 54.546875 44.28125 53.078125 
z
" id="DejaVuSans-115"/>
    </defs>
    <g style="fill:#262626;" transform="translate(291.037456 27.862829)rotate(-270)scale(0.18 -0.18)">
     <use xlink:href="#DejaVuSans-82"/>
     <use x="69.451172" xlink:href="#DejaVuSans-97"/>
     <use x="130.730469" xlink:href="#DejaVuSans-110"/>
     <use x="194.109375" xlink:href="#DejaVuSans-100"/>
     <use x="257.585938" xlink:href="#DejaVuSans-111"/>
     <use x="318.767578" xlink:href="#DejaVuSans-109"/>
     <use x="416.179688" xlink:href="#DejaVuSans-32"/>
     <use x="447.966797" xlink:href="#DejaVuSans-61"/>
     <use x="531.755859" xlink:href="#DejaVuSans-32"/>
     <use x="563.542969" xlink:href="#DejaVuSans-70"/>
     <use x="620.921875" xlink:href="#DejaVuSans-97"/>
     <use x="682.201172" xlink:href="#DejaVuSans-108"/>
     <use x="709.984375" xlink:href="#DejaVuSans-115"/>
     <use x="762.083984" xlink:href="#DejaVuSans-101"/>
    </g>
   </g>
  </g>
  <g id="axes_2">
   <g id="patch_6">
    <path d="M 95.34 362.22 
L 283.530214 362.22 
L 283.530214 207.011802 
L 95.34 207.011802 
z
" style="fill:#ffffff;"/>
   </g>
   <g id="matplotlib.axis_3">
    <g id="xtick_3">
     <g id="line2d_10">
      <path clip-path="url(#p62d1c0e7e9)" d="M 103.894101 362.22 
L 103.894101 207.011802 
" style="fill:none;stroke:#cccccc;stroke-linecap:round;stroke-width:1.5;"/>
     </g>
     <g id="text_6">
      <!-- 0 -->
      <g style="fill:#262626;" transform="translate(98.645038 387.257422)scale(0.165 -0.165)">
       <use xlink:href="#DejaVuSans-48"/>
      </g>
     </g>
    </g>
    <g id="xtick_4">
     <g id="line2d_11">
      <path clip-path="url(#p62d1c0e7e9)" d="M 198.939663 362.22 
L 198.939663 207.011802 
" style="fill:none;stroke:#cccccc;stroke-linecap:round;stroke-width:1.5;"/>
     </g>
     <g id="text_7">
      <!-- 20 -->
      <defs>
       <path d="M 19.1875 8.296875 
L 53.609375 8.296875 
L 53.609375 0 
L 7.328125 0 
L 7.328125 8.296875 
Q 12.9375 14.109375 22.625 23.890625 
Q 32.328125 33.6875 34.8125 36.53125 
Q 39.546875 41.84375 41.421875 45.53125 
Q 43.3125 49.21875 43.3125 52.78125 
Q 43.3125 58.59375 39.234375 62.25 
Q 35.15625 65.921875 28.609375 65.921875 
Q 23.96875 65.921875 18.8125 64.3125 
Q 13.671875 62.703125 7.8125 59.421875 
L 7.8125 69.390625 
Q 13.765625 71.78125 18.9375 73 
Q 24.125 74.21875 28.421875 74.21875 
Q 39.75 74.21875 46.484375 68.546875 
Q 53.21875 62.890625 53.21875 53.421875 
Q 53.21875 48.921875 51.53125 44.890625 
Q 49.859375 40.875 45.40625 35.40625 
Q 44.1875 33.984375 37.640625 27.21875 
Q 31.109375 20.453125 19.1875 8.296875 
z
" id="DejaVuSans-50"/>
      </defs>
      <g style="fill:#262626;" transform="translate(188.441538 387.257422)scale(0.165 -0.165)">
       <use xlink:href="#DejaVuSans-50"/>
       <use x="63.623047" xlink:href="#DejaVuSans-48"/>
      </g>
     </g>
    </g>
    <g id="text_8">
     <!-- Layer -->
     <defs>
      <path d="M 9.8125 72.90625 
L 19.671875 72.90625 
L 19.671875 8.296875 
L 55.171875 8.296875 
L 55.171875 0 
L 9.8125 0 
z
" id="DejaVuSans-76"/>
      <path d="M 32.171875 -5.078125 
Q 28.375 -14.84375 24.75 -17.8125 
Q 21.140625 -20.796875 15.09375 -20.796875 
L 7.90625 -20.796875 
L 7.90625 -13.28125 
L 13.1875 -13.28125 
Q 16.890625 -13.28125 18.9375 -11.515625 
Q 21 -9.765625 23.484375 -3.21875 
L 25.09375 0.875 
L 2.984375 54.6875 
L 12.5 54.6875 
L 29.59375 11.921875 
L 46.6875 54.6875 
L 56.203125 54.6875 
z
" id="DejaVuSans-121"/>
      <path d="M 41.109375 46.296875 
Q 39.59375 47.171875 37.8125 47.578125 
Q 36.03125 48 33.890625 48 
Q 26.265625 48 22.1875 43.046875 
Q 18.109375 38.09375 18.109375 28.8125 
L 18.109375 0 
L 9.078125 0 
L 9.078125 54.6875 
L 18.109375 54.6875 
L 18.109375 46.1875 
Q 20.953125 51.171875 25.484375 53.578125 
Q 30.03125 56 36.53125 56 
Q 37.453125 56 38.578125 55.875 
Q 39.703125 55.765625 41.0625 55.515625 
z
" id="DejaVuSans-114"/>
     </defs>
     <g style="fill:#262626;" transform="translate(164.340576 408.366094)scale(0.18 -0.18)">
      <use xlink:href="#DejaVuSans-76"/>
      <use x="55.712891" xlink:href="#DejaVuSans-97"/>
      <use x="116.992188" xlink:href="#DejaVuSans-121"/>
      <use x="176.171875" xlink:href="#DejaVuSans-101"/>
      <use x="237.695312" xlink:href="#DejaVuSans-114"/>
     </g>
    </g>
   </g>
   <g id="matplotlib.axis_4">
    <g id="ytick_4">
     <g id="line2d_12">
      <path clip-path="url(#p62d1c0e7e9)" d="M 95.34 355.184435 
L 283.530214 355.184435 
" style="fill:none;stroke:#cccccc;stroke-linecap:round;stroke-width:1.5;"/>
     </g>
     <g id="text_9">
      <!-- 0 -->
      <g style="fill:#262626;" transform="translate(72.341875 361.453146)scale(0.165 -0.165)">
       <use xlink:href="#DejaVuSans-48"/>
      </g>
     </g>
    </g>
    <g id="ytick_5">
     <g id="line2d_13">
      <path clip-path="url(#p62d1c0e7e9)" d="M 95.34 281.865462 
L 283.530214 281.865462 
" style="fill:none;stroke:#cccccc;stroke-linecap:round;stroke-width:1.5;"/>
     </g>
     <g id="text_10">
      <!-- 500 -->
      <g style="fill:#262626;" transform="translate(51.345625 288.134173)scale(0.165 -0.165)">
       <use xlink:href="#DejaVuSans-53"/>
       <use x="63.623047" xlink:href="#DejaVuSans-48"/>
       <use x="127.246094" xlink:href="#DejaVuSans-48"/>
      </g>
     </g>
    </g>
    <g id="ytick_6">
     <g id="line2d_14">
      <path clip-path="url(#p62d1c0e7e9)" d="M 95.34 208.546489 
L 283.530214 208.546489 
" style="fill:none;stroke:#cccccc;stroke-linecap:round;stroke-width:1.5;"/>
     </g>
     <g id="text_11">
      <!-- 1000 -->
      <g style="fill:#262626;" transform="translate(40.8475 214.8152)scale(0.165 -0.165)">
       <use xlink:href="#DejaVuSans-49"/>
       <use x="63.623047" xlink:href="#DejaVuSans-48"/>
       <use x="127.246094" xlink:href="#DejaVuSans-48"/>
       <use x="190.869141" xlink:href="#DejaVuSans-48"/>
      </g>
     </g>
    </g>
    <g id="text_12">
     <!-- Effect -->
     <g style="fill:#262626;" transform="translate(33.104063 310.654026)rotate(-90)scale(0.18 -0.18)">
      <use xlink:href="#DejaVuSans-69"/>
      <use x="63.183594" xlink:href="#DejaVuSans-102"/>
      <use x="98.388672" xlink:href="#DejaVuSans-102"/>
      <use x="133.59375" xlink:href="#DejaVuSans-101"/>
      <use x="195.117188" xlink:href="#DejaVuSans-99"/>
      <use x="250.097656" xlink:href="#DejaVuSans-116"/>
     </g>
    </g>
   </g>
   <g id="PolyCollection_5">
    <defs>
     <path d="M 103.894101 -76.835519 
L 103.894101 -76.834923 
L 108.646379 -76.834926 
L 113.398657 -76.834933 
L 118.150935 -76.834941 
L 122.903213 -76.834939 
L 127.655491 -76.834944 
L 132.407769 -76.83493 
L 137.160048 -76.834947 
L 141.912326 -76.834955 
L 146.664604 -76.834947 
L 151.416882 -76.834936 
L 156.16916 -76.834949 
L 160.921438 -76.834932 
L 165.673716 -76.834952 
L 170.425994 -76.834944 
L 175.178273 -76.834947 
L 179.930551 -76.834948 
L 184.682829 -76.834932 
L 189.435107 -76.834926 
L 194.187385 -76.834938 
L 198.939663 -76.834932 
L 203.691941 -76.834918 
L 208.44422 -76.834937 
L 213.196498 -76.834942 
L 217.948776 -76.834925 
L 217.948776 -76.835547 
L 217.948776 -76.835547 
L 213.196498 -76.835543 
L 208.44422 -76.835526 
L 203.691941 -76.835536 
L 198.939663 -76.835545 
L 194.187385 -76.835527 
L 189.435107 -76.835551 
L 184.682829 -76.835546 
L 179.930551 -76.835527 
L 175.178273 -76.835533 
L 170.425994 -76.835539 
L 165.673716 -76.835538 
L 160.921438 -76.835525 
L 156.16916 -76.835538 
L 151.416882 -76.835518 
L 146.664604 -76.835547 
L 141.912326 -76.835543 
L 137.160048 -76.835532 
L 132.407769 -76.835556 
L 127.655491 -76.835544 
L 122.903213 -76.835549 
L 118.150935 -76.835548 
L 113.398657 -76.835556 
L 108.646379 -76.835524 
L 103.894101 -76.835519 
z
" id="mfbdbb7257a" style="stroke:#1f77b4;stroke-opacity:0.2;stroke-width:1.5;"/>
    </defs>
    <g clip-path="url(#p62d1c0e7e9)">
     <use style="fill:#1f77b4;fill-opacity:0.2;stroke:#1f77b4;stroke-opacity:0.2;stroke-width:1.5;" x="0" xlink:href="#mfbdbb7257a" y="432"/>
    </g>
   </g>
   <g id="line2d_15">
    <path clip-path="url(#p62d1c0e7e9)" d="M 103.894101 355.164777 
L 108.646379 355.164765 
L 113.398657 355.16476 
L 118.150935 355.16476 
L 122.903213 355.164759 
L 127.655491 355.164759 
L 132.407769 355.164759 
L 137.160048 355.164759 
L 141.912326 355.164758 
L 146.664604 355.164758 
L 151.416882 355.164758 
L 156.16916 355.164759 
L 160.921438 355.164758 
L 165.673716 355.164758 
L 170.425994 355.164758 
L 175.178273 355.164758 
L 179.930551 355.164758 
L 184.682829 355.164758 
L 189.435107 355.164758 
L 194.187385 355.164758 
L 198.939663 355.164758 
L 203.691941 355.164758 
L 208.44422 355.164758 
L 213.196498 355.164758 
L 217.948776 355.164758 
" style="fill:none;stroke:#1f77b4;stroke-linecap:round;stroke-width:2.25;"/>
   </g>
   <g id="patch_7">
    <path d="M 95.34 362.22 
L 95.34 207.011802 
" style="fill:none;stroke:#cccccc;stroke-linecap:square;stroke-linejoin:miter;stroke-width:1.875;"/>
   </g>
   <g id="patch_8">
    <path d="M 95.34 362.22 
L 283.530214 362.22 
" style="fill:none;stroke:#cccccc;stroke-linecap:square;stroke-linejoin:miter;stroke-width:1.875;"/>
   </g>
   <g id="text_13">
    <g id="patch_9">
     <path d="M 283.334018 209.517932 
L 283.334018 359.71387 
L 308.674643 359.71387 
L 308.674643 209.517932 
z
" style="fill:#ffffff;stroke:#ffffff;stroke-linejoin:miter;stroke-width:1.5;"/>
    </g>
    <!-- Random = True -->
    <defs>
     <path d="M -0.296875 72.90625 
L 61.375 72.90625 
L 61.375 64.59375 
L 35.5 64.59375 
L 35.5 0 
L 25.59375 0 
L 25.59375 64.59375 
L -0.296875 64.59375 
z
" id="DejaVuSans-84"/>
     <path d="M 8.5 21.578125 
L 8.5 54.6875 
L 17.484375 54.6875 
L 17.484375 21.921875 
Q 17.484375 14.15625 20.5 10.265625 
Q 23.53125 6.390625 29.59375 6.390625 
Q 36.859375 6.390625 41.078125 11.03125 
Q 45.3125 15.671875 45.3125 23.6875 
L 45.3125 54.6875 
L 54.296875 54.6875 
L 54.296875 0 
L 45.3125 0 
L 45.3125 8.40625 
Q 42.046875 3.421875 37.71875 1 
Q 33.40625 -1.421875 27.6875 -1.421875 
Q 18.265625 -1.421875 13.375 4.4375 
Q 8.5 10.296875 8.5 21.578125 
z
M 31.109375 56 
z
" id="DejaVuSans-117"/>
    </defs>
    <g style="fill:#262626;" transform="translate(291.037456 213.477932)rotate(-270)scale(0.18 -0.18)">
     <use xlink:href="#DejaVuSans-82"/>
     <use x="69.451172" xlink:href="#DejaVuSans-97"/>
     <use x="130.730469" xlink:href="#DejaVuSans-110"/>
     <use x="194.109375" xlink:href="#DejaVuSans-100"/>
     <use x="257.585938" xlink:href="#DejaVuSans-111"/>
     <use x="318.767578" xlink:href="#DejaVuSans-109"/>
     <use x="416.179688" xlink:href="#DejaVuSans-32"/>
     <use x="447.966797" xlink:href="#DejaVuSans-61"/>
     <use x="531.755859" xlink:href="#DejaVuSans-32"/>
     <use x="563.542969" xlink:href="#DejaVuSans-84"/>
     <use x="624.408203" xlink:href="#DejaVuSans-114"/>
     <use x="665.521484" xlink:href="#DejaVuSans-117"/>
     <use x="728.900391" xlink:href="#DejaVuSans-101"/>
    </g>
   </g>
  </g>
 </g>
 <defs>
  <clipPath id="p1b9c5c62cc">
   <rect height="155.208198" width="188.190214" x="95.34" y="24.383574"/>
  </clipPath>
  <clipPath id="p62d1c0e7e9">
   <rect height="155.208198" width="188.190214" x="95.34" y="207.011802"/>
  </clipPath>
 </defs>
</svg>
