<?xml version="1.0" encoding="utf-8" standalone="no"?>
<!DOCTYPE svg PUBLIC "-//W3C//DTD SVG 1.1//EN"
  "http://www.w3.org/Graphics/SVG/1.1/DTD/svg11.dtd">
<!-- Created with matplotlib (https://matplotlib.org/) -->
<svg height="432pt" version="1.1" viewBox="0 0 324 432" width="324pt" xmlns="http://www.w3.org/2000/svg" xmlns:xlink="http://www.w3.org/1999/xlink">
 <defs>
  <style type="text/css">
*{stroke-linecap:butt;stroke-linejoin:round;}
  </style>
 </defs>
 <g id="figure_1">
  <g id="patch_1">
   <path d="M 0 432 
L 324 432 
L 324 0 
L 0 0 
z
" style="fill:#ffffff;"/>
  </g>
  <g id="axes_1">
   <g id="patch_2">
    <path d="M 95.34 179.711155 
L 283.530214 179.711155 
L 283.530214 19.44 
L 95.34 19.44 
z
" style="fill:#ffffff;"/>
   </g>
   <g id="matplotlib.axis_1">
    <g id="xtick_1">
     <g id="line2d_1">
      <path clip-path="url(#pcd6c0859fd)" d="M 103.894101 179.711155 
L 103.894101 19.44 
" style="fill:none;stroke:#cccccc;stroke-linecap:round;stroke-width:1.5;"/>
     </g>
    </g>
    <g id="xtick_2">
     <g id="line2d_2">
      <path clip-path="url(#pcd6c0859fd)" d="M 198.939663 179.711155 
L 198.939663 19.44 
" style="fill:none;stroke:#cccccc;stroke-linecap:round;stroke-width:1.5;"/>
     </g>
    </g>
   </g>
   <g id="matplotlib.axis_2">
    <g id="ytick_1">
     <g id="line2d_3">
      <path clip-path="url(#pcd6c0859fd)" d="M 95.34 172.429369 
L 283.530214 172.429369 
" style="fill:none;stroke:#cccccc;stroke-linecap:round;stroke-width:1.5;"/>
     </g>
     <g id="text_1">
      <!-- 0 -->
      <defs>
       <path d="M 31.78125 66.40625 
Q 24.171875 66.40625 20.328125 58.90625 
Q 16.5 51.421875 16.5 36.375 
Q 16.5 21.390625 20.328125 13.890625 
Q 24.171875 6.390625 31.78125 6.390625 
Q 39.453125 6.390625 43.28125 13.890625 
Q 47.125 21.390625 47.125 36.375 
Q 47.125 51.421875 43.28125 58.90625 
Q 39.453125 66.40625 31.78125 66.40625 
z
M 31.78125 74.21875 
Q 44.046875 74.21875 50.515625 64.515625 
Q 56.984375 54.828125 56.984375 36.375 
Q 56.984375 17.96875 50.515625 8.265625 
Q 44.046875 -1.421875 31.78125 -1.421875 
Q 19.53125 -1.421875 13.0625 8.265625 
Q 6.59375 17.96875 6.59375 36.375 
Q 6.59375 54.828125 13.0625 64.515625 
Q 19.53125 74.21875 31.78125 74.21875 
z
" id="DejaVuSans-48"/>
      </defs>
      <g style="fill:#262626;" transform="translate(72.341875 178.69808)scale(0.165 -0.165)">
       <use xlink:href="#DejaVuSans-48"/>
      </g>
     </g>
    </g>
    <g id="ytick_2">
     <g id="line2d_4">
      <path clip-path="url(#pcd6c0859fd)" d="M 95.34 115.85425 
L 283.530214 115.85425 
" style="fill:none;stroke:#cccccc;stroke-linecap:round;stroke-width:1.5;"/>
     </g>
     <g id="text_2">
      <!-- 2000 -->
      <defs>
       <path d="M 19.1875 8.296875 
L 53.609375 8.296875 
L 53.609375 0 
L 7.328125 0 
L 7.328125 8.296875 
Q 12.9375 14.109375 22.625 23.890625 
Q 32.328125 33.6875 34.8125 36.53125 
Q 39.546875 41.84375 41.421875 45.53125 
Q 43.3125 49.21875 43.3125 52.78125 
Q 43.3125 58.59375 39.234375 62.25 
Q 35.15625 65.921875 28.609375 65.921875 
Q 23.96875 65.921875 18.8125 64.3125 
Q 13.671875 62.703125 7.8125 59.421875 
L 7.8125 69.390625 
Q 13.765625 71.78125 18.9375 73 
Q 24.125 74.21875 28.421875 74.21875 
Q 39.75 74.21875 46.484375 68.546875 
Q 53.21875 62.890625 53.21875 53.421875 
Q 53.21875 48.921875 51.53125 44.890625 
Q 49.859375 40.875 45.40625 35.40625 
Q 44.1875 33.984375 37.640625 27.21875 
Q 31.109375 20.453125 19.1875 8.296875 
z
" id="DejaVuSans-50"/>
      </defs>
      <g style="fill:#262626;" transform="translate(40.8475 122.122961)scale(0.165 -0.165)">
       <use xlink:href="#DejaVuSans-50"/>
       <use x="63.623047" xlink:href="#DejaVuSans-48"/>
       <use x="127.246094" xlink:href="#DejaVuSans-48"/>
       <use x="190.869141" xlink:href="#DejaVuSans-48"/>
      </g>
     </g>
    </g>
    <g id="ytick_3">
     <g id="line2d_5">
      <path clip-path="url(#pcd6c0859fd)" d="M 95.34 59.279131 
L 283.530214 59.279131 
" style="fill:none;stroke:#cccccc;stroke-linecap:round;stroke-width:1.5;"/>
     </g>
     <g id="text_3">
      <!-- 4000 -->
      <defs>
       <path d="M 37.796875 64.3125 
L 12.890625 25.390625 
L 37.796875 25.390625 
z
M 35.203125 72.90625 
L 47.609375 72.90625 
L 47.609375 25.390625 
L 58.015625 25.390625 
L 58.015625 17.1875 
L 47.609375 17.1875 
L 47.609375 0 
L 37.796875 0 
L 37.796875 17.1875 
L 4.890625 17.1875 
L 4.890625 26.703125 
z
" id="DejaVuSans-52"/>
      </defs>
      <g style="fill:#262626;" transform="translate(40.8475 65.547842)scale(0.165 -0.165)">
       <use xlink:href="#DejaVuSans-52"/>
       <use x="63.623047" xlink:href="#DejaVuSans-48"/>
       <use x="127.246094" xlink:href="#DejaVuSans-48"/>
       <use x="190.869141" xlink:href="#DejaVuSans-48"/>
      </g>
     </g>
    </g>
    <g id="text_4">
     <!-- Effect -->
     <defs>
      <path d="M 9.8125 72.90625 
L 55.90625 72.90625 
L 55.90625 64.59375 
L 19.671875 64.59375 
L 19.671875 43.015625 
L 54.390625 43.015625 
L 54.390625 34.71875 
L 19.671875 34.71875 
L 19.671875 8.296875 
L 56.78125 8.296875 
L 56.78125 0 
L 9.8125 0 
z
" id="DejaVuSans-69"/>
      <path d="M 37.109375 75.984375 
L 37.109375 68.5 
L 28.515625 68.5 
Q 23.6875 68.5 21.796875 66.546875 
Q 19.921875 64.59375 19.921875 59.515625 
L 19.921875 54.6875 
L 34.71875 54.6875 
L 34.71875 47.703125 
L 19.921875 47.703125 
L 19.921875 0 
L 10.890625 0 
L 10.890625 47.703125 
L 2.296875 47.703125 
L 2.296875 54.6875 
L 10.890625 54.6875 
L 10.890625 58.5 
Q 10.890625 67.625 15.140625 71.796875 
Q 19.390625 75.984375 28.609375 75.984375 
z
" id="DejaVuSans-102"/>
      <path d="M 56.203125 29.59375 
L 56.203125 25.203125 
L 14.890625 25.203125 
Q 15.484375 15.921875 20.484375 11.0625 
Q 25.484375 6.203125 34.421875 6.203125 
Q 39.59375 6.203125 44.453125 7.46875 
Q 49.3125 8.734375 54.109375 11.28125 
L 54.109375 2.78125 
Q 49.265625 0.734375 44.1875 -0.34375 
Q 39.109375 -1.421875 33.890625 -1.421875 
Q 20.796875 -1.421875 13.15625 6.1875 
Q 5.515625 13.8125 5.515625 26.8125 
Q 5.515625 40.234375 12.765625 48.109375 
Q 20.015625 56 32.328125 56 
Q 43.359375 56 49.78125 48.890625 
Q 56.203125 41.796875 56.203125 29.59375 
z
M 47.21875 32.234375 
Q 47.125 39.59375 43.09375 43.984375 
Q 39.0625 48.390625 32.421875 48.390625 
Q 24.90625 48.390625 20.390625 44.140625 
Q 15.875 39.890625 15.1875 32.171875 
z
" id="DejaVuSans-101"/>
      <path d="M 48.78125 52.59375 
L 48.78125 44.1875 
Q 44.96875 46.296875 41.140625 47.34375 
Q 37.3125 48.390625 33.40625 48.390625 
Q 24.65625 48.390625 19.8125 42.84375 
Q 14.984375 37.3125 14.984375 27.296875 
Q 14.984375 17.28125 19.8125 11.734375 
Q 24.65625 6.203125 33.40625 6.203125 
Q 37.3125 6.203125 41.140625 7.25 
Q 44.96875 8.296875 48.78125 10.40625 
L 48.78125 2.09375 
Q 45.015625 0.34375 40.984375 -0.53125 
Q 36.96875 -1.421875 32.421875 -1.421875 
Q 20.0625 -1.421875 12.78125 6.34375 
Q 5.515625 14.109375 5.515625 27.296875 
Q 5.515625 40.671875 12.859375 48.328125 
Q 20.21875 56 33.015625 56 
Q 37.15625 56 41.109375 55.140625 
Q 45.0625 54.296875 48.78125 52.59375 
z
" id="DejaVuSans-99"/>
      <path d="M 18.3125 70.21875 
L 18.3125 54.6875 
L 36.8125 54.6875 
L 36.8125 47.703125 
L 18.3125 47.703125 
L 18.3125 18.015625 
Q 18.3125 11.328125 20.140625 9.421875 
Q 21.96875 7.515625 27.59375 7.515625 
L 36.8125 7.515625 
L 36.8125 0 
L 27.59375 0 
Q 17.1875 0 13.234375 3.875 
Q 9.28125 7.765625 9.28125 18.015625 
L 9.28125 47.703125 
L 2.6875 47.703125 
L 2.6875 54.6875 
L 9.28125 54.6875 
L 9.28125 70.21875 
z
" id="DejaVuSans-116"/>
     </defs>
     <g style="fill:#262626;" transform="translate(33.104063 125.613703)rotate(-90)scale(0.18 -0.18)">
      <use xlink:href="#DejaVuSans-69"/>
      <use x="63.183594" xlink:href="#DejaVuSans-102"/>
      <use x="98.388672" xlink:href="#DejaVuSans-102"/>
      <use x="133.59375" xlink:href="#DejaVuSans-101"/>
      <use x="195.117188" xlink:href="#DejaVuSans-99"/>
      <use x="250.097656" xlink:href="#DejaVuSans-116"/>
     </g>
    </g>
   </g>
   <g id="PolyCollection_1">
    <defs>
     <path d="M 103.894101 -295.285117 
L 103.894101 -295.011499 
L 108.646379 -294.988987 
L 113.398657 -294.97797 
L 118.150935 -294.989999 
L 122.903213 -294.995465 
L 127.655491 -294.973284 
L 132.407769 -294.902229 
L 132.407769 -295.180845 
L 132.407769 -295.180845 
L 127.655491 -295.234507 
L 122.903213 -295.277465 
L 118.150935 -295.274431 
L 113.398657 -295.257677 
L 108.646379 -295.284551 
L 103.894101 -295.285117 
z
" id="maf9b811c48" style="stroke:#1f77b4;stroke-opacity:0.2;stroke-width:1.5;"/>
    </defs>
    <g clip-path="url(#pcd6c0859fd)">
     <use style="fill:#1f77b4;fill-opacity:0.2;stroke:#1f77b4;stroke-opacity:0.2;stroke-width:1.5;" x="0" xlink:href="#maf9b811c48" y="432"/>
    </g>
   </g>
   <g id="PolyCollection_2">
    <defs>
     <path d="M 103.894101 -328.989142 
L 103.894101 -328.59026 
L 108.646379 -328.585307 
L 113.398657 -328.610589 
L 118.150935 -328.608866 
L 122.903213 -328.599698 
L 127.655491 -328.609423 
L 132.407769 -328.600073 
L 137.160048 -328.593082 
L 141.912326 -328.59071 
L 146.664604 -328.606442 
L 151.416882 -328.58561 
L 156.16916 -328.602622 
L 160.921438 -328.613241 
L 165.673716 -328.603934 
L 170.425994 -328.603416 
L 175.178273 -328.588592 
L 179.930551 -328.590818 
L 184.682829 -328.597479 
L 189.435107 -328.594799 
L 194.187385 -328.59704 
L 198.939663 -328.578741 
L 203.691941 -328.588068 
L 208.44422 -328.587643 
L 213.196498 -328.597097 
L 217.948776 -328.587618 
L 222.701054 -328.575633 
L 227.453332 -328.602995 
L 232.20561 -328.578609 
L 236.957888 -328.58279 
L 241.710166 -328.5577 
L 246.462445 -328.572941 
L 251.214723 -328.551047 
L 255.967001 -328.549742 
L 260.719279 -328.539207 
L 265.471557 -328.563775 
L 270.223835 -328.550367 
L 274.976113 -328.568044 
L 274.976113 -328.956505 
L 274.976113 -328.956505 
L 270.223835 -328.95816 
L 265.471557 -328.963233 
L 260.719279 -328.934414 
L 255.967001 -328.950615 
L 251.214723 -328.947036 
L 246.462445 -328.951505 
L 241.710166 -328.964863 
L 236.957888 -328.975852 
L 232.20561 -328.984262 
L 227.453332 -328.979622 
L 222.701054 -328.986863 
L 217.948776 -328.978537 
L 213.196498 -328.990358 
L 208.44422 -328.971931 
L 203.691941 -328.993161 
L 198.939663 -328.983275 
L 194.187385 -328.99342 
L 189.435107 -328.986676 
L 184.682829 -328.979959 
L 179.930551 -328.994201 
L 175.178273 -328.987259 
L 170.425994 -328.994597 
L 165.673716 -328.992093 
L 160.921438 -328.983276 
L 156.16916 -328.978473 
L 151.416882 -328.979425 
L 146.664604 -328.981066 
L 141.912326 -328.985915 
L 137.160048 -328.975334 
L 132.407769 -328.993027 
L 127.655491 -328.981798 
L 122.903213 -328.996239 
L 118.150935 -328.99457 
L 113.398657 -329.006513 
L 108.646379 -328.989397 
L 103.894101 -328.989142 
z
" id="mca1f87c521" style="stroke:#ff7f0e;stroke-opacity:0.2;stroke-width:1.5;"/>
    </defs>
    <g clip-path="url(#pcd6c0859fd)">
     <use style="fill:#ff7f0e;fill-opacity:0.2;stroke:#ff7f0e;stroke-opacity:0.2;stroke-width:1.5;" x="0" xlink:href="#mca1f87c521" y="432"/>
    </g>
   </g>
   <g id="PolyCollection_3">
    <defs>
     <path d="M 103.894101 -395.010901 
L 103.894101 -394.064857 
L 108.646379 -394.040642 
L 113.398657 -394.032178 
L 118.150935 -394.052646 
L 122.903213 -394.040081 
L 127.655491 -394.060485 
L 132.407769 -394.019654 
L 137.160048 -394.008556 
L 141.912326 -394.041519 
L 146.664604 -394.024118 
L 151.416882 -394.012723 
L 156.16916 -394.062235 
L 160.921438 -394.002663 
L 165.673716 -393.977264 
L 170.425994 -394.030586 
L 175.178273 -394.018579 
L 179.930551 -393.983437 
L 184.682829 -393.950463 
L 189.435107 -393.986066 
L 194.187385 -393.910066 
L 198.939663 -393.99076 
L 203.691941 -393.952008 
L 208.44422 -393.93177 
L 213.196498 -393.837872 
L 217.948776 -393.818898 
L 217.948776 -394.80732 
L 217.948776 -394.80732 
L 213.196498 -394.803472 
L 208.44422 -394.941499 
L 203.691941 -394.873448 
L 198.939663 -394.920336 
L 194.187385 -394.923168 
L 189.435107 -395.005852 
L 184.682829 -394.980503 
L 179.930551 -394.95813 
L 175.178273 -395.00984 
L 170.425994 -395.007716 
L 165.673716 -394.968381 
L 160.921438 -394.974977 
L 156.16916 -394.993759 
L 151.416882 -395.039457 
L 146.664604 -395.026847 
L 141.912326 -395.016534 
L 137.160048 -395.010566 
L 132.407769 -394.997519 
L 127.655491 -394.980089 
L 122.903213 -395.018345 
L 118.150935 -394.986426 
L 113.398657 -395.033206 
L 108.646379 -395.038197 
L 103.894101 -395.010901 
z
" id="m953c9d372b" style="stroke:#2ca02c;stroke-opacity:0.2;stroke-width:1.5;"/>
    </defs>
    <g clip-path="url(#pcd6c0859fd)">
     <use style="fill:#2ca02c;fill-opacity:0.2;stroke:#2ca02c;stroke-opacity:0.2;stroke-width:1.5;" x="0" xlink:href="#m953c9d372b" y="432"/>
    </g>
   </g>
   <g id="PolyCollection_4">
    <defs>
     <path d="M 103.894101 -405.274947 
L 103.894101 -403.731861 
L 108.646379 -403.709426 
L 113.398657 -403.699512 
L 118.150935 -403.729297 
L 122.903213 -403.700582 
L 127.655491 -403.728269 
L 132.407769 -403.690576 
L 137.160048 -403.66823 
L 141.912326 -403.641093 
L 146.664604 -403.593245 
L 151.416882 -403.446988 
L 156.16916 -403.396093 
L 160.921438 -403.135475 
L 160.921438 -404.665336 
L 160.921438 -404.665336 
L 156.16916 -404.938882 
L 151.416882 -404.901976 
L 146.664604 -405.111405 
L 141.912326 -405.163835 
L 137.160048 -405.164752 
L 132.407769 -405.191481 
L 127.655491 -405.180855 
L 122.903213 -405.148461 
L 118.150935 -405.183291 
L 113.398657 -405.250832 
L 108.646379 -405.23365 
L 103.894101 -405.274947 
z
" id="m5290169c6e" style="stroke:#d62728;stroke-opacity:0.2;stroke-width:1.5;"/>
    </defs>
    <g clip-path="url(#pcd6c0859fd)">
     <use style="fill:#d62728;fill-opacity:0.2;stroke:#d62728;stroke-opacity:0.2;stroke-width:1.5;" x="0" xlink:href="#m5290169c6e" y="432"/>
    </g>
   </g>
   <g id="line2d_6">
    <path clip-path="url(#pcd6c0859fd)" d="M 103.894101 136.857887 
L 108.646379 136.862342 
L 113.398657 136.877689 
L 118.150935 136.862504 
L 122.903213 136.865602 
L 127.655491 136.890813 
L 132.407769 136.953599 
" style="fill:none;stroke:#1f77b4;stroke-linecap:round;stroke-width:2.25;"/>
   </g>
   <g id="line2d_7">
    <path clip-path="url(#pcd6c0859fd)" d="M 103.894101 103.208228 
L 108.646379 103.208576 
L 113.398657 103.204086 
L 118.150935 103.203792 
L 122.903213 103.205365 
L 127.655491 103.204422 
L 132.407769 103.203071 
L 137.160048 103.205825 
L 141.912326 103.208358 
L 146.664604 103.207591 
L 151.416882 103.21114 
L 156.16916 103.206985 
L 160.921438 103.207144 
L 165.673716 103.207384 
L 170.425994 103.204766 
L 175.178273 103.207377 
L 179.930551 103.202336 
L 184.682829 103.208231 
L 189.435107 103.208171 
L 194.187385 103.207548 
L 198.939663 103.212487 
L 203.691941 103.20695 
L 208.44422 103.220491 
L 213.196498 103.205953 
L 217.948776 103.216109 
L 222.701054 103.214455 
L 227.453332 103.220343 
L 232.20561 103.218659 
L 236.957888 103.22629 
L 241.710166 103.235416 
L 246.462445 103.227549 
L 251.214723 103.246082 
L 255.967001 103.244853 
L 260.719279 103.25183 
L 265.471557 103.240858 
L 270.223835 103.244366 
L 274.976113 103.244282 
" style="fill:none;stroke:#ff7f0e;stroke-linecap:round;stroke-width:2.25;"/>
   </g>
   <g id="line2d_8">
    <path clip-path="url(#pcd6c0859fd)" d="M 103.894101 37.483443 
L 108.646379 37.473964 
L 113.398657 37.471648 
L 118.150935 37.481479 
L 122.903213 37.477903 
L 127.655491 37.486406 
L 132.407769 37.491481 
L 137.160048 37.486837 
L 141.912326 37.481301 
L 146.664604 37.482429 
L 151.416882 37.478126 
L 156.16916 37.475529 
L 160.921438 37.482512 
L 165.673716 37.505774 
L 170.425994 37.492546 
L 175.178273 37.495908 
L 179.930551 37.510536 
L 184.682829 37.520573 
L 189.435107 37.510742 
L 194.187385 37.569733 
L 198.939663 37.550089 
L 203.691941 37.580792 
L 208.44422 37.592587 
L 213.196498 37.676961 
L 217.948776 37.67224 
" style="fill:none;stroke:#2ca02c;stroke-linecap:round;stroke-width:2.25;"/>
   </g>
   <g id="line2d_9">
    <path clip-path="url(#pcd6c0859fd)" d="M 103.894101 27.483559 
L 108.646379 27.530503 
L 113.398657 27.526377 
L 118.150935 27.56768 
L 122.903213 27.548419 
L 127.655491 27.542968 
L 132.407769 27.531371 
L 137.160048 27.580993 
L 141.912326 27.592541 
L 146.664604 27.629405 
L 151.416882 27.787407 
L 156.16916 27.800007 
L 160.921438 28.087731 
" style="fill:none;stroke:#d62728;stroke-linecap:round;stroke-width:2.25;"/>
   </g>
   <g id="patch_3">
    <path d="M 95.34 179.711155 
L 95.34 19.44 
" style="fill:none;stroke:#cccccc;stroke-linecap:square;stroke-linejoin:miter;stroke-width:1.875;"/>
   </g>
   <g id="patch_4">
    <path d="M 95.34 179.711155 
L 283.530214 179.711155 
" style="fill:none;stroke:#cccccc;stroke-linecap:square;stroke-linejoin:miter;stroke-width:1.875;"/>
   </g>
   <g id="text_5">
    <g id="patch_5">
     <path d="M 283.334018 21.490734 
L 283.334018 177.660421 
L 308.674643 177.660421 
L 308.674643 21.490734 
z
" style="fill:#ffffff;stroke:#ffffff;stroke-linejoin:miter;stroke-width:1.5;"/>
    </g>
    <!-- Random = False -->
    <defs>
     <path d="M 44.390625 34.1875 
Q 47.5625 33.109375 50.5625 29.59375 
Q 53.5625 26.078125 56.59375 19.921875 
L 66.609375 0 
L 56 0 
L 46.6875 18.703125 
Q 43.0625 26.03125 39.671875 28.421875 
Q 36.28125 30.8125 30.421875 30.8125 
L 19.671875 30.8125 
L 19.671875 0 
L 9.8125 0 
L 9.8125 72.90625 
L 32.078125 72.90625 
Q 44.578125 72.90625 50.734375 67.671875 
Q 56.890625 62.453125 56.890625 51.90625 
Q 56.890625 45.015625 53.6875 40.46875 
Q 50.484375 35.9375 44.390625 34.1875 
z
M 19.671875 64.796875 
L 19.671875 38.921875 
L 32.078125 38.921875 
Q 39.203125 38.921875 42.84375 42.21875 
Q 46.484375 45.515625 46.484375 51.90625 
Q 46.484375 58.296875 42.84375 61.546875 
Q 39.203125 64.796875 32.078125 64.796875 
z
" id="DejaVuSans-82"/>
     <path d="M 34.28125 27.484375 
Q 23.390625 27.484375 19.1875 25 
Q 14.984375 22.515625 14.984375 16.5 
Q 14.984375 11.71875 18.140625 8.90625 
Q 21.296875 6.109375 26.703125 6.109375 
Q 34.1875 6.109375 38.703125 11.40625 
Q 43.21875 16.703125 43.21875 25.484375 
L 43.21875 27.484375 
z
M 52.203125 31.203125 
L 52.203125 0 
L 43.21875 0 
L 43.21875 8.296875 
Q 40.140625 3.328125 35.546875 0.953125 
Q 30.953125 -1.421875 24.3125 -1.421875 
Q 15.921875 -1.421875 10.953125 3.296875 
Q 6 8.015625 6 15.921875 
Q 6 25.140625 12.171875 29.828125 
Q 18.359375 34.515625 30.609375 34.515625 
L 43.21875 34.515625 
L 43.21875 35.40625 
Q 43.21875 41.609375 39.140625 45 
Q 35.0625 48.390625 27.6875 48.390625 
Q 23 48.390625 18.546875 47.265625 
Q 14.109375 46.140625 10.015625 43.890625 
L 10.015625 52.203125 
Q 14.9375 54.109375 19.578125 55.046875 
Q 24.21875 56 28.609375 56 
Q 40.484375 56 46.34375 49.84375 
Q 52.203125 43.703125 52.203125 31.203125 
z
" id="DejaVuSans-97"/>
     <path d="M 54.890625 33.015625 
L 54.890625 0 
L 45.90625 0 
L 45.90625 32.71875 
Q 45.90625 40.484375 42.875 44.328125 
Q 39.84375 48.1875 33.796875 48.1875 
Q 26.515625 48.1875 22.3125 43.546875 
Q 18.109375 38.921875 18.109375 30.90625 
L 18.109375 0 
L 9.078125 0 
L 9.078125 54.6875 
L 18.109375 54.6875 
L 18.109375 46.1875 
Q 21.34375 51.125 25.703125 53.5625 
Q 30.078125 56 35.796875 56 
Q 45.21875 56 50.046875 50.171875 
Q 54.890625 44.34375 54.890625 33.015625 
z
" id="DejaVuSans-110"/>
     <path d="M 45.40625 46.390625 
L 45.40625 75.984375 
L 54.390625 75.984375 
L 54.390625 0 
L 45.40625 0 
L 45.40625 8.203125 
Q 42.578125 3.328125 38.25 0.953125 
Q 33.9375 -1.421875 27.875 -1.421875 
Q 17.96875 -1.421875 11.734375 6.484375 
Q 5.515625 14.40625 5.515625 27.296875 
Q 5.515625 40.1875 11.734375 48.09375 
Q 17.96875 56 27.875 56 
Q 33.9375 56 38.25 53.625 
Q 42.578125 51.265625 45.40625 46.390625 
z
M 14.796875 27.296875 
Q 14.796875 17.390625 18.875 11.75 
Q 22.953125 6.109375 30.078125 6.109375 
Q 37.203125 6.109375 41.296875 11.75 
Q 45.40625 17.390625 45.40625 27.296875 
Q 45.40625 37.203125 41.296875 42.84375 
Q 37.203125 48.484375 30.078125 48.484375 
Q 22.953125 48.484375 18.875 42.84375 
Q 14.796875 37.203125 14.796875 27.296875 
z
" id="DejaVuSans-100"/>
     <path d="M 30.609375 48.390625 
Q 23.390625 48.390625 19.1875 42.75 
Q 14.984375 37.109375 14.984375 27.296875 
Q 14.984375 17.484375 19.15625 11.84375 
Q 23.34375 6.203125 30.609375 6.203125 
Q 37.796875 6.203125 41.984375 11.859375 
Q 46.1875 17.53125 46.1875 27.296875 
Q 46.1875 37.015625 41.984375 42.703125 
Q 37.796875 48.390625 30.609375 48.390625 
z
M 30.609375 56 
Q 42.328125 56 49.015625 48.375 
Q 55.71875 40.765625 55.71875 27.296875 
Q 55.71875 13.875 49.015625 6.21875 
Q 42.328125 -1.421875 30.609375 -1.421875 
Q 18.84375 -1.421875 12.171875 6.21875 
Q 5.515625 13.875 5.515625 27.296875 
Q 5.515625 40.765625 12.171875 48.375 
Q 18.84375 56 30.609375 56 
z
" id="DejaVuSans-111"/>
     <path d="M 52 44.1875 
Q 55.375 50.25 60.0625 53.125 
Q 64.75 56 71.09375 56 
Q 79.640625 56 84.28125 50.015625 
Q 88.921875 44.046875 88.921875 33.015625 
L 88.921875 0 
L 79.890625 0 
L 79.890625 32.71875 
Q 79.890625 40.578125 77.09375 44.375 
Q 74.3125 48.1875 68.609375 48.1875 
Q 61.625 48.1875 57.5625 43.546875 
Q 53.515625 38.921875 53.515625 30.90625 
L 53.515625 0 
L 44.484375 0 
L 44.484375 32.71875 
Q 44.484375 40.625 41.703125 44.40625 
Q 38.921875 48.1875 33.109375 48.1875 
Q 26.21875 48.1875 22.15625 43.53125 
Q 18.109375 38.875 18.109375 30.90625 
L 18.109375 0 
L 9.078125 0 
L 9.078125 54.6875 
L 18.109375 54.6875 
L 18.109375 46.1875 
Q 21.1875 51.21875 25.484375 53.609375 
Q 29.78125 56 35.6875 56 
Q 41.65625 56 45.828125 52.96875 
Q 50 49.953125 52 44.1875 
z
" id="DejaVuSans-109"/>
     <path id="DejaVuSans-32"/>
     <path d="M 10.59375 45.40625 
L 73.1875 45.40625 
L 73.1875 37.203125 
L 10.59375 37.203125 
z
M 10.59375 25.484375 
L 73.1875 25.484375 
L 73.1875 17.1875 
L 10.59375 17.1875 
z
" id="DejaVuSans-61"/>
     <path d="M 9.8125 72.90625 
L 51.703125 72.90625 
L 51.703125 64.59375 
L 19.671875 64.59375 
L 19.671875 43.109375 
L 48.578125 43.109375 
L 48.578125 34.8125 
L 19.671875 34.8125 
L 19.671875 0 
L 9.8125 0 
z
" id="DejaVuSans-70"/>
     <path d="M 9.421875 75.984375 
L 18.40625 75.984375 
L 18.40625 0 
L 9.421875 0 
z
" id="DejaVuSans-108"/>
     <path d="M 44.28125 53.078125 
L 44.28125 44.578125 
Q 40.484375 46.53125 36.375 47.5 
Q 32.28125 48.484375 27.875 48.484375 
Q 21.1875 48.484375 17.84375 46.4375 
Q 14.5 44.390625 14.5 40.28125 
Q 14.5 37.15625 16.890625 35.375 
Q 19.28125 33.59375 26.515625 31.984375 
L 29.59375 31.296875 
Q 39.15625 29.25 43.1875 25.515625 
Q 47.21875 21.78125 47.21875 15.09375 
Q 47.21875 7.46875 41.1875 3.015625 
Q 35.15625 -1.421875 24.609375 -1.421875 
Q 20.21875 -1.421875 15.453125 -0.5625 
Q 10.6875 0.296875 5.421875 2 
L 5.421875 11.28125 
Q 10.40625 8.6875 15.234375 7.390625 
Q 20.0625 6.109375 24.8125 6.109375 
Q 31.15625 6.109375 34.5625 8.28125 
Q 37.984375 10.453125 37.984375 14.40625 
Q 37.984375 18.0625 35.515625 20.015625 
Q 33.0625 21.96875 24.703125 23.78125 
L 21.578125 24.515625 
Q 13.234375 26.265625 9.515625 29.90625 
Q 5.8125 33.546875 5.8125 39.890625 
Q 5.8125 47.609375 11.28125 51.796875 
Q 16.75 56 26.8125 56 
Q 31.78125 56 36.171875 55.265625 
Q 40.578125 54.546875 44.28125 53.078125 
z
" id="DejaVuSans-115"/>
    </defs>
    <g style="fill:#262626;" transform="translate(291.037456 25.450734)rotate(-270)scale(0.18 -0.18)">
     <use xlink:href="#DejaVuSans-82"/>
     <use x="69.451172" xlink:href="#DejaVuSans-97"/>
     <use x="130.730469" xlink:href="#DejaVuSans-110"/>
     <use x="194.109375" xlink:href="#DejaVuSans-100"/>
     <use x="257.585938" xlink:href="#DejaVuSans-111"/>
     <use x="318.767578" xlink:href="#DejaVuSans-109"/>
     <use x="416.179688" xlink:href="#DejaVuSans-32"/>
     <use x="447.966797" xlink:href="#DejaVuSans-61"/>
     <use x="531.755859" xlink:href="#DejaVuSans-32"/>
     <use x="563.542969" xlink:href="#DejaVuSans-70"/>
     <use x="620.921875" xlink:href="#DejaVuSans-97"/>
     <use x="682.201172" xlink:href="#DejaVuSans-108"/>
     <use x="709.984375" xlink:href="#DejaVuSans-115"/>
     <use x="762.083984" xlink:href="#DejaVuSans-101"/>
    </g>
   </g>
  </g>
  <g id="axes_2">
   <g id="patch_6">
    <path d="M 95.34 362.22 
L 283.530214 362.22 
L 283.530214 201.948845 
L 95.34 201.948845 
z
" style="fill:#ffffff;"/>
   </g>
   <g id="matplotlib.axis_3">
    <g id="xtick_3">
     <g id="line2d_10">
      <path clip-path="url(#p1394408c22)" d="M 103.894101 362.22 
L 103.894101 201.948845 
" style="fill:none;stroke:#cccccc;stroke-linecap:round;stroke-width:1.5;"/>
     </g>
     <g id="text_6">
      <!-- 0 -->
      <g style="fill:#262626;" transform="translate(98.645038 387.257422)scale(0.165 -0.165)">
       <use xlink:href="#DejaVuSans-48"/>
      </g>
     </g>
    </g>
    <g id="xtick_4">
     <g id="line2d_11">
      <path clip-path="url(#p1394408c22)" d="M 198.939663 362.22 
L 198.939663 201.948845 
" style="fill:none;stroke:#cccccc;stroke-linecap:round;stroke-width:1.5;"/>
     </g>
     <g id="text_7">
      <!-- 20 -->
      <g style="fill:#262626;" transform="translate(188.441538 387.257422)scale(0.165 -0.165)">
       <use xlink:href="#DejaVuSans-50"/>
       <use x="63.623047" xlink:href="#DejaVuSans-48"/>
      </g>
     </g>
    </g>
    <g id="text_8">
     <!-- Layer -->
     <defs>
      <path d="M 9.8125 72.90625 
L 19.671875 72.90625 
L 19.671875 8.296875 
L 55.171875 8.296875 
L 55.171875 0 
L 9.8125 0 
z
" id="DejaVuSans-76"/>
      <path d="M 32.171875 -5.078125 
Q 28.375 -14.84375 24.75 -17.8125 
Q 21.140625 -20.796875 15.09375 -20.796875 
L 7.90625 -20.796875 
L 7.90625 -13.28125 
L 13.1875 -13.28125 
Q 16.890625 -13.28125 18.9375 -11.515625 
Q 21 -9.765625 23.484375 -3.21875 
L 25.09375 0.875 
L 2.984375 54.6875 
L 12.5 54.6875 
L 29.59375 11.921875 
L 46.6875 54.6875 
L 56.203125 54.6875 
z
" id="DejaVuSans-121"/>
      <path d="M 41.109375 46.296875 
Q 39.59375 47.171875 37.8125 47.578125 
Q 36.03125 48 33.890625 48 
Q 26.265625 48 22.1875 43.046875 
Q 18.109375 38.09375 18.109375 28.8125 
L 18.109375 0 
L 9.078125 0 
L 9.078125 54.6875 
L 18.109375 54.6875 
L 18.109375 46.1875 
Q 20.953125 51.171875 25.484375 53.578125 
Q 30.03125 56 36.53125 56 
Q 37.453125 56 38.578125 55.875 
Q 39.703125 55.765625 41.0625 55.515625 
z
" id="DejaVuSans-114"/>
     </defs>
     <g style="fill:#262626;" transform="translate(164.340576 408.366094)scale(0.18 -0.18)">
      <use xlink:href="#DejaVuSans-76"/>
      <use x="55.712891" xlink:href="#DejaVuSans-97"/>
      <use x="116.992188" xlink:href="#DejaVuSans-121"/>
      <use x="176.171875" xlink:href="#DejaVuSans-101"/>
      <use x="237.695312" xlink:href="#DejaVuSans-114"/>
     </g>
    </g>
   </g>
   <g id="matplotlib.axis_4">
    <g id="ytick_4">
     <g id="line2d_12">
      <path clip-path="url(#p1394408c22)" d="M 95.34 354.938214 
L 283.530214 354.938214 
" style="fill:none;stroke:#cccccc;stroke-linecap:round;stroke-width:1.5;"/>
     </g>
     <g id="text_9">
      <!-- 0 -->
      <g style="fill:#262626;" transform="translate(72.341875 361.206925)scale(0.165 -0.165)">
       <use xlink:href="#DejaVuSans-48"/>
      </g>
     </g>
    </g>
    <g id="ytick_5">
     <g id="line2d_13">
      <path clip-path="url(#p1394408c22)" d="M 95.34 298.363095 
L 283.530214 298.363095 
" style="fill:none;stroke:#cccccc;stroke-linecap:round;stroke-width:1.5;"/>
     </g>
     <g id="text_10">
      <!-- 2000 -->
      <g style="fill:#262626;" transform="translate(40.8475 304.631806)scale(0.165 -0.165)">
       <use xlink:href="#DejaVuSans-50"/>
       <use x="63.623047" xlink:href="#DejaVuSans-48"/>
       <use x="127.246094" xlink:href="#DejaVuSans-48"/>
       <use x="190.869141" xlink:href="#DejaVuSans-48"/>
      </g>
     </g>
    </g>
    <g id="ytick_6">
     <g id="line2d_14">
      <path clip-path="url(#p1394408c22)" d="M 95.34 241.787976 
L 283.530214 241.787976 
" style="fill:none;stroke:#cccccc;stroke-linecap:round;stroke-width:1.5;"/>
     </g>
     <g id="text_11">
      <!-- 4000 -->
      <g style="fill:#262626;" transform="translate(40.8475 248.056687)scale(0.165 -0.165)">
       <use xlink:href="#DejaVuSans-52"/>
       <use x="63.623047" xlink:href="#DejaVuSans-48"/>
       <use x="127.246094" xlink:href="#DejaVuSans-48"/>
       <use x="190.869141" xlink:href="#DejaVuSans-48"/>
      </g>
     </g>
    </g>
    <g id="text_12">
     <!-- Effect -->
     <g style="fill:#262626;" transform="translate(33.104063 308.122547)rotate(-90)scale(0.18 -0.18)">
      <use xlink:href="#DejaVuSans-69"/>
      <use x="63.183594" xlink:href="#DejaVuSans-102"/>
      <use x="98.388672" xlink:href="#DejaVuSans-102"/>
      <use x="133.59375" xlink:href="#DejaVuSans-101"/>
      <use x="195.117188" xlink:href="#DejaVuSans-99"/>
      <use x="250.097656" xlink:href="#DejaVuSans-116"/>
     </g>
    </g>
   </g>
   <g id="PolyCollection_5">
    <defs>
     <path d="M 103.894101 -77.065195 
L 103.894101 -77.065054 
L 108.646379 -77.065055 
L 113.398657 -77.065057 
L 118.150935 -77.065058 
L 122.903213 -77.065059 
L 127.655491 -77.065061 
L 132.407769 -77.065059 
L 137.160048 -77.065054 
L 141.912326 -77.065055 
L 146.664604 -77.065056 
L 151.416882 -77.065059 
L 156.16916 -77.065063 
L 160.921438 -77.065062 
L 165.673716 -77.065062 
L 170.425994 -77.065061 
L 175.178273 -77.065061 
L 179.930551 -77.065056 
L 184.682829 -77.065054 
L 189.435107 -77.06506 
L 194.187385 -77.065053 
L 198.939663 -77.065058 
L 203.691941 -77.065061 
L 208.44422 -77.065058 
L 213.196498 -77.065053 
L 217.948776 -77.065061 
L 217.948776 -77.065199 
L 217.948776 -77.065199 
L 213.196498 -77.065196 
L 208.44422 -77.065192 
L 203.691941 -77.065198 
L 198.939663 -77.065197 
L 194.187385 -77.0652 
L 189.435107 -77.065199 
L 184.682829 -77.065195 
L 179.930551 -77.065196 
L 175.178273 -77.065193 
L 170.425994 -77.065196 
L 165.673716 -77.065191 
L 160.921438 -77.065197 
L 156.16916 -77.065195 
L 151.416882 -77.06519 
L 146.664604 -77.065193 
L 141.912326 -77.065193 
L 137.160048 -77.065195 
L 132.407769 -77.065193 
L 127.655491 -77.065194 
L 122.903213 -77.065199 
L 118.150935 -77.065196 
L 113.398657 -77.065195 
L 108.646379 -77.065192 
L 103.894101 -77.065195 
z
" id="mf0c56469e6" style="stroke:#2ca02c;stroke-opacity:0.2;stroke-width:1.5;"/>
    </defs>
    <g clip-path="url(#p1394408c22)">
     <use style="fill:#2ca02c;fill-opacity:0.2;stroke:#2ca02c;stroke-opacity:0.2;stroke-width:1.5;" x="0" xlink:href="#mf0c56469e6" y="432"/>
    </g>
   </g>
   <g id="line2d_15">
    <path clip-path="url(#p1394408c22)" d="M 103.894101 354.934875 
L 108.646379 354.934875 
L 113.398657 354.934873 
L 118.150935 354.934873 
L 122.903213 354.934874 
L 127.655491 354.934872 
L 132.407769 354.934873 
L 137.160048 354.934873 
L 141.912326 354.934873 
L 146.664604 354.934873 
L 151.416882 354.934872 
L 156.16916 354.934873 
L 160.921438 354.934873 
L 165.673716 354.934872 
L 170.425994 354.934872 
L 175.178273 354.934873 
L 179.930551 354.934872 
L 184.682829 354.934872 
L 189.435107 354.934873 
L 194.187385 354.934872 
L 198.939663 354.934872 
L 203.691941 354.934872 
L 208.44422 354.934872 
L 213.196498 354.934872 
L 217.948776 354.934872 
" style="fill:none;stroke:#2ca02c;stroke-linecap:round;stroke-width:2.25;"/>
   </g>
   <g id="patch_7">
    <path d="M 95.34 362.22 
L 95.34 201.948845 
" style="fill:none;stroke:#cccccc;stroke-linecap:square;stroke-linejoin:miter;stroke-width:1.875;"/>
   </g>
   <g id="patch_8">
    <path d="M 95.34 362.22 
L 283.530214 362.22 
" style="fill:none;stroke:#cccccc;stroke-linecap:square;stroke-linejoin:miter;stroke-width:1.875;"/>
   </g>
   <g id="text_13">
    <g id="patch_9">
     <path d="M 283.334018 206.986454 
L 283.334018 357.182391 
L 308.674643 357.182391 
L 308.674643 206.986454 
z
" style="fill:#ffffff;stroke:#ffffff;stroke-linejoin:miter;stroke-width:1.5;"/>
    </g>
    <!-- Random = True -->
    <defs>
     <path d="M -0.296875 72.90625 
L 61.375 72.90625 
L 61.375 64.59375 
L 35.5 64.59375 
L 35.5 0 
L 25.59375 0 
L 25.59375 64.59375 
L -0.296875 64.59375 
z
" id="DejaVuSans-84"/>
     <path d="M 8.5 21.578125 
L 8.5 54.6875 
L 17.484375 54.6875 
L 17.484375 21.921875 
Q 17.484375 14.15625 20.5 10.265625 
Q 23.53125 6.390625 29.59375 6.390625 
Q 36.859375 6.390625 41.078125 11.03125 
Q 45.3125 15.671875 45.3125 23.6875 
L 45.3125 54.6875 
L 54.296875 54.6875 
L 54.296875 0 
L 45.3125 0 
L 45.3125 8.40625 
Q 42.046875 3.421875 37.71875 1 
Q 33.40625 -1.421875 27.6875 -1.421875 
Q 18.265625 -1.421875 13.375 4.4375 
Q 8.5 10.296875 8.5 21.578125 
z
M 31.109375 56 
z
" id="DejaVuSans-117"/>
    </defs>
    <g style="fill:#262626;" transform="translate(291.037456 210.946454)rotate(-270)scale(0.18 -0.18)">
     <use xlink:href="#DejaVuSans-82"/>
     <use x="69.451172" xlink:href="#DejaVuSans-97"/>
     <use x="130.730469" xlink:href="#DejaVuSans-110"/>
     <use x="194.109375" xlink:href="#DejaVuSans-100"/>
     <use x="257.585938" xlink:href="#DejaVuSans-111"/>
     <use x="318.767578" xlink:href="#DejaVuSans-109"/>
     <use x="416.179688" xlink:href="#DejaVuSans-32"/>
     <use x="447.966797" xlink:href="#DejaVuSans-61"/>
     <use x="531.755859" xlink:href="#DejaVuSans-32"/>
     <use x="563.542969" xlink:href="#DejaVuSans-84"/>
     <use x="624.408203" xlink:href="#DejaVuSans-114"/>
     <use x="665.521484" xlink:href="#DejaVuSans-117"/>
     <use x="728.900391" xlink:href="#DejaVuSans-101"/>
    </g>
   </g>
  </g>
 </g>
 <defs>
  <clipPath id="pcd6c0859fd">
   <rect height="160.271155" width="188.190214" x="95.34" y="19.44"/>
  </clipPath>
  <clipPath id="p1394408c22">
   <rect height="160.271155" width="188.190214" x="95.34" y="201.948845"/>
  </clipPath>
 </defs>
</svg>
