<?xml version="1.0" encoding="utf-8" standalone="no"?>
<!DOCTYPE svg PUBLIC "-//W3C//DTD SVG 1.1//EN"
  "http://www.w3.org/Graphics/SVG/1.1/DTD/svg11.dtd">
<!-- Created with matplotlib (https://matplotlib.org/) -->
<svg height="432pt" version="1.1" viewBox="0 0 324 432" width="324pt" xmlns="http://www.w3.org/2000/svg" xmlns:xlink="http://www.w3.org/1999/xlink">
 <defs>
  <style type="text/css">
*{stroke-linecap:butt;stroke-linejoin:round;}
  </style>
 </defs>
 <g id="figure_1">
  <g id="patch_1">
   <path d="M 0 432 
L 324 432 
L 324 0 
L 0 0 
z
" style="fill:#ffffff;"/>
  </g>
  <g id="axes_1">
   <g id="patch_2">
    <path d="M 95.34 179.704962 
L 283.530214 179.704962 
L 283.530214 19.44 
L 95.34 19.44 
z
" style="fill:#ffffff;"/>
   </g>
   <g id="matplotlib.axis_1">
    <g id="xtick_1">
     <g id="line2d_1">
      <path clip-path="url(#p3b18b51174)" d="M 103.894101 179.704962 
L 103.894101 19.44 
" style="fill:none;stroke:#cccccc;stroke-linecap:round;stroke-width:1.5;"/>
     </g>
    </g>
    <g id="xtick_2">
     <g id="line2d_2">
      <path clip-path="url(#p3b18b51174)" d="M 198.939663 179.704962 
L 198.939663 19.44 
" style="fill:none;stroke:#cccccc;stroke-linecap:round;stroke-width:1.5;"/>
     </g>
    </g>
   </g>
   <g id="matplotlib.axis_2">
    <g id="ytick_1">
     <g id="line2d_3">
      <path clip-path="url(#p3b18b51174)" d="M 95.34 172.435566 
L 283.530214 172.435566 
" style="fill:none;stroke:#cccccc;stroke-linecap:round;stroke-width:1.5;"/>
     </g>
     <g id="text_1">
      <!-- 0 -->
      <defs>
       <path d="M 31.78125 66.40625 
Q 24.171875 66.40625 20.328125 58.90625 
Q 16.5 51.421875 16.5 36.375 
Q 16.5 21.390625 20.328125 13.890625 
Q 24.171875 6.390625 31.78125 6.390625 
Q 39.453125 6.390625 43.28125 13.890625 
Q 47.125 21.390625 47.125 36.375 
Q 47.125 51.421875 43.28125 58.90625 
Q 39.453125 66.40625 31.78125 66.40625 
z
M 31.78125 74.21875 
Q 44.046875 74.21875 50.515625 64.515625 
Q 56.984375 54.828125 56.984375 36.375 
Q 56.984375 17.96875 50.515625 8.265625 
Q 44.046875 -1.421875 31.78125 -1.421875 
Q 19.53125 -1.421875 13.0625 8.265625 
Q 6.59375 17.96875 6.59375 36.375 
Q 6.59375 54.828125 13.0625 64.515625 
Q 19.53125 74.21875 31.78125 74.21875 
z
" id="DejaVuSans-48"/>
      </defs>
      <g style="fill:#262626;" transform="translate(72.341875 178.704277)scale(0.165 -0.165)">
       <use xlink:href="#DejaVuSans-48"/>
      </g>
     </g>
    </g>
    <g id="ytick_2">
     <g id="line2d_4">
      <path clip-path="url(#p3b18b51174)" d="M 95.34 110.284324 
L 283.530214 110.284324 
" style="fill:none;stroke:#cccccc;stroke-linecap:round;stroke-width:1.5;"/>
     </g>
     <g id="text_2">
      <!-- 500 -->
      <defs>
       <path d="M 10.796875 72.90625 
L 49.515625 72.90625 
L 49.515625 64.59375 
L 19.828125 64.59375 
L 19.828125 46.734375 
Q 21.96875 47.46875 24.109375 47.828125 
Q 26.265625 48.1875 28.421875 48.1875 
Q 40.625 48.1875 47.75 41.5 
Q 54.890625 34.8125 54.890625 23.390625 
Q 54.890625 11.625 47.5625 5.09375 
Q 40.234375 -1.421875 26.90625 -1.421875 
Q 22.3125 -1.421875 17.546875 -0.640625 
Q 12.796875 0.140625 7.71875 1.703125 
L 7.71875 11.625 
Q 12.109375 9.234375 16.796875 8.0625 
Q 21.484375 6.890625 26.703125 6.890625 
Q 35.15625 6.890625 40.078125 11.328125 
Q 45.015625 15.765625 45.015625 23.390625 
Q 45.015625 31 40.078125 35.4375 
Q 35.15625 39.890625 26.703125 39.890625 
Q 22.75 39.890625 18.8125 39.015625 
Q 14.890625 38.140625 10.796875 36.28125 
z
" id="DejaVuSans-53"/>
      </defs>
      <g style="fill:#262626;" transform="translate(51.345625 116.553035)scale(0.165 -0.165)">
       <use xlink:href="#DejaVuSans-53"/>
       <use x="63.623047" xlink:href="#DejaVuSans-48"/>
       <use x="127.246094" xlink:href="#DejaVuSans-48"/>
      </g>
     </g>
    </g>
    <g id="ytick_3">
     <g id="line2d_5">
      <path clip-path="url(#p3b18b51174)" d="M 95.34 48.133082 
L 283.530214 48.133082 
" style="fill:none;stroke:#cccccc;stroke-linecap:round;stroke-width:1.5;"/>
     </g>
     <g id="text_3">
      <!-- 1000 -->
      <defs>
       <path d="M 12.40625 8.296875 
L 28.515625 8.296875 
L 28.515625 63.921875 
L 10.984375 60.40625 
L 10.984375 69.390625 
L 28.421875 72.90625 
L 38.28125 72.90625 
L 38.28125 8.296875 
L 54.390625 8.296875 
L 54.390625 0 
L 12.40625 0 
z
" id="DejaVuSans-49"/>
      </defs>
      <g style="fill:#262626;" transform="translate(40.8475 54.401792)scale(0.165 -0.165)">
       <use xlink:href="#DejaVuSans-49"/>
       <use x="63.623047" xlink:href="#DejaVuSans-48"/>
       <use x="127.246094" xlink:href="#DejaVuSans-48"/>
       <use x="190.869141" xlink:href="#DejaVuSans-48"/>
      </g>
     </g>
    </g>
    <g id="text_4">
     <!-- Effect -->
     <defs>
      <path d="M 9.8125 72.90625 
L 55.90625 72.90625 
L 55.90625 64.59375 
L 19.671875 64.59375 
L 19.671875 43.015625 
L 54.390625 43.015625 
L 54.390625 34.71875 
L 19.671875 34.71875 
L 19.671875 8.296875 
L 56.78125 8.296875 
L 56.78125 0 
L 9.8125 0 
z
" id="DejaVuSans-69"/>
      <path d="M 37.109375 75.984375 
L 37.109375 68.5 
L 28.515625 68.5 
Q 23.6875 68.5 21.796875 66.546875 
Q 19.921875 64.59375 19.921875 59.515625 
L 19.921875 54.6875 
L 34.71875 54.6875 
L 34.71875 47.703125 
L 19.921875 47.703125 
L 19.921875 0 
L 10.890625 0 
L 10.890625 47.703125 
L 2.296875 47.703125 
L 2.296875 54.6875 
L 10.890625 54.6875 
L 10.890625 58.5 
Q 10.890625 67.625 15.140625 71.796875 
Q 19.390625 75.984375 28.609375 75.984375 
z
" id="DejaVuSans-102"/>
      <path d="M 56.203125 29.59375 
L 56.203125 25.203125 
L 14.890625 25.203125 
Q 15.484375 15.921875 20.484375 11.0625 
Q 25.484375 6.203125 34.421875 6.203125 
Q 39.59375 6.203125 44.453125 7.46875 
Q 49.3125 8.734375 54.109375 11.28125 
L 54.109375 2.78125 
Q 49.265625 0.734375 44.1875 -0.34375 
Q 39.109375 -1.421875 33.890625 -1.421875 
Q 20.796875 -1.421875 13.15625 6.1875 
Q 5.515625 13.8125 5.515625 26.8125 
Q 5.515625 40.234375 12.765625 48.109375 
Q 20.015625 56 32.328125 56 
Q 43.359375 56 49.78125 48.890625 
Q 56.203125 41.796875 56.203125 29.59375 
z
M 47.21875 32.234375 
Q 47.125 39.59375 43.09375 43.984375 
Q 39.0625 48.390625 32.421875 48.390625 
Q 24.90625 48.390625 20.390625 44.140625 
Q 15.875 39.890625 15.1875 32.171875 
z
" id="DejaVuSans-101"/>
      <path d="M 48.78125 52.59375 
L 48.78125 44.1875 
Q 44.96875 46.296875 41.140625 47.34375 
Q 37.3125 48.390625 33.40625 48.390625 
Q 24.65625 48.390625 19.8125 42.84375 
Q 14.984375 37.3125 14.984375 27.296875 
Q 14.984375 17.28125 19.8125 11.734375 
Q 24.65625 6.203125 33.40625 6.203125 
Q 37.3125 6.203125 41.140625 7.25 
Q 44.96875 8.296875 48.78125 10.40625 
L 48.78125 2.09375 
Q 45.015625 0.34375 40.984375 -0.53125 
Q 36.96875 -1.421875 32.421875 -1.421875 
Q 20.0625 -1.421875 12.78125 6.34375 
Q 5.515625 14.109375 5.515625 27.296875 
Q 5.515625 40.671875 12.859375 48.328125 
Q 20.21875 56 33.015625 56 
Q 37.15625 56 41.109375 55.140625 
Q 45.0625 54.296875 48.78125 52.59375 
z
" id="DejaVuSans-99"/>
      <path d="M 18.3125 70.21875 
L 18.3125 54.6875 
L 36.8125 54.6875 
L 36.8125 47.703125 
L 18.3125 47.703125 
L 18.3125 18.015625 
Q 18.3125 11.328125 20.140625 9.421875 
Q 21.96875 7.515625 27.59375 7.515625 
L 36.8125 7.515625 
L 36.8125 0 
L 27.59375 0 
Q 17.1875 0 13.234375 3.875 
Q 9.28125 7.765625 9.28125 18.015625 
L 9.28125 47.703125 
L 2.6875 47.703125 
L 2.6875 54.6875 
L 9.28125 54.6875 
L 9.28125 70.21875 
z
" id="DejaVuSans-116"/>
     </defs>
     <g style="fill:#262626;" transform="translate(33.104063 125.610606)rotate(-90)scale(0.18 -0.18)">
      <use xlink:href="#DejaVuSans-69"/>
      <use x="63.183594" xlink:href="#DejaVuSans-102"/>
      <use x="98.388672" xlink:href="#DejaVuSans-102"/>
      <use x="133.59375" xlink:href="#DejaVuSans-101"/>
      <use x="195.117188" xlink:href="#DejaVuSans-99"/>
      <use x="250.097656" xlink:href="#DejaVuSans-116"/>
     </g>
    </g>
   </g>
   <g id="PolyCollection_1">
    <defs>
     <path d="M 103.894101 -405.196565 
L 103.894101 -403.956283 
L 108.646379 -403.968245 
L 113.398657 -403.94139 
L 118.150935 -403.904167 
L 122.903213 -403.973299 
L 127.655491 -403.91362 
L 132.407769 -403.96653 
L 137.160048 -403.932904 
L 141.912326 -403.962388 
L 146.664604 -403.909099 
L 151.416882 -403.926823 
L 156.16916 -403.968578 
L 160.921438 -403.949713 
L 165.673716 -403.907121 
L 170.425994 -403.939974 
L 175.178273 -403.885031 
L 179.930551 -403.90062 
L 184.682829 -403.982033 
L 189.435107 -403.988748 
L 194.187385 -403.927468 
L 198.939663 -403.945727 
L 203.691941 -403.882207 
L 208.44422 -403.958994 
L 213.196498 -403.960094 
L 217.948776 -403.952238 
L 217.948776 -405.255866 
L 217.948776 -405.255866 
L 213.196498 -405.254579 
L 208.44422 -405.255855 
L 203.691941 -405.262248 
L 198.939663 -405.26824 
L 194.187385 -405.211177 
L 189.435107 -405.252627 
L 184.682829 -405.219387 
L 179.930551 -405.275229 
L 175.178273 -405.229438 
L 170.425994 -405.203256 
L 165.673716 -405.255383 
L 160.921438 -405.21774 
L 156.16916 -405.225193 
L 151.416882 -405.227134 
L 146.664604 -405.224339 
L 141.912326 -405.193381 
L 137.160048 -405.253636 
L 132.407769 -405.237198 
L 127.655491 -405.205983 
L 122.903213 -405.264388 
L 118.150935 -405.242692 
L 113.398657 -405.22443 
L 108.646379 -405.251312 
L 103.894101 -405.196565 
z
" id="m553493c214" style="stroke:#1f77b4;stroke-opacity:0.2;stroke-width:1.5;"/>
    </defs>
    <g clip-path="url(#p3b18b51174)">
     <use style="fill:#1f77b4;fill-opacity:0.2;stroke:#1f77b4;stroke-opacity:0.2;stroke-width:1.5;" x="0" xlink:href="#m553493c214" y="432"/>
    </g>
   </g>
   <g id="PolyCollection_2">
    <defs>
     <path d="M 103.894101 -383.384178 
L 103.894101 -382.506739 
L 108.646379 -382.493772 
L 113.398657 -382.540669 
L 118.150935 -382.508295 
L 122.903213 -382.500925 
L 127.655491 -382.483695 
L 132.407769 -382.518493 
L 137.160048 -382.511195 
L 141.912326 -382.532105 
L 146.664604 -382.492276 
L 151.416882 -382.482219 
L 156.16916 -382.524463 
L 160.921438 -382.502822 
L 165.673716 -382.537665 
L 170.425994 -382.488538 
L 175.178273 -382.526432 
L 179.930551 -382.519723 
L 184.682829 -382.50567 
L 189.435107 -382.548363 
L 194.187385 -382.503055 
L 198.939663 -382.49087 
L 203.691941 -382.514643 
L 208.44422 -382.50717 
L 213.196498 -382.495789 
L 217.948776 -382.49791 
L 222.701054 -382.545457 
L 227.453332 -382.522867 
L 232.20561 -382.521848 
L 236.957888 -382.515092 
L 241.710166 -382.518187 
L 246.462445 -382.556198 
L 251.214723 -382.542124 
L 255.967001 -382.52767 
L 260.719279 -382.510546 
L 265.471557 -382.528584 
L 270.223835 -382.509762 
L 274.976113 -382.520717 
L 274.976113 -383.417284 
L 274.976113 -383.417284 
L 270.223835 -383.35786 
L 265.471557 -383.398892 
L 260.719279 -383.376746 
L 255.967001 -383.416094 
L 251.214723 -383.392112 
L 246.462445 -383.411982 
L 241.710166 -383.426245 
L 236.957888 -383.421338 
L 232.20561 -383.371787 
L 227.453332 -383.466535 
L 222.701054 -383.411775 
L 217.948776 -383.410927 
L 213.196498 -383.396948 
L 208.44422 -383.403731 
L 203.691941 -383.398056 
L 198.939663 -383.389356 
L 194.187385 -383.397091 
L 189.435107 -383.374471 
L 184.682829 -383.393646 
L 179.930551 -383.408374 
L 175.178273 -383.38596 
L 170.425994 -383.419061 
L 165.673716 -383.398145 
L 160.921438 -383.390187 
L 156.16916 -383.41207 
L 151.416882 -383.388397 
L 146.664604 -383.427112 
L 141.912326 -383.408923 
L 137.160048 -383.403853 
L 132.407769 -383.412262 
L 127.655491 -383.427145 
L 122.903213 -383.383915 
L 118.150935 -383.400965 
L 113.398657 -383.389965 
L 108.646379 -383.387844 
L 103.894101 -383.384178 
z
" id="m5a8586a832" style="stroke:#ff7f0e;stroke-opacity:0.2;stroke-width:1.5;"/>
    </defs>
    <g clip-path="url(#p3b18b51174)">
     <use style="fill:#ff7f0e;fill-opacity:0.2;stroke:#ff7f0e;stroke-opacity:0.2;stroke-width:1.5;" x="0" xlink:href="#m5a8586a832" y="432"/>
    </g>
   </g>
   <g id="PolyCollection_3">
    <defs>
     <path d="M 103.894101 -321.106436 
L 103.894101 -320.404344 
L 108.646379 -320.357816 
L 113.398657 -320.376233 
L 118.150935 -320.402369 
L 122.903213 -320.393721 
L 127.655491 -320.405643 
L 132.407769 -320.364346 
L 137.160048 -320.376708 
L 141.912326 -320.391622 
L 146.664604 -320.366647 
L 151.416882 -320.340115 
L 156.16916 -320.397123 
L 160.921438 -320.371388 
L 160.921438 -321.08056 
L 160.921438 -321.08056 
L 156.16916 -321.091963 
L 151.416882 -321.080047 
L 146.664604 -321.08031 
L 141.912326 -321.095147 
L 137.160048 -321.108901 
L 132.407769 -321.089135 
L 127.655491 -321.053995 
L 122.903213 -321.071189 
L 118.150935 -321.117575 
L 113.398657 -321.107443 
L 108.646379 -321.103712 
L 103.894101 -321.106436 
z
" id="m8fd900b784" style="stroke:#2ca02c;stroke-opacity:0.2;stroke-width:1.5;"/>
    </defs>
    <g clip-path="url(#p3b18b51174)">
     <use style="fill:#2ca02c;fill-opacity:0.2;stroke:#2ca02c;stroke-opacity:0.2;stroke-width:1.5;" x="0" xlink:href="#m8fd900b784" y="432"/>
    </g>
   </g>
   <g id="PolyCollection_4">
    <defs>
     <path d="M 103.894101 -327.724083 
L 103.894101 -326.781524 
L 108.646379 -326.786608 
L 113.398657 -326.791941 
L 118.150935 -326.81886 
L 122.903213 -326.803572 
L 127.655491 -326.775452 
L 132.407769 -326.811645 
L 132.407769 -327.692225 
L 132.407769 -327.692225 
L 127.655491 -327.664999 
L 122.903213 -327.671988 
L 118.150935 -327.730186 
L 113.398657 -327.653573 
L 108.646379 -327.720966 
L 103.894101 -327.724083 
z
" id="mfac2279a91" style="stroke:#d62728;stroke-opacity:0.2;stroke-width:1.5;"/>
    </defs>
    <g clip-path="url(#p3b18b51174)">
     <use style="fill:#d62728;fill-opacity:0.2;stroke:#d62728;stroke-opacity:0.2;stroke-width:1.5;" x="0" xlink:href="#mfac2279a91" y="432"/>
    </g>
   </g>
   <g id="line2d_6">
    <path clip-path="url(#p3b18b51174)" d="M 103.894101 27.413216 
L 108.646379 27.412366 
L 113.398657 27.410914 
L 118.150935 27.411914 
L 122.903213 27.407028 
L 127.655491 27.411835 
L 132.407769 27.41395 
L 137.160048 27.419158 
L 141.912326 27.413113 
L 146.664604 27.411215 
L 151.416882 27.415373 
L 156.16916 27.41577 
L 160.921438 27.41528 
L 165.673716 27.428428 
L 170.425994 27.421012 
L 175.178273 27.424193 
L 179.930551 27.425282 
L 184.682829 27.429544 
L 189.435107 27.421463 
L 194.187385 27.429975 
L 198.939663 27.41894 
L 203.691941 27.412976 
L 208.44422 27.411977 
L 213.196498 27.410152 
L 217.948776 27.411397 
" style="fill:none;stroke:#1f77b4;stroke-linecap:round;stroke-width:2.25;"/>
   </g>
   <g id="line2d_7">
    <path clip-path="url(#p3b18b51174)" d="M 103.894101 49.03853 
L 108.646379 49.04116 
L 113.398657 49.038277 
L 118.150935 49.037995 
L 122.903213 49.038514 
L 127.655491 49.036537 
L 132.407769 49.038356 
L 137.160048 49.038029 
L 141.912326 49.039877 
L 146.664604 49.040772 
L 151.416882 49.039842 
L 156.16916 49.038246 
L 160.921438 49.039306 
L 165.673716 49.039714 
L 170.425994 49.03712 
L 175.178273 49.039418 
L 179.930551 49.03676 
L 184.682829 49.041538 
L 189.435107 49.039603 
L 194.187385 49.041783 
L 198.939663 49.041705 
L 203.691941 49.038754 
L 208.44422 49.048277 
L 213.196498 49.03989 
L 217.948776 49.044775 
L 222.701054 49.039963 
L 227.453332 49.039483 
L 232.20561 49.040367 
L 236.957888 49.040357 
L 241.710166 49.040527 
L 246.462445 49.040224 
L 251.214723 49.04224 
L 255.967001 49.040099 
L 260.719279 49.039252 
L 265.471557 49.038066 
L 270.223835 49.037668 
L 274.976113 49.037613 
" style="fill:none;stroke:#ff7f0e;stroke-linecap:round;stroke-width:2.25;"/>
   </g>
   <g id="line2d_8">
    <path clip-path="url(#p3b18b51174)" d="M 103.894101 111.247357 
L 108.646379 111.25517 
L 113.398657 111.258936 
L 118.150935 111.25921 
L 122.903213 111.260759 
L 127.655491 111.264528 
L 132.407769 111.259302 
L 137.160048 111.271433 
L 141.912326 111.268671 
L 146.664604 111.274875 
L 151.416882 111.295876 
L 156.16916 111.263341 
L 160.921438 111.2572 
" style="fill:none;stroke:#2ca02c;stroke-linecap:round;stroke-width:2.25;"/>
   </g>
   <g id="line2d_9">
    <path clip-path="url(#p3b18b51174)" d="M 103.894101 104.741972 
L 108.646379 104.754386 
L 113.398657 104.762564 
L 118.150935 104.749348 
L 122.903213 104.772448 
L 127.655491 104.787435 
L 132.407769 104.753916 
" style="fill:none;stroke:#d62728;stroke-linecap:round;stroke-width:2.25;"/>
   </g>
   <g id="patch_3">
    <path d="M 95.34 179.704962 
L 95.34 19.44 
" style="fill:none;stroke:#cccccc;stroke-linecap:square;stroke-linejoin:miter;stroke-width:1.875;"/>
   </g>
   <g id="patch_4">
    <path d="M 95.34 179.704962 
L 283.530214 179.704962 
" style="fill:none;stroke:#cccccc;stroke-linecap:square;stroke-linejoin:miter;stroke-width:1.875;"/>
   </g>
   <g id="text_5">
    <g id="patch_5">
     <path d="M 283.334018 21.487637 
L 283.334018 177.657325 
L 308.674643 177.657325 
L 308.674643 21.487637 
z
" style="fill:#ffffff;stroke:#ffffff;stroke-linejoin:miter;stroke-width:1.5;"/>
    </g>
    <!-- Random = False -->
    <defs>
     <path d="M 44.390625 34.1875 
Q 47.5625 33.109375 50.5625 29.59375 
Q 53.5625 26.078125 56.59375 19.921875 
L 66.609375 0 
L 56 0 
L 46.6875 18.703125 
Q 43.0625 26.03125 39.671875 28.421875 
Q 36.28125 30.8125 30.421875 30.8125 
L 19.671875 30.8125 
L 19.671875 0 
L 9.8125 0 
L 9.8125 72.90625 
L 32.078125 72.90625 
Q 44.578125 72.90625 50.734375 67.671875 
Q 56.890625 62.453125 56.890625 51.90625 
Q 56.890625 45.015625 53.6875 40.46875 
Q 50.484375 35.9375 44.390625 34.1875 
z
M 19.671875 64.796875 
L 19.671875 38.921875 
L 32.078125 38.921875 
Q 39.203125 38.921875 42.84375 42.21875 
Q 46.484375 45.515625 46.484375 51.90625 
Q 46.484375 58.296875 42.84375 61.546875 
Q 39.203125 64.796875 32.078125 64.796875 
z
" id="DejaVuSans-82"/>
     <path d="M 34.28125 27.484375 
Q 23.390625 27.484375 19.1875 25 
Q 14.984375 22.515625 14.984375 16.5 
Q 14.984375 11.71875 18.140625 8.90625 
Q 21.296875 6.109375 26.703125 6.109375 
Q 34.1875 6.109375 38.703125 11.40625 
Q 43.21875 16.703125 43.21875 25.484375 
L 43.21875 27.484375 
z
M 52.203125 31.203125 
L 52.203125 0 
L 43.21875 0 
L 43.21875 8.296875 
Q 40.140625 3.328125 35.546875 0.953125 
Q 30.953125 -1.421875 24.3125 -1.421875 
Q 15.921875 -1.421875 10.953125 3.296875 
Q 6 8.015625 6 15.921875 
Q 6 25.140625 12.171875 29.828125 
Q 18.359375 34.515625 30.609375 34.515625 
L 43.21875 34.515625 
L 43.21875 35.40625 
Q 43.21875 41.609375 39.140625 45 
Q 35.0625 48.390625 27.6875 48.390625 
Q 23 48.390625 18.546875 47.265625 
Q 14.109375 46.140625 10.015625 43.890625 
L 10.015625 52.203125 
Q 14.9375 54.109375 19.578125 55.046875 
Q 24.21875 56 28.609375 56 
Q 40.484375 56 46.34375 49.84375 
Q 52.203125 43.703125 52.203125 31.203125 
z
" id="DejaVuSans-97"/>
     <path d="M 54.890625 33.015625 
L 54.890625 0 
L 45.90625 0 
L 45.90625 32.71875 
Q 45.90625 40.484375 42.875 44.328125 
Q 39.84375 48.1875 33.796875 48.1875 
Q 26.515625 48.1875 22.3125 43.546875 
Q 18.109375 38.921875 18.109375 30.90625 
L 18.109375 0 
L 9.078125 0 
L 9.078125 54.6875 
L 18.109375 54.6875 
L 18.109375 46.1875 
Q 21.34375 51.125 25.703125 53.5625 
Q 30.078125 56 35.796875 56 
Q 45.21875 56 50.046875 50.171875 
Q 54.890625 44.34375 54.890625 33.015625 
z
" id="DejaVuSans-110"/>
     <path d="M 45.40625 46.390625 
L 45.40625 75.984375 
L 54.390625 75.984375 
L 54.390625 0 
L 45.40625 0 
L 45.40625 8.203125 
Q 42.578125 3.328125 38.25 0.953125 
Q 33.9375 -1.421875 27.875 -1.421875 
Q 17.96875 -1.421875 11.734375 6.484375 
Q 5.515625 14.40625 5.515625 27.296875 
Q 5.515625 40.1875 11.734375 48.09375 
Q 17.96875 56 27.875 56 
Q 33.9375 56 38.25 53.625 
Q 42.578125 51.265625 45.40625 46.390625 
z
M 14.796875 27.296875 
Q 14.796875 17.390625 18.875 11.75 
Q 22.953125 6.109375 30.078125 6.109375 
Q 37.203125 6.109375 41.296875 11.75 
Q 45.40625 17.390625 45.40625 27.296875 
Q 45.40625 37.203125 41.296875 42.84375 
Q 37.203125 48.484375 30.078125 48.484375 
Q 22.953125 48.484375 18.875 42.84375 
Q 14.796875 37.203125 14.796875 27.296875 
z
" id="DejaVuSans-100"/>
     <path d="M 30.609375 48.390625 
Q 23.390625 48.390625 19.1875 42.75 
Q 14.984375 37.109375 14.984375 27.296875 
Q 14.984375 17.484375 19.15625 11.84375 
Q 23.34375 6.203125 30.609375 6.203125 
Q 37.796875 6.203125 41.984375 11.859375 
Q 46.1875 17.53125 46.1875 27.296875 
Q 46.1875 37.015625 41.984375 42.703125 
Q 37.796875 48.390625 30.609375 48.390625 
z
M 30.609375 56 
Q 42.328125 56 49.015625 48.375 
Q 55.71875 40.765625 55.71875 27.296875 
Q 55.71875 13.875 49.015625 6.21875 
Q 42.328125 -1.421875 30.609375 -1.421875 
Q 18.84375 -1.421875 12.171875 6.21875 
Q 5.515625 13.875 5.515625 27.296875 
Q 5.515625 40.765625 12.171875 48.375 
Q 18.84375 56 30.609375 56 
z
" id="DejaVuSans-111"/>
     <path d="M 52 44.1875 
Q 55.375 50.25 60.0625 53.125 
Q 64.75 56 71.09375 56 
Q 79.640625 56 84.28125 50.015625 
Q 88.921875 44.046875 88.921875 33.015625 
L 88.921875 0 
L 79.890625 0 
L 79.890625 32.71875 
Q 79.890625 40.578125 77.09375 44.375 
Q 74.3125 48.1875 68.609375 48.1875 
Q 61.625 48.1875 57.5625 43.546875 
Q 53.515625 38.921875 53.515625 30.90625 
L 53.515625 0 
L 44.484375 0 
L 44.484375 32.71875 
Q 44.484375 40.625 41.703125 44.40625 
Q 38.921875 48.1875 33.109375 48.1875 
Q 26.21875 48.1875 22.15625 43.53125 
Q 18.109375 38.875 18.109375 30.90625 
L 18.109375 0 
L 9.078125 0 
L 9.078125 54.6875 
L 18.109375 54.6875 
L 18.109375 46.1875 
Q 21.1875 51.21875 25.484375 53.609375 
Q 29.78125 56 35.6875 56 
Q 41.65625 56 45.828125 52.96875 
Q 50 49.953125 52 44.1875 
z
" id="DejaVuSans-109"/>
     <path id="DejaVuSans-32"/>
     <path d="M 10.59375 45.40625 
L 73.1875 45.40625 
L 73.1875 37.203125 
L 10.59375 37.203125 
z
M 10.59375 25.484375 
L 73.1875 25.484375 
L 73.1875 17.1875 
L 10.59375 17.1875 
z
" id="DejaVuSans-61"/>
     <path d="M 9.8125 72.90625 
L 51.703125 72.90625 
L 51.703125 64.59375 
L 19.671875 64.59375 
L 19.671875 43.109375 
L 48.578125 43.109375 
L 48.578125 34.8125 
L 19.671875 34.8125 
L 19.671875 0 
L 9.8125 0 
z
" id="DejaVuSans-70"/>
     <path d="M 9.421875 75.984375 
L 18.40625 75.984375 
L 18.40625 0 
L 9.421875 0 
z
" id="DejaVuSans-108"/>
     <path d="M 44.28125 53.078125 
L 44.28125 44.578125 
Q 40.484375 46.53125 36.375 47.5 
Q 32.28125 48.484375 27.875 48.484375 
Q 21.1875 48.484375 17.84375 46.4375 
Q 14.5 44.390625 14.5 40.28125 
Q 14.5 37.15625 16.890625 35.375 
Q 19.28125 33.59375 26.515625 31.984375 
L 29.59375 31.296875 
Q 39.15625 29.25 43.1875 25.515625 
Q 47.21875 21.78125 47.21875 15.09375 
Q 47.21875 7.46875 41.1875 3.015625 
Q 35.15625 -1.421875 24.609375 -1.421875 
Q 20.21875 -1.421875 15.453125 -0.5625 
Q 10.6875 0.296875 5.421875 2 
L 5.421875 11.28125 
Q 10.40625 8.6875 15.234375 7.390625 
Q 20.0625 6.109375 24.8125 6.109375 
Q 31.15625 6.109375 34.5625 8.28125 
Q 37.984375 10.453125 37.984375 14.40625 
Q 37.984375 18.0625 35.515625 20.015625 
Q 33.0625 21.96875 24.703125 23.78125 
L 21.578125 24.515625 
Q 13.234375 26.265625 9.515625 29.90625 
Q 5.8125 33.546875 5.8125 39.890625 
Q 5.8125 47.609375 11.28125 51.796875 
Q 16.75 56 26.8125 56 
Q 31.78125 56 36.171875 55.265625 
Q 40.578125 54.546875 44.28125 53.078125 
z
" id="DejaVuSans-115"/>
    </defs>
    <g style="fill:#262626;" transform="translate(291.037456 25.447637)rotate(-270)scale(0.18 -0.18)">
     <use xlink:href="#DejaVuSans-82"/>
     <use x="69.451172" xlink:href="#DejaVuSans-97"/>
     <use x="130.730469" xlink:href="#DejaVuSans-110"/>
     <use x="194.109375" xlink:href="#DejaVuSans-100"/>
     <use x="257.585938" xlink:href="#DejaVuSans-111"/>
     <use x="318.767578" xlink:href="#DejaVuSans-109"/>
     <use x="416.179688" xlink:href="#DejaVuSans-32"/>
     <use x="447.966797" xlink:href="#DejaVuSans-61"/>
     <use x="531.755859" xlink:href="#DejaVuSans-32"/>
     <use x="563.542969" xlink:href="#DejaVuSans-70"/>
     <use x="620.921875" xlink:href="#DejaVuSans-97"/>
     <use x="682.201172" xlink:href="#DejaVuSans-108"/>
     <use x="709.984375" xlink:href="#DejaVuSans-115"/>
     <use x="762.083984" xlink:href="#DejaVuSans-101"/>
    </g>
   </g>
  </g>
  <g id="axes_2">
   <g id="patch_6">
    <path d="M 95.34 362.22 
L 283.530214 362.22 
L 283.530214 201.955038 
L 95.34 201.955038 
z
" style="fill:#ffffff;"/>
   </g>
   <g id="matplotlib.axis_3">
    <g id="xtick_3">
     <g id="line2d_10">
      <path clip-path="url(#p541ec5709e)" d="M 103.894101 362.22 
L 103.894101 201.955038 
" style="fill:none;stroke:#cccccc;stroke-linecap:round;stroke-width:1.5;"/>
     </g>
     <g id="text_6">
      <!-- 0 -->
      <g style="fill:#262626;" transform="translate(98.645038 387.257422)scale(0.165 -0.165)">
       <use xlink:href="#DejaVuSans-48"/>
      </g>
     </g>
    </g>
    <g id="xtick_4">
     <g id="line2d_11">
      <path clip-path="url(#p541ec5709e)" d="M 198.939663 362.22 
L 198.939663 201.955038 
" style="fill:none;stroke:#cccccc;stroke-linecap:round;stroke-width:1.5;"/>
     </g>
     <g id="text_7">
      <!-- 20 -->
      <defs>
       <path d="M 19.1875 8.296875 
L 53.609375 8.296875 
L 53.609375 0 
L 7.328125 0 
L 7.328125 8.296875 
Q 12.9375 14.109375 22.625 23.890625 
Q 32.328125 33.6875 34.8125 36.53125 
Q 39.546875 41.84375 41.421875 45.53125 
Q 43.3125 49.21875 43.3125 52.78125 
Q 43.3125 58.59375 39.234375 62.25 
Q 35.15625 65.921875 28.609375 65.921875 
Q 23.96875 65.921875 18.8125 64.3125 
Q 13.671875 62.703125 7.8125 59.421875 
L 7.8125 69.390625 
Q 13.765625 71.78125 18.9375 73 
Q 24.125 74.21875 28.421875 74.21875 
Q 39.75 74.21875 46.484375 68.546875 
Q 53.21875 62.890625 53.21875 53.421875 
Q 53.21875 48.921875 51.53125 44.890625 
Q 49.859375 40.875 45.40625 35.40625 
Q 44.1875 33.984375 37.640625 27.21875 
Q 31.109375 20.453125 19.1875 8.296875 
z
" id="DejaVuSans-50"/>
      </defs>
      <g style="fill:#262626;" transform="translate(188.441538 387.257422)scale(0.165 -0.165)">
       <use xlink:href="#DejaVuSans-50"/>
       <use x="63.623047" xlink:href="#DejaVuSans-48"/>
      </g>
     </g>
    </g>
    <g id="text_8">
     <!-- Layer -->
     <defs>
      <path d="M 9.8125 72.90625 
L 19.671875 72.90625 
L 19.671875 8.296875 
L 55.171875 8.296875 
L 55.171875 0 
L 9.8125 0 
z
" id="DejaVuSans-76"/>
      <path d="M 32.171875 -5.078125 
Q 28.375 -14.84375 24.75 -17.8125 
Q 21.140625 -20.796875 15.09375 -20.796875 
L 7.90625 -20.796875 
L 7.90625 -13.28125 
L 13.1875 -13.28125 
Q 16.890625 -13.28125 18.9375 -11.515625 
Q 21 -9.765625 23.484375 -3.21875 
L 25.09375 0.875 
L 2.984375 54.6875 
L 12.5 54.6875 
L 29.59375 11.921875 
L 46.6875 54.6875 
L 56.203125 54.6875 
z
" id="DejaVuSans-121"/>
      <path d="M 41.109375 46.296875 
Q 39.59375 47.171875 37.8125 47.578125 
Q 36.03125 48 33.890625 48 
Q 26.265625 48 22.1875 43.046875 
Q 18.109375 38.09375 18.109375 28.8125 
L 18.109375 0 
L 9.078125 0 
L 9.078125 54.6875 
L 18.109375 54.6875 
L 18.109375 46.1875 
Q 20.953125 51.171875 25.484375 53.578125 
Q 30.03125 56 36.53125 56 
Q 37.453125 56 38.578125 55.875 
Q 39.703125 55.765625 41.0625 55.515625 
z
" id="DejaVuSans-114"/>
     </defs>
     <g style="fill:#262626;" transform="translate(164.340576 408.366094)scale(0.18 -0.18)">
      <use xlink:href="#DejaVuSans-76"/>
      <use x="55.712891" xlink:href="#DejaVuSans-97"/>
      <use x="116.992188" xlink:href="#DejaVuSans-121"/>
      <use x="176.171875" xlink:href="#DejaVuSans-101"/>
      <use x="237.695312" xlink:href="#DejaVuSans-114"/>
     </g>
    </g>
   </g>
   <g id="matplotlib.axis_4">
    <g id="ytick_4">
     <g id="line2d_12">
      <path clip-path="url(#p541ec5709e)" d="M 95.34 354.950605 
L 283.530214 354.950605 
" style="fill:none;stroke:#cccccc;stroke-linecap:round;stroke-width:1.5;"/>
     </g>
     <g id="text_9">
      <!-- 0 -->
      <g style="fill:#262626;" transform="translate(72.341875 361.219316)scale(0.165 -0.165)">
       <use xlink:href="#DejaVuSans-48"/>
      </g>
     </g>
    </g>
    <g id="ytick_5">
     <g id="line2d_13">
      <path clip-path="url(#p541ec5709e)" d="M 95.34 292.799362 
L 283.530214 292.799362 
" style="fill:none;stroke:#cccccc;stroke-linecap:round;stroke-width:1.5;"/>
     </g>
     <g id="text_10">
      <!-- 500 -->
      <g style="fill:#262626;" transform="translate(51.345625 299.068073)scale(0.165 -0.165)">
       <use xlink:href="#DejaVuSans-53"/>
       <use x="63.623047" xlink:href="#DejaVuSans-48"/>
       <use x="127.246094" xlink:href="#DejaVuSans-48"/>
      </g>
     </g>
    </g>
    <g id="ytick_6">
     <g id="line2d_14">
      <path clip-path="url(#p541ec5709e)" d="M 95.34 230.64812 
L 283.530214 230.64812 
" style="fill:none;stroke:#cccccc;stroke-linecap:round;stroke-width:1.5;"/>
     </g>
     <g id="text_11">
      <!-- 1000 -->
      <g style="fill:#262626;" transform="translate(40.8475 236.916831)scale(0.165 -0.165)">
       <use xlink:href="#DejaVuSans-49"/>
       <use x="63.623047" xlink:href="#DejaVuSans-48"/>
       <use x="127.246094" xlink:href="#DejaVuSans-48"/>
       <use x="190.869141" xlink:href="#DejaVuSans-48"/>
      </g>
     </g>
    </g>
    <g id="text_12">
     <!-- Effect -->
     <g style="fill:#262626;" transform="translate(33.104063 308.125644)rotate(-90)scale(0.18 -0.18)">
      <use xlink:href="#DejaVuSans-69"/>
      <use x="63.183594" xlink:href="#DejaVuSans-102"/>
      <use x="98.388672" xlink:href="#DejaVuSans-102"/>
      <use x="133.59375" xlink:href="#DejaVuSans-101"/>
      <use x="195.117188" xlink:href="#DejaVuSans-99"/>
      <use x="250.097656" xlink:href="#DejaVuSans-116"/>
     </g>
    </g>
   </g>
   <g id="PolyCollection_5">
    <defs>
     <path d="M 103.894101 -77.065278 
L 103.894101 -77.064781 
L 108.646379 -77.0648 
L 113.398657 -77.0648 
L 118.150935 -77.064812 
L 122.903213 -77.0648 
L 127.655491 -77.064797 
L 132.407769 -77.064811 
L 137.160048 -77.064799 
L 141.912326 -77.064812 
L 146.664604 -77.064813 
L 151.416882 -77.064797 
L 156.16916 -77.064814 
L 160.921438 -77.064785 
L 165.673716 -77.064809 
L 170.425994 -77.064795 
L 175.178273 -77.064788 
L 179.930551 -77.064808 
L 184.682829 -77.064796 
L 189.435107 -77.064792 
L 194.187385 -77.064813 
L 198.939663 -77.064813 
L 203.691941 -77.064809 
L 208.44422 -77.064771 
L 213.196498 -77.064783 
L 217.948776 -77.064792 
L 217.948776 -77.065283 
L 217.948776 -77.065283 
L 213.196498 -77.065285 
L 208.44422 -77.065301 
L 203.691941 -77.065292 
L 198.939663 -77.065278 
L 194.187385 -77.065306 
L 189.435107 -77.065303 
L 184.682829 -77.065325 
L 179.930551 -77.065313 
L 175.178273 -77.065303 
L 170.425994 -77.065287 
L 165.673716 -77.065306 
L 160.921438 -77.065282 
L 156.16916 -77.065296 
L 151.416882 -77.065282 
L 146.664604 -77.065302 
L 141.912326 -77.065308 
L 137.160048 -77.065298 
L 132.407769 -77.065307 
L 127.655491 -77.065307 
L 122.903213 -77.065305 
L 118.150935 -77.065295 
L 113.398657 -77.065282 
L 108.646379 -77.065297 
L 103.894101 -77.065278 
z
" id="md33352779d" style="stroke:#1f77b4;stroke-opacity:0.2;stroke-width:1.5;"/>
    </defs>
    <g clip-path="url(#p541ec5709e)">
     <use style="fill:#1f77b4;fill-opacity:0.2;stroke:#1f77b4;stroke-opacity:0.2;stroke-width:1.5;" x="0" xlink:href="#md33352779d" y="432"/>
    </g>
   </g>
   <g id="line2d_15">
    <path clip-path="url(#p541ec5709e)" d="M 103.894101 354.934968 
L 108.646379 354.934958 
L 113.398657 354.934954 
L 118.150935 354.934954 
L 122.903213 354.934954 
L 127.655491 354.934954 
L 132.407769 354.934953 
L 137.160048 354.934953 
L 141.912326 354.934953 
L 146.664604 354.934953 
L 151.416882 354.934953 
L 156.16916 354.934953 
L 160.921438 354.934953 
L 165.673716 354.934953 
L 170.425994 354.934953 
L 175.178273 354.934953 
L 179.930551 354.934953 
L 184.682829 354.934953 
L 189.435107 354.934953 
L 194.187385 354.934953 
L 198.939663 354.934953 
L 203.691941 354.934953 
L 208.44422 354.934953 
L 213.196498 354.934953 
L 217.948776 354.934953 
" style="fill:none;stroke:#1f77b4;stroke-linecap:round;stroke-width:2.25;"/>
   </g>
   <g id="patch_7">
    <path d="M 95.34 362.22 
L 95.34 201.955038 
" style="fill:none;stroke:#cccccc;stroke-linecap:square;stroke-linejoin:miter;stroke-width:1.875;"/>
   </g>
   <g id="patch_8">
    <path d="M 95.34 362.22 
L 283.530214 362.22 
" style="fill:none;stroke:#cccccc;stroke-linecap:square;stroke-linejoin:miter;stroke-width:1.875;"/>
   </g>
   <g id="text_13">
    <g id="patch_9">
     <path d="M 283.334018 206.98955 
L 283.334018 357.185488 
L 308.674643 357.185488 
L 308.674643 206.98955 
z
" style="fill:#ffffff;stroke:#ffffff;stroke-linejoin:miter;stroke-width:1.5;"/>
    </g>
    <!-- Random = True -->
    <defs>
     <path d="M -0.296875 72.90625 
L 61.375 72.90625 
L 61.375 64.59375 
L 35.5 64.59375 
L 35.5 0 
L 25.59375 0 
L 25.59375 64.59375 
L -0.296875 64.59375 
z
" id="DejaVuSans-84"/>
     <path d="M 8.5 21.578125 
L 8.5 54.6875 
L 17.484375 54.6875 
L 17.484375 21.921875 
Q 17.484375 14.15625 20.5 10.265625 
Q 23.53125 6.390625 29.59375 6.390625 
Q 36.859375 6.390625 41.078125 11.03125 
Q 45.3125 15.671875 45.3125 23.6875 
L 45.3125 54.6875 
L 54.296875 54.6875 
L 54.296875 0 
L 45.3125 0 
L 45.3125 8.40625 
Q 42.046875 3.421875 37.71875 1 
Q 33.40625 -1.421875 27.6875 -1.421875 
Q 18.265625 -1.421875 13.375 4.4375 
Q 8.5 10.296875 8.5 21.578125 
z
M 31.109375 56 
z
" id="DejaVuSans-117"/>
    </defs>
    <g style="fill:#262626;" transform="translate(291.037456 210.94955)rotate(-270)scale(0.18 -0.18)">
     <use xlink:href="#DejaVuSans-82"/>
     <use x="69.451172" xlink:href="#DejaVuSans-97"/>
     <use x="130.730469" xlink:href="#DejaVuSans-110"/>
     <use x="194.109375" xlink:href="#DejaVuSans-100"/>
     <use x="257.585938" xlink:href="#DejaVuSans-111"/>
     <use x="318.767578" xlink:href="#DejaVuSans-109"/>
     <use x="416.179688" xlink:href="#DejaVuSans-32"/>
     <use x="447.966797" xlink:href="#DejaVuSans-61"/>
     <use x="531.755859" xlink:href="#DejaVuSans-32"/>
     <use x="563.542969" xlink:href="#DejaVuSans-84"/>
     <use x="624.408203" xlink:href="#DejaVuSans-114"/>
     <use x="665.521484" xlink:href="#DejaVuSans-117"/>
     <use x="728.900391" xlink:href="#DejaVuSans-101"/>
    </g>
   </g>
  </g>
 </g>
 <defs>
  <clipPath id="p3b18b51174">
   <rect height="160.264962" width="188.190214" x="95.34" y="19.44"/>
  </clipPath>
  <clipPath id="p541ec5709e">
   <rect height="160.264962" width="188.190214" x="95.34" y="201.955038"/>
  </clipPath>
 </defs>
</svg>
