<?xml version="1.0" encoding="utf-8" standalone="no"?>
<!DOCTYPE svg PUBLIC "-//W3C//DTD SVG 1.1//EN"
  "http://www.w3.org/Graphics/SVG/1.1/DTD/svg11.dtd">
<!-- Created with matplotlib (https://matplotlib.org/) -->
<svg height="1440pt" version="1.1" viewBox="0 0 720 1440" width="720pt" xmlns="http://www.w3.org/2000/svg" xmlns:xlink="http://www.w3.org/1999/xlink">
 <defs>
  <style type="text/css">
*{stroke-linecap:butt;stroke-linejoin:round;}
  </style>
 </defs>
 <g id="figure_1">
  <g id="patch_1">
   <path d="M 0 1440 
L 720 1440 
L 720 0 
L 0 0 
z
" style="fill:#ffffff;"/>
  </g>
  <g id="axes_1">
   <g id="patch_2">
    <path d="M 105.87 374.76 
L 700.56 374.76 
L 700.56 111.12 
L 105.87 111.12 
z
" style="fill:#ffffff;"/>
   </g>
   <g id="matplotlib.axis_1">
    <g id="xtick_1">
     <g id="text_1">
      <!-- Distil -->
      <defs>
       <path d="M 19.671875 64.796875 
L 19.671875 8.109375 
L 31.59375 8.109375 
Q 46.6875 8.109375 53.6875 14.9375 
Q 60.6875 21.78125 60.6875 36.53125 
Q 60.6875 51.171875 53.6875 57.984375 
Q 46.6875 64.796875 31.59375 64.796875 
z
M 9.8125 72.90625 
L 30.078125 72.90625 
Q 51.265625 72.90625 61.171875 64.09375 
Q 71.09375 55.28125 71.09375 36.53125 
Q 71.09375 17.671875 61.125 8.828125 
Q 51.171875 0 30.078125 0 
L 9.8125 0 
z
" id="DejaVuSans-68"/>
       <path d="M 9.421875 54.6875 
L 18.40625 54.6875 
L 18.40625 0 
L 9.421875 0 
z
M 9.421875 75.984375 
L 18.40625 75.984375 
L 18.40625 64.59375 
L 9.421875 64.59375 
z
" id="DejaVuSans-105"/>
       <path d="M 44.28125 53.078125 
L 44.28125 44.578125 
Q 40.484375 46.53125 36.375 47.5 
Q 32.28125 48.484375 27.875 48.484375 
Q 21.1875 48.484375 17.84375 46.4375 
Q 14.5 44.390625 14.5 40.28125 
Q 14.5 37.15625 16.890625 35.375 
Q 19.28125 33.59375 26.515625 31.984375 
L 29.59375 31.296875 
Q 39.15625 29.25 43.1875 25.515625 
Q 47.21875 21.78125 47.21875 15.09375 
Q 47.21875 7.46875 41.1875 3.015625 
Q 35.15625 -1.421875 24.609375 -1.421875 
Q 20.21875 -1.421875 15.453125 -0.5625 
Q 10.6875 0.296875 5.421875 2 
L 5.421875 11.28125 
Q 10.40625 8.6875 15.234375 7.390625 
Q 20.0625 6.109375 24.8125 6.109375 
Q 31.15625 6.109375 34.5625 8.28125 
Q 37.984375 10.453125 37.984375 14.40625 
Q 37.984375 18.0625 35.515625 20.015625 
Q 33.0625 21.96875 24.703125 23.78125 
L 21.578125 24.515625 
Q 13.234375 26.265625 9.515625 29.90625 
Q 5.8125 33.546875 5.8125 39.890625 
Q 5.8125 47.609375 11.28125 51.796875 
Q 16.75 56 26.8125 56 
Q 31.78125 56 36.171875 55.265625 
Q 40.578125 54.546875 44.28125 53.078125 
z
" id="DejaVuSans-115"/>
       <path d="M 18.3125 70.21875 
L 18.3125 54.6875 
L 36.8125 54.6875 
L 36.8125 47.703125 
L 18.3125 47.703125 
L 18.3125 18.015625 
Q 18.3125 11.328125 20.140625 9.421875 
Q 21.96875 7.515625 27.59375 7.515625 
L 36.8125 7.515625 
L 36.8125 0 
L 27.59375 0 
Q 17.1875 0 13.234375 3.875 
Q 9.28125 7.765625 9.28125 18.015625 
L 9.28125 47.703125 
L 2.6875 47.703125 
L 2.6875 54.6875 
L 9.28125 54.6875 
L 9.28125 70.21875 
z
" id="DejaVuSans-116"/>
       <path d="M 9.421875 75.984375 
L 18.40625 75.984375 
L 18.40625 0 
L 9.421875 0 
z
" id="DejaVuSans-108"/>
      </defs>
      <g style="fill:#262626;" transform="translate(144.578648 399.797422)scale(0.165 -0.165)">
       <use xlink:href="#DejaVuSans-68"/>
       <use x="77.001953" xlink:href="#DejaVuSans-105"/>
       <use x="104.785156" xlink:href="#DejaVuSans-115"/>
       <use x="156.884766" xlink:href="#DejaVuSans-116"/>
       <use x="196.09375" xlink:href="#DejaVuSans-105"/>
       <use x="223.876953" xlink:href="#DejaVuSans-108"/>
      </g>
     </g>
    </g>
    <g id="xtick_2">
     <g id="text_2">
      <!-- Small -->
      <defs>
       <path d="M 53.515625 70.515625 
L 53.515625 60.890625 
Q 47.90625 63.578125 42.921875 64.890625 
Q 37.9375 66.21875 33.296875 66.21875 
Q 25.25 66.21875 20.875 63.09375 
Q 16.5 59.96875 16.5 54.203125 
Q 16.5 49.359375 19.40625 46.890625 
Q 22.3125 44.4375 30.421875 42.921875 
L 36.375 41.703125 
Q 47.40625 39.59375 52.65625 34.296875 
Q 57.90625 29 57.90625 20.125 
Q 57.90625 9.515625 50.796875 4.046875 
Q 43.703125 -1.421875 29.984375 -1.421875 
Q 24.8125 -1.421875 18.96875 -0.25 
Q 13.140625 0.921875 6.890625 3.21875 
L 6.890625 13.375 
Q 12.890625 10.015625 18.65625 8.296875 
Q 24.421875 6.59375 29.984375 6.59375 
Q 38.421875 6.59375 43.015625 9.90625 
Q 47.609375 13.234375 47.609375 19.390625 
Q 47.609375 24.75 44.3125 27.78125 
Q 41.015625 30.8125 33.5 32.328125 
L 27.484375 33.5 
Q 16.453125 35.6875 11.515625 40.375 
Q 6.59375 45.0625 6.59375 53.421875 
Q 6.59375 63.09375 13.40625 68.65625 
Q 20.21875 74.21875 32.171875 74.21875 
Q 37.3125 74.21875 42.625 73.28125 
Q 47.953125 72.359375 53.515625 70.515625 
z
" id="DejaVuSans-83"/>
       <path d="M 52 44.1875 
Q 55.375 50.25 60.0625 53.125 
Q 64.75 56 71.09375 56 
Q 79.640625 56 84.28125 50.015625 
Q 88.921875 44.046875 88.921875 33.015625 
L 88.921875 0 
L 79.890625 0 
L 79.890625 32.71875 
Q 79.890625 40.578125 77.09375 44.375 
Q 74.3125 48.1875 68.609375 48.1875 
Q 61.625 48.1875 57.5625 43.546875 
Q 53.515625 38.921875 53.515625 30.90625 
L 53.515625 0 
L 44.484375 0 
L 44.484375 32.71875 
Q 44.484375 40.625 41.703125 44.40625 
Q 38.921875 48.1875 33.109375 48.1875 
Q 26.21875 48.1875 22.15625 43.53125 
Q 18.109375 38.875 18.109375 30.90625 
L 18.109375 0 
L 9.078125 0 
L 9.078125 54.6875 
L 18.109375 54.6875 
L 18.109375 46.1875 
Q 21.1875 51.21875 25.484375 53.609375 
Q 29.78125 56 35.6875 56 
Q 41.65625 56 45.828125 52.96875 
Q 50 49.953125 52 44.1875 
z
" id="DejaVuSans-109"/>
       <path d="M 34.28125 27.484375 
Q 23.390625 27.484375 19.1875 25 
Q 14.984375 22.515625 14.984375 16.5 
Q 14.984375 11.71875 18.140625 8.90625 
Q 21.296875 6.109375 26.703125 6.109375 
Q 34.1875 6.109375 38.703125 11.40625 
Q 43.21875 16.703125 43.21875 25.484375 
L 43.21875 27.484375 
z
M 52.203125 31.203125 
L 52.203125 0 
L 43.21875 0 
L 43.21875 8.296875 
Q 40.140625 3.328125 35.546875 0.953125 
Q 30.953125 -1.421875 24.3125 -1.421875 
Q 15.921875 -1.421875 10.953125 3.296875 
Q 6 8.015625 6 15.921875 
Q 6 25.140625 12.171875 29.828125 
Q 18.359375 34.515625 30.609375 34.515625 
L 43.21875 34.515625 
L 43.21875 35.40625 
Q 43.21875 41.609375 39.140625 45 
Q 35.0625 48.390625 27.6875 48.390625 
Q 23 48.390625 18.546875 47.265625 
Q 14.109375 46.140625 10.015625 43.890625 
L 10.015625 52.203125 
Q 14.9375 54.109375 19.578125 55.046875 
Q 24.21875 56 28.609375 56 
Q 40.484375 56 46.34375 49.84375 
Q 52.203125 43.703125 52.203125 31.203125 
z
" id="DejaVuSans-97"/>
      </defs>
      <g style="fill:#262626;" transform="translate(261.363914 399.797422)scale(0.165 -0.165)">
       <use xlink:href="#DejaVuSans-83"/>
       <use x="63.476562" xlink:href="#DejaVuSans-109"/>
       <use x="160.888672" xlink:href="#DejaVuSans-97"/>
       <use x="222.167969" xlink:href="#DejaVuSans-108"/>
       <use x="249.951172" xlink:href="#DejaVuSans-108"/>
      </g>
     </g>
    </g>
    <g id="xtick_3">
     <g id="text_3">
      <!-- Medium -->
      <defs>
       <path d="M 9.8125 72.90625 
L 24.515625 72.90625 
L 43.109375 23.296875 
L 61.8125 72.90625 
L 76.515625 72.90625 
L 76.515625 0 
L 66.890625 0 
L 66.890625 64.015625 
L 48.09375 14.015625 
L 38.1875 14.015625 
L 19.390625 64.015625 
L 19.390625 0 
L 9.8125 0 
z
" id="DejaVuSans-77"/>
       <path d="M 56.203125 29.59375 
L 56.203125 25.203125 
L 14.890625 25.203125 
Q 15.484375 15.921875 20.484375 11.0625 
Q 25.484375 6.203125 34.421875 6.203125 
Q 39.59375 6.203125 44.453125 7.46875 
Q 49.3125 8.734375 54.109375 11.28125 
L 54.109375 2.78125 
Q 49.265625 0.734375 44.1875 -0.34375 
Q 39.109375 -1.421875 33.890625 -1.421875 
Q 20.796875 -1.421875 13.15625 6.1875 
Q 5.515625 13.8125 5.515625 26.8125 
Q 5.515625 40.234375 12.765625 48.109375 
Q 20.015625 56 32.328125 56 
Q 43.359375 56 49.78125 48.890625 
Q 56.203125 41.796875 56.203125 29.59375 
z
M 47.21875 32.234375 
Q 47.125 39.59375 43.09375 43.984375 
Q 39.0625 48.390625 32.421875 48.390625 
Q 24.90625 48.390625 20.390625 44.140625 
Q 15.875 39.890625 15.1875 32.171875 
z
" id="DejaVuSans-101"/>
       <path d="M 45.40625 46.390625 
L 45.40625 75.984375 
L 54.390625 75.984375 
L 54.390625 0 
L 45.40625 0 
L 45.40625 8.203125 
Q 42.578125 3.328125 38.25 0.953125 
Q 33.9375 -1.421875 27.875 -1.421875 
Q 17.96875 -1.421875 11.734375 6.484375 
Q 5.515625 14.40625 5.515625 27.296875 
Q 5.515625 40.1875 11.734375 48.09375 
Q 17.96875 56 27.875 56 
Q 33.9375 56 38.25 53.625 
Q 42.578125 51.265625 45.40625 46.390625 
z
M 14.796875 27.296875 
Q 14.796875 17.390625 18.875 11.75 
Q 22.953125 6.109375 30.078125 6.109375 
Q 37.203125 6.109375 41.296875 11.75 
Q 45.40625 17.390625 45.40625 27.296875 
Q 45.40625 37.203125 41.296875 42.84375 
Q 37.203125 48.484375 30.078125 48.484375 
Q 22.953125 48.484375 18.875 42.84375 
Q 14.796875 37.203125 14.796875 27.296875 
z
" id="DejaVuSans-100"/>
       <path d="M 8.5 21.578125 
L 8.5 54.6875 
L 17.484375 54.6875 
L 17.484375 21.921875 
Q 17.484375 14.15625 20.5 10.265625 
Q 23.53125 6.390625 29.59375 6.390625 
Q 36.859375 6.390625 41.078125 11.03125 
Q 45.3125 15.671875 45.3125 23.6875 
L 45.3125 54.6875 
L 54.296875 54.6875 
L 54.296875 0 
L 45.3125 0 
L 45.3125 8.40625 
Q 42.046875 3.421875 37.71875 1 
Q 33.40625 -1.421875 27.6875 -1.421875 
Q 18.265625 -1.421875 13.375 4.4375 
Q 8.5 10.296875 8.5 21.578125 
z
M 31.109375 56 
z
" id="DejaVuSans-117"/>
      </defs>
      <g style="fill:#262626;" transform="translate(370.226602 399.797422)scale(0.165 -0.165)">
       <use xlink:href="#DejaVuSans-77"/>
       <use x="86.279297" xlink:href="#DejaVuSans-101"/>
       <use x="147.802734" xlink:href="#DejaVuSans-100"/>
       <use x="211.279297" xlink:href="#DejaVuSans-105"/>
       <use x="239.0625" xlink:href="#DejaVuSans-117"/>
       <use x="302.441406" xlink:href="#DejaVuSans-109"/>
      </g>
     </g>
    </g>
    <g id="xtick_4">
     <g id="text_4">
      <!-- Large -->
      <defs>
       <path d="M 9.8125 72.90625 
L 19.671875 72.90625 
L 19.671875 8.296875 
L 55.171875 8.296875 
L 55.171875 0 
L 9.8125 0 
z
" id="DejaVuSans-76"/>
       <path d="M 41.109375 46.296875 
Q 39.59375 47.171875 37.8125 47.578125 
Q 36.03125 48 33.890625 48 
Q 26.265625 48 22.1875 43.046875 
Q 18.109375 38.09375 18.109375 28.8125 
L 18.109375 0 
L 9.078125 0 
L 9.078125 54.6875 
L 18.109375 54.6875 
L 18.109375 46.1875 
Q 20.953125 51.171875 25.484375 53.578125 
Q 30.03125 56 36.53125 56 
Q 37.453125 56 38.578125 55.875 
Q 39.703125 55.765625 41.0625 55.515625 
z
" id="DejaVuSans-114"/>
       <path d="M 45.40625 27.984375 
Q 45.40625 37.75 41.375 43.109375 
Q 37.359375 48.484375 30.078125 48.484375 
Q 22.859375 48.484375 18.828125 43.109375 
Q 14.796875 37.75 14.796875 27.984375 
Q 14.796875 18.265625 18.828125 12.890625 
Q 22.859375 7.515625 30.078125 7.515625 
Q 37.359375 7.515625 41.375 12.890625 
Q 45.40625 18.265625 45.40625 27.984375 
z
M 54.390625 6.78125 
Q 54.390625 -7.171875 48.1875 -13.984375 
Q 42 -20.796875 29.203125 -20.796875 
Q 24.46875 -20.796875 20.265625 -20.09375 
Q 16.0625 -19.390625 12.109375 -17.921875 
L 12.109375 -9.1875 
Q 16.0625 -11.328125 19.921875 -12.34375 
Q 23.78125 -13.375 27.78125 -13.375 
Q 36.625 -13.375 41.015625 -8.765625 
Q 45.40625 -4.15625 45.40625 5.171875 
L 45.40625 9.625 
Q 42.625 4.78125 38.28125 2.390625 
Q 33.9375 0 27.875 0 
Q 17.828125 0 11.671875 7.65625 
Q 5.515625 15.328125 5.515625 27.984375 
Q 5.515625 40.671875 11.671875 48.328125 
Q 17.828125 56 27.875 56 
Q 33.9375 56 38.28125 53.609375 
Q 42.625 51.21875 45.40625 46.390625 
L 45.40625 54.6875 
L 54.390625 54.6875 
z
" id="DejaVuSans-103"/>
      </defs>
      <g style="fill:#262626;" transform="translate(498.796477 399.797422)scale(0.165 -0.165)">
       <use xlink:href="#DejaVuSans-76"/>
       <use x="55.712891" xlink:href="#DejaVuSans-97"/>
       <use x="116.992188" xlink:href="#DejaVuSans-114"/>
       <use x="158.089844" xlink:href="#DejaVuSans-103"/>
       <use x="221.566406" xlink:href="#DejaVuSans-101"/>
      </g>
     </g>
    </g>
    <g id="xtick_5">
     <g id="text_5">
      <!-- XL -->
      <defs>
       <path d="M 6.296875 72.90625 
L 16.890625 72.90625 
L 35.015625 45.796875 
L 53.21875 72.90625 
L 63.8125 72.90625 
L 40.375 37.890625 
L 65.375 0 
L 54.78125 0 
L 34.28125 31 
L 13.625 0 
L 2.984375 0 
L 29 38.921875 
z
" id="DejaVuSans-88"/>
      </defs>
      <g style="fill:#262626;" transform="translate(630.842953 399.797422)scale(0.165 -0.165)">
       <use xlink:href="#DejaVuSans-88"/>
       <use x="68.505859" xlink:href="#DejaVuSans-76"/>
      </g>
     </g>
    </g>
   </g>
   <g id="matplotlib.axis_2">
    <g id="ytick_1">
     <g id="line2d_1">
      <path clip-path="url(#p2fa5fae88d)" d="M 105.87 374.76 
L 700.56 374.76 
" style="fill:none;stroke:#cccccc;stroke-linecap:round;stroke-width:1.5;"/>
     </g>
     <g id="text_6">
      <!-- 0 -->
      <defs>
       <path d="M 31.78125 66.40625 
Q 24.171875 66.40625 20.328125 58.90625 
Q 16.5 51.421875 16.5 36.375 
Q 16.5 21.390625 20.328125 13.890625 
Q 24.171875 6.390625 31.78125 6.390625 
Q 39.453125 6.390625 43.28125 13.890625 
Q 47.125 21.390625 47.125 36.375 
Q 47.125 51.421875 43.28125 58.90625 
Q 39.453125 66.40625 31.78125 66.40625 
z
M 31.78125 74.21875 
Q 44.046875 74.21875 50.515625 64.515625 
Q 56.984375 54.828125 56.984375 36.375 
Q 56.984375 17.96875 50.515625 8.265625 
Q 44.046875 -1.421875 31.78125 -1.421875 
Q 19.53125 -1.421875 13.0625 8.265625 
Q 6.59375 17.96875 6.59375 36.375 
Q 6.59375 54.828125 13.0625 64.515625 
Q 19.53125 74.21875 31.78125 74.21875 
z
" id="DejaVuSans-48"/>
      </defs>
      <g style="fill:#262626;" transform="translate(82.871875 381.028711)scale(0.165 -0.165)">
       <use xlink:href="#DejaVuSans-48"/>
      </g>
     </g>
    </g>
    <g id="ytick_2">
     <g id="line2d_2">
      <path clip-path="url(#p2fa5fae88d)" d="M 105.87 316.803913 
L 700.56 316.803913 
" style="fill:none;stroke:#cccccc;stroke-linecap:round;stroke-width:1.5;"/>
     </g>
     <g id="text_7">
      <!-- 5000 -->
      <defs>
       <path d="M 10.796875 72.90625 
L 49.515625 72.90625 
L 49.515625 64.59375 
L 19.828125 64.59375 
L 19.828125 46.734375 
Q 21.96875 47.46875 24.109375 47.828125 
Q 26.265625 48.1875 28.421875 48.1875 
Q 40.625 48.1875 47.75 41.5 
Q 54.890625 34.8125 54.890625 23.390625 
Q 54.890625 11.625 47.5625 5.09375 
Q 40.234375 -1.421875 26.90625 -1.421875 
Q 22.3125 -1.421875 17.546875 -0.640625 
Q 12.796875 0.140625 7.71875 1.703125 
L 7.71875 11.625 
Q 12.109375 9.234375 16.796875 8.0625 
Q 21.484375 6.890625 26.703125 6.890625 
Q 35.15625 6.890625 40.078125 11.328125 
Q 45.015625 15.765625 45.015625 23.390625 
Q 45.015625 31 40.078125 35.4375 
Q 35.15625 39.890625 26.703125 39.890625 
Q 22.75 39.890625 18.8125 39.015625 
Q 14.890625 38.140625 10.796875 36.28125 
z
" id="DejaVuSans-53"/>
      </defs>
      <g style="fill:#262626;" transform="translate(51.3775 323.072624)scale(0.165 -0.165)">
       <use xlink:href="#DejaVuSans-53"/>
       <use x="63.623047" xlink:href="#DejaVuSans-48"/>
       <use x="127.246094" xlink:href="#DejaVuSans-48"/>
       <use x="190.869141" xlink:href="#DejaVuSans-48"/>
      </g>
     </g>
    </g>
    <g id="ytick_3">
     <g id="line2d_3">
      <path clip-path="url(#p2fa5fae88d)" d="M 105.87 258.847826 
L 700.56 258.847826 
" style="fill:none;stroke:#cccccc;stroke-linecap:round;stroke-width:1.5;"/>
     </g>
     <g id="text_8">
      <!-- 10000 -->
      <defs>
       <path d="M 12.40625 8.296875 
L 28.515625 8.296875 
L 28.515625 63.921875 
L 10.984375 60.40625 
L 10.984375 69.390625 
L 28.421875 72.90625 
L 38.28125 72.90625 
L 38.28125 8.296875 
L 54.390625 8.296875 
L 54.390625 0 
L 12.40625 0 
z
" id="DejaVuSans-49"/>
      </defs>
      <g style="fill:#262626;" transform="translate(40.879375 265.116537)scale(0.165 -0.165)">
       <use xlink:href="#DejaVuSans-49"/>
       <use x="63.623047" xlink:href="#DejaVuSans-48"/>
       <use x="127.246094" xlink:href="#DejaVuSans-48"/>
       <use x="190.869141" xlink:href="#DejaVuSans-48"/>
       <use x="254.492188" xlink:href="#DejaVuSans-48"/>
      </g>
     </g>
    </g>
    <g id="ytick_4">
     <g id="line2d_4">
      <path clip-path="url(#p2fa5fae88d)" d="M 105.87 200.891738 
L 700.56 200.891738 
" style="fill:none;stroke:#cccccc;stroke-linecap:round;stroke-width:1.5;"/>
     </g>
     <g id="text_9">
      <!-- 15000 -->
      <g style="fill:#262626;" transform="translate(40.879375 207.160449)scale(0.165 -0.165)">
       <use xlink:href="#DejaVuSans-49"/>
       <use x="63.623047" xlink:href="#DejaVuSans-53"/>
       <use x="127.246094" xlink:href="#DejaVuSans-48"/>
       <use x="190.869141" xlink:href="#DejaVuSans-48"/>
       <use x="254.492188" xlink:href="#DejaVuSans-48"/>
      </g>
     </g>
    </g>
    <g id="ytick_5">
     <g id="line2d_5">
      <path clip-path="url(#p2fa5fae88d)" d="M 105.87 142.935651 
L 700.56 142.935651 
" style="fill:none;stroke:#cccccc;stroke-linecap:round;stroke-width:1.5;"/>
     </g>
     <g id="text_10">
      <!-- 20000 -->
      <defs>
       <path d="M 19.1875 8.296875 
L 53.609375 8.296875 
L 53.609375 0 
L 7.328125 0 
L 7.328125 8.296875 
Q 12.9375 14.109375 22.625 23.890625 
Q 32.328125 33.6875 34.8125 36.53125 
Q 39.546875 41.84375 41.421875 45.53125 
Q 43.3125 49.21875 43.3125 52.78125 
Q 43.3125 58.59375 39.234375 62.25 
Q 35.15625 65.921875 28.609375 65.921875 
Q 23.96875 65.921875 18.8125 64.3125 
Q 13.671875 62.703125 7.8125 59.421875 
L 7.8125 69.390625 
Q 13.765625 71.78125 18.9375 73 
Q 24.125 74.21875 28.421875 74.21875 
Q 39.75 74.21875 46.484375 68.546875 
Q 53.21875 62.890625 53.21875 53.421875 
Q 53.21875 48.921875 51.53125 44.890625 
Q 49.859375 40.875 45.40625 35.40625 
Q 44.1875 33.984375 37.640625 27.21875 
Q 31.109375 20.453125 19.1875 8.296875 
z
" id="DejaVuSans-50"/>
      </defs>
      <g style="fill:#262626;" transform="translate(40.879375 149.204362)scale(0.165 -0.165)">
       <use xlink:href="#DejaVuSans-50"/>
       <use x="63.623047" xlink:href="#DejaVuSans-48"/>
       <use x="127.246094" xlink:href="#DejaVuSans-48"/>
       <use x="190.869141" xlink:href="#DejaVuSans-48"/>
       <use x="254.492188" xlink:href="#DejaVuSans-48"/>
      </g>
     </g>
    </g>
    <g id="text_11">
     <!-- Total effect -->
     <defs>
      <path d="M -0.296875 72.90625 
L 61.375 72.90625 
L 61.375 64.59375 
L 35.5 64.59375 
L 35.5 0 
L 25.59375 0 
L 25.59375 64.59375 
L -0.296875 64.59375 
z
" id="DejaVuSans-84"/>
      <path d="M 30.609375 48.390625 
Q 23.390625 48.390625 19.1875 42.75 
Q 14.984375 37.109375 14.984375 27.296875 
Q 14.984375 17.484375 19.15625 11.84375 
Q 23.34375 6.203125 30.609375 6.203125 
Q 37.796875 6.203125 41.984375 11.859375 
Q 46.1875 17.53125 46.1875 27.296875 
Q 46.1875 37.015625 41.984375 42.703125 
Q 37.796875 48.390625 30.609375 48.390625 
z
M 30.609375 56 
Q 42.328125 56 49.015625 48.375 
Q 55.71875 40.765625 55.71875 27.296875 
Q 55.71875 13.875 49.015625 6.21875 
Q 42.328125 -1.421875 30.609375 -1.421875 
Q 18.84375 -1.421875 12.171875 6.21875 
Q 5.515625 13.875 5.515625 27.296875 
Q 5.515625 40.765625 12.171875 48.375 
Q 18.84375 56 30.609375 56 
z
" id="DejaVuSans-111"/>
      <path id="DejaVuSans-32"/>
      <path d="M 37.109375 75.984375 
L 37.109375 68.5 
L 28.515625 68.5 
Q 23.6875 68.5 21.796875 66.546875 
Q 19.921875 64.59375 19.921875 59.515625 
L 19.921875 54.6875 
L 34.71875 54.6875 
L 34.71875 47.703125 
L 19.921875 47.703125 
L 19.921875 0 
L 10.890625 0 
L 10.890625 47.703125 
L 2.296875 47.703125 
L 2.296875 54.6875 
L 10.890625 54.6875 
L 10.890625 58.5 
Q 10.890625 67.625 15.140625 71.796875 
Q 19.390625 75.984375 28.609375 75.984375 
z
" id="DejaVuSans-102"/>
      <path d="M 48.78125 52.59375 
L 48.78125 44.1875 
Q 44.96875 46.296875 41.140625 47.34375 
Q 37.3125 48.390625 33.40625 48.390625 
Q 24.65625 48.390625 19.8125 42.84375 
Q 14.984375 37.3125 14.984375 27.296875 
Q 14.984375 17.28125 19.8125 11.734375 
Q 24.65625 6.203125 33.40625 6.203125 
Q 37.3125 6.203125 41.140625 7.25 
Q 44.96875 8.296875 48.78125 10.40625 
L 48.78125 2.09375 
Q 45.015625 0.34375 40.984375 -0.53125 
Q 36.96875 -1.421875 32.421875 -1.421875 
Q 20.0625 -1.421875 12.78125 6.34375 
Q 5.515625 14.109375 5.515625 27.296875 
Q 5.515625 40.671875 12.859375 48.328125 
Q 20.21875 56 33.015625 56 
Q 37.15625 56 41.109375 55.140625 
Q 45.0625 54.296875 48.78125 52.59375 
z
" id="DejaVuSans-99"/>
     </defs>
     <g style="fill:#262626;" transform="translate(33.135937 294.213281)rotate(-90)scale(0.18 -0.18)">
      <use xlink:href="#DejaVuSans-84"/>
      <use x="60.818359" xlink:href="#DejaVuSans-111"/>
      <use x="122" xlink:href="#DejaVuSans-116"/>
      <use x="161.208984" xlink:href="#DejaVuSans-97"/>
      <use x="222.488281" xlink:href="#DejaVuSans-108"/>
      <use x="250.271484" xlink:href="#DejaVuSans-32"/>
      <use x="282.058594" xlink:href="#DejaVuSans-101"/>
      <use x="343.582031" xlink:href="#DejaVuSans-102"/>
      <use x="378.787109" xlink:href="#DejaVuSans-102"/>
      <use x="413.992188" xlink:href="#DejaVuSans-101"/>
      <use x="475.515625" xlink:href="#DejaVuSans-99"/>
      <use x="530.496094" xlink:href="#DejaVuSans-116"/>
     </g>
    </g>
   </g>
   <g id="patch_3">
    <path clip-path="url(#p2fa5fae88d)" d="M 117.7638 374.76 
L 212.9142 374.76 
L 212.9142 360.186059 
L 117.7638 360.186059 
z
" style="fill:#3274a1;stroke:#ffffff;stroke-linejoin:miter;stroke-width:1.5;"/>
   </g>
   <g id="patch_4">
    <path clip-path="url(#p2fa5fae88d)" d="M 236.7018 374.76 
L 331.8522 374.76 
L 331.8522 315.38163 
L 236.7018 315.38163 
z
" style="fill:#3274a1;stroke:#ffffff;stroke-linejoin:miter;stroke-width:1.5;"/>
   </g>
   <g id="patch_5">
    <path clip-path="url(#p2fa5fae88d)" d="M 355.6398 374.76 
L 450.7902 374.76 
L 450.7902 319.45968 
L 355.6398 319.45968 
z
" style="fill:#3274a1;stroke:#ffffff;stroke-linejoin:miter;stroke-width:1.5;"/>
   </g>
   <g id="patch_6">
    <path clip-path="url(#p2fa5fae88d)" d="M 474.5778 374.76 
L 569.7282 374.76 
L 569.7282 346.393668 
L 474.5778 346.393668 
z
" style="fill:#3274a1;stroke:#ffffff;stroke-linejoin:miter;stroke-width:1.5;"/>
   </g>
   <g id="patch_7">
    <path clip-path="url(#p2fa5fae88d)" d="M 593.5158 374.76 
L 688.6662 374.76 
L 688.6662 338.255302 
L 593.5158 338.255302 
z
" style="fill:#3274a1;stroke:#ffffff;stroke-linejoin:miter;stroke-width:1.5;"/>
   </g>
   <g id="line2d_6">
    <path clip-path="url(#p2fa5fae88d)" d="M 165.339 361.804682 
L 165.339 358.425486 
" style="fill:none;stroke:#424242;stroke-linecap:round;stroke-width:4.05;"/>
   </g>
   <g id="line2d_7">
    <path clip-path="url(#p2fa5fae88d)" d="M 284.277 323.461212 
L 284.277 306.6387 
" style="fill:none;stroke:#424242;stroke-linecap:round;stroke-width:4.05;"/>
   </g>
   <g id="line2d_8">
    <path clip-path="url(#p2fa5fae88d)" d="M 403.215 325.547178 
L 403.215 312.426858 
" style="fill:none;stroke:#424242;stroke-linecap:round;stroke-width:4.05;"/>
   </g>
   <g id="line2d_9">
    <path clip-path="url(#p2fa5fae88d)" d="M 522.153 349.166132 
L 522.153 343.392193 
" style="fill:none;stroke:#424242;stroke-linecap:round;stroke-width:4.05;"/>
   </g>
   <g id="line2d_10">
    <path clip-path="url(#p2fa5fae88d)" d="M 641.091 342.21108 
L 641.091 333.603691 
" style="fill:none;stroke:#424242;stroke-linecap:round;stroke-width:4.05;"/>
   </g>
   <g id="patch_8">
    <path d="M 105.87 374.76 
L 105.87 111.12 
" style="fill:none;stroke:#cccccc;stroke-linecap:square;stroke-linejoin:miter;stroke-width:1.875;"/>
   </g>
   <g id="patch_9">
    <path d="M 105.87 374.76 
L 700.56 374.76 
" style="fill:none;stroke:#cccccc;stroke-linecap:square;stroke-linejoin:miter;stroke-width:1.875;"/>
   </g>
   <g id="text_12">
    <!-- Intervening tokens = None -->
    <defs>
     <path d="M 9.8125 72.90625 
L 19.671875 72.90625 
L 19.671875 0 
L 9.8125 0 
z
" id="DejaVuSans-73"/>
     <path d="M 54.890625 33.015625 
L 54.890625 0 
L 45.90625 0 
L 45.90625 32.71875 
Q 45.90625 40.484375 42.875 44.328125 
Q 39.84375 48.1875 33.796875 48.1875 
Q 26.515625 48.1875 22.3125 43.546875 
Q 18.109375 38.921875 18.109375 30.90625 
L 18.109375 0 
L 9.078125 0 
L 9.078125 54.6875 
L 18.109375 54.6875 
L 18.109375 46.1875 
Q 21.34375 51.125 25.703125 53.5625 
Q 30.078125 56 35.796875 56 
Q 45.21875 56 50.046875 50.171875 
Q 54.890625 44.34375 54.890625 33.015625 
z
" id="DejaVuSans-110"/>
     <path d="M 2.984375 54.6875 
L 12.5 54.6875 
L 29.59375 8.796875 
L 46.6875 54.6875 
L 56.203125 54.6875 
L 35.6875 0 
L 23.484375 0 
z
" id="DejaVuSans-118"/>
     <path d="M 9.078125 75.984375 
L 18.109375 75.984375 
L 18.109375 31.109375 
L 44.921875 54.6875 
L 56.390625 54.6875 
L 27.390625 29.109375 
L 57.625 0 
L 45.90625 0 
L 18.109375 26.703125 
L 18.109375 0 
L 9.078125 0 
z
" id="DejaVuSans-107"/>
     <path d="M 10.59375 45.40625 
L 73.1875 45.40625 
L 73.1875 37.203125 
L 10.59375 37.203125 
z
M 10.59375 25.484375 
L 73.1875 25.484375 
L 73.1875 17.1875 
L 10.59375 17.1875 
z
" id="DejaVuSans-61"/>
     <path d="M 9.8125 72.90625 
L 23.09375 72.90625 
L 55.421875 11.921875 
L 55.421875 72.90625 
L 64.984375 72.90625 
L 64.984375 0 
L 51.703125 0 
L 19.390625 60.984375 
L 19.390625 0 
L 9.8125 0 
z
" id="DejaVuSans-78"/>
    </defs>
    <g style="fill:#262626;" transform="translate(281.8275 105.12)scale(0.18 -0.18)">
     <use xlink:href="#DejaVuSans-73"/>
     <use x="29.492188" xlink:href="#DejaVuSans-110"/>
     <use x="92.871094" xlink:href="#DejaVuSans-116"/>
     <use x="132.080078" xlink:href="#DejaVuSans-101"/>
     <use x="193.603516" xlink:href="#DejaVuSans-114"/>
     <use x="234.716797" xlink:href="#DejaVuSans-118"/>
     <use x="293.896484" xlink:href="#DejaVuSans-101"/>
     <use x="355.419922" xlink:href="#DejaVuSans-110"/>
     <use x="418.798828" xlink:href="#DejaVuSans-105"/>
     <use x="446.582031" xlink:href="#DejaVuSans-110"/>
     <use x="509.960938" xlink:href="#DejaVuSans-103"/>
     <use x="573.4375" xlink:href="#DejaVuSans-32"/>
     <use x="605.224609" xlink:href="#DejaVuSans-116"/>
     <use x="644.433594" xlink:href="#DejaVuSans-111"/>
     <use x="705.615234" xlink:href="#DejaVuSans-107"/>
     <use x="763.478516" xlink:href="#DejaVuSans-101"/>
     <use x="825.001953" xlink:href="#DejaVuSans-110"/>
     <use x="888.380859" xlink:href="#DejaVuSans-115"/>
     <use x="940.480469" xlink:href="#DejaVuSans-32"/>
     <use x="972.267578" xlink:href="#DejaVuSans-61"/>
     <use x="1056.056641" xlink:href="#DejaVuSans-32"/>
     <use x="1087.84375" xlink:href="#DejaVuSans-78"/>
     <use x="1162.648438" xlink:href="#DejaVuSans-111"/>
     <use x="1223.830078" xlink:href="#DejaVuSans-110"/>
     <use x="1287.208984" xlink:href="#DejaVuSans-101"/>
    </g>
   </g>
  </g>
  <g id="axes_2">
   <g id="patch_10">
    <path d="M 105.87 706.58 
L 700.56 706.58 
L 700.56 442.94 
L 105.87 442.94 
z
" style="fill:#ffffff;"/>
   </g>
   <g id="matplotlib.axis_3">
    <g id="xtick_6">
     <g id="text_13">
      <!-- Distil -->
      <g style="fill:#262626;" transform="translate(144.578648 731.617422)scale(0.165 -0.165)">
       <use xlink:href="#DejaVuSans-68"/>
       <use x="77.001953" xlink:href="#DejaVuSans-105"/>
       <use x="104.785156" xlink:href="#DejaVuSans-115"/>
       <use x="156.884766" xlink:href="#DejaVuSans-116"/>
       <use x="196.09375" xlink:href="#DejaVuSans-105"/>
       <use x="223.876953" xlink:href="#DejaVuSans-108"/>
      </g>
     </g>
    </g>
    <g id="xtick_7">
     <g id="text_14">
      <!-- Small -->
      <g style="fill:#262626;" transform="translate(261.363914 731.617422)scale(0.165 -0.165)">
       <use xlink:href="#DejaVuSans-83"/>
       <use x="63.476562" xlink:href="#DejaVuSans-109"/>
       <use x="160.888672" xlink:href="#DejaVuSans-97"/>
       <use x="222.167969" xlink:href="#DejaVuSans-108"/>
       <use x="249.951172" xlink:href="#DejaVuSans-108"/>
      </g>
     </g>
    </g>
    <g id="xtick_8">
     <g id="text_15">
      <!-- Medium -->
      <g style="fill:#262626;" transform="translate(370.226602 731.617422)scale(0.165 -0.165)">
       <use xlink:href="#DejaVuSans-77"/>
       <use x="86.279297" xlink:href="#DejaVuSans-101"/>
       <use x="147.802734" xlink:href="#DejaVuSans-100"/>
       <use x="211.279297" xlink:href="#DejaVuSans-105"/>
       <use x="239.0625" xlink:href="#DejaVuSans-117"/>
       <use x="302.441406" xlink:href="#DejaVuSans-109"/>
      </g>
     </g>
    </g>
    <g id="xtick_9">
     <g id="text_16">
      <!-- Large -->
      <g style="fill:#262626;" transform="translate(498.796477 731.617422)scale(0.165 -0.165)">
       <use xlink:href="#DejaVuSans-76"/>
       <use x="55.712891" xlink:href="#DejaVuSans-97"/>
       <use x="116.992188" xlink:href="#DejaVuSans-114"/>
       <use x="158.089844" xlink:href="#DejaVuSans-103"/>
       <use x="221.566406" xlink:href="#DejaVuSans-101"/>
      </g>
     </g>
    </g>
    <g id="xtick_10">
     <g id="text_17">
      <!-- XL -->
      <g style="fill:#262626;" transform="translate(630.842953 731.617422)scale(0.165 -0.165)">
       <use xlink:href="#DejaVuSans-88"/>
       <use x="68.505859" xlink:href="#DejaVuSans-76"/>
      </g>
     </g>
    </g>
   </g>
   <g id="matplotlib.axis_4">
    <g id="ytick_6">
     <g id="line2d_11">
      <path clip-path="url(#p3d7391b71c)" d="M 105.87 706.58 
L 700.56 706.58 
" style="fill:none;stroke:#cccccc;stroke-linecap:round;stroke-width:1.5;"/>
     </g>
     <g id="text_18">
      <!-- 0 -->
      <g style="fill:#262626;" transform="translate(82.871875 712.848711)scale(0.165 -0.165)">
       <use xlink:href="#DejaVuSans-48"/>
      </g>
     </g>
    </g>
    <g id="ytick_7">
     <g id="line2d_12">
      <path clip-path="url(#p3d7391b71c)" d="M 105.87 648.623913 
L 700.56 648.623913 
" style="fill:none;stroke:#cccccc;stroke-linecap:round;stroke-width:1.5;"/>
     </g>
     <g id="text_19">
      <!-- 5000 -->
      <g style="fill:#262626;" transform="translate(51.3775 654.892624)scale(0.165 -0.165)">
       <use xlink:href="#DejaVuSans-53"/>
       <use x="63.623047" xlink:href="#DejaVuSans-48"/>
       <use x="127.246094" xlink:href="#DejaVuSans-48"/>
       <use x="190.869141" xlink:href="#DejaVuSans-48"/>
      </g>
     </g>
    </g>
    <g id="ytick_8">
     <g id="line2d_13">
      <path clip-path="url(#p3d7391b71c)" d="M 105.87 590.667826 
L 700.56 590.667826 
" style="fill:none;stroke:#cccccc;stroke-linecap:round;stroke-width:1.5;"/>
     </g>
     <g id="text_20">
      <!-- 10000 -->
      <g style="fill:#262626;" transform="translate(40.879375 596.936537)scale(0.165 -0.165)">
       <use xlink:href="#DejaVuSans-49"/>
       <use x="63.623047" xlink:href="#DejaVuSans-48"/>
       <use x="127.246094" xlink:href="#DejaVuSans-48"/>
       <use x="190.869141" xlink:href="#DejaVuSans-48"/>
       <use x="254.492188" xlink:href="#DejaVuSans-48"/>
      </g>
     </g>
    </g>
    <g id="ytick_9">
     <g id="line2d_14">
      <path clip-path="url(#p3d7391b71c)" d="M 105.87 532.711738 
L 700.56 532.711738 
" style="fill:none;stroke:#cccccc;stroke-linecap:round;stroke-width:1.5;"/>
     </g>
     <g id="text_21">
      <!-- 15000 -->
      <g style="fill:#262626;" transform="translate(40.879375 538.980449)scale(0.165 -0.165)">
       <use xlink:href="#DejaVuSans-49"/>
       <use x="63.623047" xlink:href="#DejaVuSans-53"/>
       <use x="127.246094" xlink:href="#DejaVuSans-48"/>
       <use x="190.869141" xlink:href="#DejaVuSans-48"/>
       <use x="254.492188" xlink:href="#DejaVuSans-48"/>
      </g>
     </g>
    </g>
    <g id="ytick_10">
     <g id="line2d_15">
      <path clip-path="url(#p3d7391b71c)" d="M 105.87 474.755651 
L 700.56 474.755651 
" style="fill:none;stroke:#cccccc;stroke-linecap:round;stroke-width:1.5;"/>
     </g>
     <g id="text_22">
      <!-- 20000 -->
      <g style="fill:#262626;" transform="translate(40.879375 481.024362)scale(0.165 -0.165)">
       <use xlink:href="#DejaVuSans-50"/>
       <use x="63.623047" xlink:href="#DejaVuSans-48"/>
       <use x="127.246094" xlink:href="#DejaVuSans-48"/>
       <use x="190.869141" xlink:href="#DejaVuSans-48"/>
       <use x="254.492188" xlink:href="#DejaVuSans-48"/>
      </g>
     </g>
    </g>
    <g id="text_23">
     <!-- Total effect -->
     <g style="fill:#262626;" transform="translate(33.135937 626.033281)rotate(-90)scale(0.18 -0.18)">
      <use xlink:href="#DejaVuSans-84"/>
      <use x="60.818359" xlink:href="#DejaVuSans-111"/>
      <use x="122" xlink:href="#DejaVuSans-116"/>
      <use x="161.208984" xlink:href="#DejaVuSans-97"/>
      <use x="222.488281" xlink:href="#DejaVuSans-108"/>
      <use x="250.271484" xlink:href="#DejaVuSans-32"/>
      <use x="282.058594" xlink:href="#DejaVuSans-101"/>
      <use x="343.582031" xlink:href="#DejaVuSans-102"/>
      <use x="378.787109" xlink:href="#DejaVuSans-102"/>
      <use x="413.992188" xlink:href="#DejaVuSans-101"/>
      <use x="475.515625" xlink:href="#DejaVuSans-99"/>
      <use x="530.496094" xlink:href="#DejaVuSans-116"/>
     </g>
    </g>
   </g>
   <g id="patch_11">
    <path clip-path="url(#p3d7391b71c)" d="M 117.7638 706.58 
L 212.9142 706.58 
L 212.9142 571.079116 
L 117.7638 571.079116 
z
" style="fill:#3274a1;stroke:#ffffff;stroke-linejoin:miter;stroke-width:1.5;"/>
   </g>
   <g id="patch_12">
    <path clip-path="url(#p3d7391b71c)" d="M 236.7018 706.58 
L 331.8522 706.58 
L 331.8522 497.599098 
L 236.7018 497.599098 
z
" style="fill:#3274a1;stroke:#ffffff;stroke-linejoin:miter;stroke-width:1.5;"/>
   </g>
   <g id="patch_13">
    <path clip-path="url(#p3d7391b71c)" d="M 355.6398 706.58 
L 450.7902 706.58 
L 450.7902 603.144916 
L 355.6398 603.144916 
z
" style="fill:#3274a1;stroke:#ffffff;stroke-linejoin:miter;stroke-width:1.5;"/>
   </g>
   <g id="patch_14">
    <path clip-path="url(#p3d7391b71c)" d="M 474.5778 706.58 
L 569.7282 706.58 
L 569.7282 643.109011 
L 474.5778 643.109011 
z
" style="fill:#3274a1;stroke:#ffffff;stroke-linejoin:miter;stroke-width:1.5;"/>
   </g>
   <g id="patch_15">
    <path clip-path="url(#p3d7391b71c)" d="M 593.5158 706.58 
L 688.6662 706.58 
L 688.6662 651.662908 
L 593.5158 651.662908 
z
" style="fill:#3274a1;stroke:#ffffff;stroke-linejoin:miter;stroke-width:1.5;"/>
   </g>
   <g id="line2d_16">
    <path clip-path="url(#p3d7391b71c)" d="M 165.339 590.932875 
L 165.339 548.223213 
" style="fill:none;stroke:#424242;stroke-linecap:round;stroke-width:4.05;"/>
   </g>
   <g id="line2d_17">
    <path clip-path="url(#p3d7391b71c)" d="M 284.277 533.824694 
L 284.277 455.494286 
" style="fill:none;stroke:#424242;stroke-linecap:round;stroke-width:4.05;"/>
   </g>
   <g id="line2d_18">
    <path clip-path="url(#p3d7391b71c)" d="M 403.215 620.62596 
L 403.215 585.647913 
" style="fill:none;stroke:#424242;stroke-linecap:round;stroke-width:4.05;"/>
   </g>
   <g id="line2d_19">
    <path clip-path="url(#p3d7391b71c)" d="M 522.153 654.630084 
L 522.153 629.346819 
" style="fill:none;stroke:#424242;stroke-linecap:round;stroke-width:4.05;"/>
   </g>
   <g id="line2d_20">
    <path clip-path="url(#p3d7391b71c)" d="M 641.091 662.308736 
L 641.091 637.542186 
" style="fill:none;stroke:#424242;stroke-linecap:round;stroke-width:4.05;"/>
   </g>
   <g id="patch_16">
    <path d="M 105.87 706.58 
L 105.87 442.94 
" style="fill:none;stroke:#cccccc;stroke-linecap:square;stroke-linejoin:miter;stroke-width:1.875;"/>
   </g>
   <g id="patch_17">
    <path d="M 105.87 706.58 
L 700.56 706.58 
" style="fill:none;stroke:#cccccc;stroke-linecap:square;stroke-linejoin:miter;stroke-width:1.875;"/>
   </g>
   <g id="text_24">
    <!-- Intervening tokens = Distractor -->
    <g style="fill:#262626;" transform="translate(260.763281 436.94)scale(0.18 -0.18)">
     <use xlink:href="#DejaVuSans-73"/>
     <use x="29.492188" xlink:href="#DejaVuSans-110"/>
     <use x="92.871094" xlink:href="#DejaVuSans-116"/>
     <use x="132.080078" xlink:href="#DejaVuSans-101"/>
     <use x="193.603516" xlink:href="#DejaVuSans-114"/>
     <use x="234.716797" xlink:href="#DejaVuSans-118"/>
     <use x="293.896484" xlink:href="#DejaVuSans-101"/>
     <use x="355.419922" xlink:href="#DejaVuSans-110"/>
     <use x="418.798828" xlink:href="#DejaVuSans-105"/>
     <use x="446.582031" xlink:href="#DejaVuSans-110"/>
     <use x="509.960938" xlink:href="#DejaVuSans-103"/>
     <use x="573.4375" xlink:href="#DejaVuSans-32"/>
     <use x="605.224609" xlink:href="#DejaVuSans-116"/>
     <use x="644.433594" xlink:href="#DejaVuSans-111"/>
     <use x="705.615234" xlink:href="#DejaVuSans-107"/>
     <use x="763.478516" xlink:href="#DejaVuSans-101"/>
     <use x="825.001953" xlink:href="#DejaVuSans-110"/>
     <use x="888.380859" xlink:href="#DejaVuSans-115"/>
     <use x="940.480469" xlink:href="#DejaVuSans-32"/>
     <use x="972.267578" xlink:href="#DejaVuSans-61"/>
     <use x="1056.056641" xlink:href="#DejaVuSans-32"/>
     <use x="1087.84375" xlink:href="#DejaVuSans-68"/>
     <use x="1164.845703" xlink:href="#DejaVuSans-105"/>
     <use x="1192.628906" xlink:href="#DejaVuSans-115"/>
     <use x="1244.728516" xlink:href="#DejaVuSans-116"/>
     <use x="1283.9375" xlink:href="#DejaVuSans-114"/>
     <use x="1325.050781" xlink:href="#DejaVuSans-97"/>
     <use x="1386.330078" xlink:href="#DejaVuSans-99"/>
     <use x="1441.310547" xlink:href="#DejaVuSans-116"/>
     <use x="1480.519531" xlink:href="#DejaVuSans-111"/>
     <use x="1541.701172" xlink:href="#DejaVuSans-114"/>
    </g>
   </g>
  </g>
  <g id="axes_3">
   <g id="patch_18">
    <path d="M 105.87 1038.4 
L 700.56 1038.4 
L 700.56 774.76 
L 105.87 774.76 
z
" style="fill:#ffffff;"/>
   </g>
   <g id="matplotlib.axis_5">
    <g id="xtick_11">
     <g id="text_25">
      <!-- Distil -->
      <g style="fill:#262626;" transform="translate(144.578648 1063.437422)scale(0.165 -0.165)">
       <use xlink:href="#DejaVuSans-68"/>
       <use x="77.001953" xlink:href="#DejaVuSans-105"/>
       <use x="104.785156" xlink:href="#DejaVuSans-115"/>
       <use x="156.884766" xlink:href="#DejaVuSans-116"/>
       <use x="196.09375" xlink:href="#DejaVuSans-105"/>
       <use x="223.876953" xlink:href="#DejaVuSans-108"/>
      </g>
     </g>
    </g>
    <g id="xtick_12">
     <g id="text_26">
      <!-- Small -->
      <g style="fill:#262626;" transform="translate(261.363914 1063.437422)scale(0.165 -0.165)">
       <use xlink:href="#DejaVuSans-83"/>
       <use x="63.476562" xlink:href="#DejaVuSans-109"/>
       <use x="160.888672" xlink:href="#DejaVuSans-97"/>
       <use x="222.167969" xlink:href="#DejaVuSans-108"/>
       <use x="249.951172" xlink:href="#DejaVuSans-108"/>
      </g>
     </g>
    </g>
    <g id="xtick_13">
     <g id="text_27">
      <!-- Medium -->
      <g style="fill:#262626;" transform="translate(370.226602 1063.437422)scale(0.165 -0.165)">
       <use xlink:href="#DejaVuSans-77"/>
       <use x="86.279297" xlink:href="#DejaVuSans-101"/>
       <use x="147.802734" xlink:href="#DejaVuSans-100"/>
       <use x="211.279297" xlink:href="#DejaVuSans-105"/>
       <use x="239.0625" xlink:href="#DejaVuSans-117"/>
       <use x="302.441406" xlink:href="#DejaVuSans-109"/>
      </g>
     </g>
    </g>
    <g id="xtick_14">
     <g id="text_28">
      <!-- Large -->
      <g style="fill:#262626;" transform="translate(498.796477 1063.437422)scale(0.165 -0.165)">
       <use xlink:href="#DejaVuSans-76"/>
       <use x="55.712891" xlink:href="#DejaVuSans-97"/>
       <use x="116.992188" xlink:href="#DejaVuSans-114"/>
       <use x="158.089844" xlink:href="#DejaVuSans-103"/>
       <use x="221.566406" xlink:href="#DejaVuSans-101"/>
      </g>
     </g>
    </g>
    <g id="xtick_15">
     <g id="text_29">
      <!-- XL -->
      <g style="fill:#262626;" transform="translate(630.842953 1063.437422)scale(0.165 -0.165)">
       <use xlink:href="#DejaVuSans-88"/>
       <use x="68.505859" xlink:href="#DejaVuSans-76"/>
      </g>
     </g>
    </g>
   </g>
   <g id="matplotlib.axis_6">
    <g id="ytick_11">
     <g id="line2d_21">
      <path clip-path="url(#pa8dad97924)" d="M 105.87 1038.4 
L 700.56 1038.4 
" style="fill:none;stroke:#cccccc;stroke-linecap:round;stroke-width:1.5;"/>
     </g>
     <g id="text_30">
      <!-- 0 -->
      <g style="fill:#262626;" transform="translate(82.871875 1044.668711)scale(0.165 -0.165)">
       <use xlink:href="#DejaVuSans-48"/>
      </g>
     </g>
    </g>
    <g id="ytick_12">
     <g id="line2d_22">
      <path clip-path="url(#pa8dad97924)" d="M 105.87 980.443913 
L 700.56 980.443913 
" style="fill:none;stroke:#cccccc;stroke-linecap:round;stroke-width:1.5;"/>
     </g>
     <g id="text_31">
      <!-- 5000 -->
      <g style="fill:#262626;" transform="translate(51.3775 986.712624)scale(0.165 -0.165)">
       <use xlink:href="#DejaVuSans-53"/>
       <use x="63.623047" xlink:href="#DejaVuSans-48"/>
       <use x="127.246094" xlink:href="#DejaVuSans-48"/>
       <use x="190.869141" xlink:href="#DejaVuSans-48"/>
      </g>
     </g>
    </g>
    <g id="ytick_13">
     <g id="line2d_23">
      <path clip-path="url(#pa8dad97924)" d="M 105.87 922.487826 
L 700.56 922.487826 
" style="fill:none;stroke:#cccccc;stroke-linecap:round;stroke-width:1.5;"/>
     </g>
     <g id="text_32">
      <!-- 10000 -->
      <g style="fill:#262626;" transform="translate(40.879375 928.756537)scale(0.165 -0.165)">
       <use xlink:href="#DejaVuSans-49"/>
       <use x="63.623047" xlink:href="#DejaVuSans-48"/>
       <use x="127.246094" xlink:href="#DejaVuSans-48"/>
       <use x="190.869141" xlink:href="#DejaVuSans-48"/>
       <use x="254.492188" xlink:href="#DejaVuSans-48"/>
      </g>
     </g>
    </g>
    <g id="ytick_14">
     <g id="line2d_24">
      <path clip-path="url(#pa8dad97924)" d="M 105.87 864.531738 
L 700.56 864.531738 
" style="fill:none;stroke:#cccccc;stroke-linecap:round;stroke-width:1.5;"/>
     </g>
     <g id="text_33">
      <!-- 15000 -->
      <g style="fill:#262626;" transform="translate(40.879375 870.800449)scale(0.165 -0.165)">
       <use xlink:href="#DejaVuSans-49"/>
       <use x="63.623047" xlink:href="#DejaVuSans-53"/>
       <use x="127.246094" xlink:href="#DejaVuSans-48"/>
       <use x="190.869141" xlink:href="#DejaVuSans-48"/>
       <use x="254.492188" xlink:href="#DejaVuSans-48"/>
      </g>
     </g>
    </g>
    <g id="ytick_15">
     <g id="line2d_25">
      <path clip-path="url(#pa8dad97924)" d="M 105.87 806.575651 
L 700.56 806.575651 
" style="fill:none;stroke:#cccccc;stroke-linecap:round;stroke-width:1.5;"/>
     </g>
     <g id="text_34">
      <!-- 20000 -->
      <g style="fill:#262626;" transform="translate(40.879375 812.844362)scale(0.165 -0.165)">
       <use xlink:href="#DejaVuSans-50"/>
       <use x="63.623047" xlink:href="#DejaVuSans-48"/>
       <use x="127.246094" xlink:href="#DejaVuSans-48"/>
       <use x="190.869141" xlink:href="#DejaVuSans-48"/>
       <use x="254.492188" xlink:href="#DejaVuSans-48"/>
      </g>
     </g>
    </g>
    <g id="text_35">
     <!-- Total effect -->
     <g style="fill:#262626;" transform="translate(33.135937 957.853281)rotate(-90)scale(0.18 -0.18)">
      <use xlink:href="#DejaVuSans-84"/>
      <use x="60.818359" xlink:href="#DejaVuSans-111"/>
      <use x="122" xlink:href="#DejaVuSans-116"/>
      <use x="161.208984" xlink:href="#DejaVuSans-97"/>
      <use x="222.488281" xlink:href="#DejaVuSans-108"/>
      <use x="250.271484" xlink:href="#DejaVuSans-32"/>
      <use x="282.058594" xlink:href="#DejaVuSans-101"/>
      <use x="343.582031" xlink:href="#DejaVuSans-102"/>
      <use x="378.787109" xlink:href="#DejaVuSans-102"/>
      <use x="413.992188" xlink:href="#DejaVuSans-101"/>
      <use x="475.515625" xlink:href="#DejaVuSans-99"/>
      <use x="530.496094" xlink:href="#DejaVuSans-116"/>
     </g>
    </g>
   </g>
   <g id="patch_19">
    <path clip-path="url(#pa8dad97924)" d="M 117.7638 1038.4 
L 212.9142 1038.4 
L 212.9142 1032.088678 
L 117.7638 1032.088678 
z
" style="fill:#3274a1;stroke:#ffffff;stroke-linejoin:miter;stroke-width:1.5;"/>
   </g>
   <g id="patch_20">
    <path clip-path="url(#pa8dad97924)" d="M 236.7018 1038.4 
L 331.8522 1038.4 
L 331.8522 1032.695128 
L 236.7018 1032.695128 
z
" style="fill:#3274a1;stroke:#ffffff;stroke-linejoin:miter;stroke-width:1.5;"/>
   </g>
   <g id="patch_21">
    <path clip-path="url(#pa8dad97924)" d="M 355.6398 1038.4 
L 450.7902 1038.4 
L 450.7902 1024.87646 
L 355.6398 1024.87646 
z
" style="fill:#3274a1;stroke:#ffffff;stroke-linejoin:miter;stroke-width:1.5;"/>
   </g>
   <g id="patch_22">
    <path clip-path="url(#pa8dad97924)" d="M 474.5778 1038.4 
L 569.7282 1038.4 
L 569.7282 1026.893127 
L 474.5778 1026.893127 
z
" style="fill:#3274a1;stroke:#ffffff;stroke-linejoin:miter;stroke-width:1.5;"/>
   </g>
   <g id="patch_23">
    <path clip-path="url(#pa8dad97924)" d="M 593.5158 1038.4 
L 688.6662 1038.4 
L 688.6662 1026.857575 
L 593.5158 1026.857575 
z
" style="fill:#3274a1;stroke:#ffffff;stroke-linejoin:miter;stroke-width:1.5;"/>
   </g>
   <g id="line2d_26">
    <path clip-path="url(#pa8dad97924)" d="M 165.339 1033.189539 
L 165.339 1030.867792 
" style="fill:none;stroke:#424242;stroke-linecap:round;stroke-width:4.05;"/>
   </g>
   <g id="line2d_27">
    <path clip-path="url(#pa8dad97924)" d="M 284.277 1033.622584 
L 284.277 1031.772263 
" style="fill:none;stroke:#424242;stroke-linecap:round;stroke-width:4.05;"/>
   </g>
   <g id="line2d_28">
    <path clip-path="url(#pa8dad97924)" d="M 403.215 1026.682148 
L 403.215 1022.869751 
" style="fill:none;stroke:#424242;stroke-linecap:round;stroke-width:4.05;"/>
   </g>
   <g id="line2d_29">
    <path clip-path="url(#pa8dad97924)" d="M 522.153 1028.276644 
L 522.153 1025.396032 
" style="fill:none;stroke:#424242;stroke-linecap:round;stroke-width:4.05;"/>
   </g>
   <g id="line2d_30">
    <path clip-path="url(#pa8dad97924)" d="M 641.091 1028.303176 
L 641.091 1025.290816 
" style="fill:none;stroke:#424242;stroke-linecap:round;stroke-width:4.05;"/>
   </g>
   <g id="patch_24">
    <path d="M 105.87 1038.4 
L 105.87 774.76 
" style="fill:none;stroke:#cccccc;stroke-linecap:square;stroke-linejoin:miter;stroke-width:1.875;"/>
   </g>
   <g id="patch_25">
    <path d="M 105.87 1038.4 
L 700.56 1038.4 
" style="fill:none;stroke:#cccccc;stroke-linecap:square;stroke-linejoin:miter;stroke-width:1.875;"/>
   </g>
   <g id="text_36">
    <!-- Intervening tokens = Plural attractor -->
    <defs>
     <path d="M 19.671875 64.796875 
L 19.671875 37.40625 
L 32.078125 37.40625 
Q 38.96875 37.40625 42.71875 40.96875 
Q 46.484375 44.53125 46.484375 51.125 
Q 46.484375 57.671875 42.71875 61.234375 
Q 38.96875 64.796875 32.078125 64.796875 
z
M 9.8125 72.90625 
L 32.078125 72.90625 
Q 44.34375 72.90625 50.609375 67.359375 
Q 56.890625 61.8125 56.890625 51.125 
Q 56.890625 40.328125 50.609375 34.8125 
Q 44.34375 29.296875 32.078125 29.296875 
L 19.671875 29.296875 
L 19.671875 0 
L 9.8125 0 
z
" id="DejaVuSans-80"/>
    </defs>
    <g style="fill:#262626;" transform="translate(237.631875 768.76)scale(0.18 -0.18)">
     <use xlink:href="#DejaVuSans-73"/>
     <use x="29.492188" xlink:href="#DejaVuSans-110"/>
     <use x="92.871094" xlink:href="#DejaVuSans-116"/>
     <use x="132.080078" xlink:href="#DejaVuSans-101"/>
     <use x="193.603516" xlink:href="#DejaVuSans-114"/>
     <use x="234.716797" xlink:href="#DejaVuSans-118"/>
     <use x="293.896484" xlink:href="#DejaVuSans-101"/>
     <use x="355.419922" xlink:href="#DejaVuSans-110"/>
     <use x="418.798828" xlink:href="#DejaVuSans-105"/>
     <use x="446.582031" xlink:href="#DejaVuSans-110"/>
     <use x="509.960938" xlink:href="#DejaVuSans-103"/>
     <use x="573.4375" xlink:href="#DejaVuSans-32"/>
     <use x="605.224609" xlink:href="#DejaVuSans-116"/>
     <use x="644.433594" xlink:href="#DejaVuSans-111"/>
     <use x="705.615234" xlink:href="#DejaVuSans-107"/>
     <use x="763.478516" xlink:href="#DejaVuSans-101"/>
     <use x="825.001953" xlink:href="#DejaVuSans-110"/>
     <use x="888.380859" xlink:href="#DejaVuSans-115"/>
     <use x="940.480469" xlink:href="#DejaVuSans-32"/>
     <use x="972.267578" xlink:href="#DejaVuSans-61"/>
     <use x="1056.056641" xlink:href="#DejaVuSans-32"/>
     <use x="1087.84375" xlink:href="#DejaVuSans-80"/>
     <use x="1148.146484" xlink:href="#DejaVuSans-108"/>
     <use x="1175.929688" xlink:href="#DejaVuSans-117"/>
     <use x="1239.308594" xlink:href="#DejaVuSans-114"/>
     <use x="1280.421875" xlink:href="#DejaVuSans-97"/>
     <use x="1341.701172" xlink:href="#DejaVuSans-108"/>
     <use x="1369.484375" xlink:href="#DejaVuSans-32"/>
     <use x="1401.271484" xlink:href="#DejaVuSans-97"/>
     <use x="1462.550781" xlink:href="#DejaVuSans-116"/>
     <use x="1501.759766" xlink:href="#DejaVuSans-116"/>
     <use x="1540.96875" xlink:href="#DejaVuSans-114"/>
     <use x="1582.082031" xlink:href="#DejaVuSans-97"/>
     <use x="1643.361328" xlink:href="#DejaVuSans-99"/>
     <use x="1698.341797" xlink:href="#DejaVuSans-116"/>
     <use x="1737.550781" xlink:href="#DejaVuSans-111"/>
     <use x="1798.732422" xlink:href="#DejaVuSans-114"/>
    </g>
   </g>
  </g>
  <g id="axes_4">
   <g id="patch_26">
    <path d="M 105.87 1370.22 
L 700.56 1370.22 
L 700.56 1106.58 
L 105.87 1106.58 
z
" style="fill:#ffffff;"/>
   </g>
   <g id="matplotlib.axis_7">
    <g id="xtick_16">
     <g id="text_37">
      <!-- Distil -->
      <g style="fill:#262626;" transform="translate(144.578648 1395.257422)scale(0.165 -0.165)">
       <use xlink:href="#DejaVuSans-68"/>
       <use x="77.001953" xlink:href="#DejaVuSans-105"/>
       <use x="104.785156" xlink:href="#DejaVuSans-115"/>
       <use x="156.884766" xlink:href="#DejaVuSans-116"/>
       <use x="196.09375" xlink:href="#DejaVuSans-105"/>
       <use x="223.876953" xlink:href="#DejaVuSans-108"/>
      </g>
     </g>
    </g>
    <g id="xtick_17">
     <g id="text_38">
      <!-- Small -->
      <g style="fill:#262626;" transform="translate(261.363914 1395.257422)scale(0.165 -0.165)">
       <use xlink:href="#DejaVuSans-83"/>
       <use x="63.476562" xlink:href="#DejaVuSans-109"/>
       <use x="160.888672" xlink:href="#DejaVuSans-97"/>
       <use x="222.167969" xlink:href="#DejaVuSans-108"/>
       <use x="249.951172" xlink:href="#DejaVuSans-108"/>
      </g>
     </g>
    </g>
    <g id="xtick_18">
     <g id="text_39">
      <!-- Medium -->
      <g style="fill:#262626;" transform="translate(370.226602 1395.257422)scale(0.165 -0.165)">
       <use xlink:href="#DejaVuSans-77"/>
       <use x="86.279297" xlink:href="#DejaVuSans-101"/>
       <use x="147.802734" xlink:href="#DejaVuSans-100"/>
       <use x="211.279297" xlink:href="#DejaVuSans-105"/>
       <use x="239.0625" xlink:href="#DejaVuSans-117"/>
       <use x="302.441406" xlink:href="#DejaVuSans-109"/>
      </g>
     </g>
    </g>
    <g id="xtick_19">
     <g id="text_40">
      <!-- Large -->
      <g style="fill:#262626;" transform="translate(498.796477 1395.257422)scale(0.165 -0.165)">
       <use xlink:href="#DejaVuSans-76"/>
       <use x="55.712891" xlink:href="#DejaVuSans-97"/>
       <use x="116.992188" xlink:href="#DejaVuSans-114"/>
       <use x="158.089844" xlink:href="#DejaVuSans-103"/>
       <use x="221.566406" xlink:href="#DejaVuSans-101"/>
      </g>
     </g>
    </g>
    <g id="xtick_20">
     <g id="text_41">
      <!-- XL -->
      <g style="fill:#262626;" transform="translate(630.842953 1395.257422)scale(0.165 -0.165)">
       <use xlink:href="#DejaVuSans-88"/>
       <use x="68.505859" xlink:href="#DejaVuSans-76"/>
      </g>
     </g>
    </g>
    <g id="text_42">
     <!-- Model size -->
     <defs>
      <path d="M 5.515625 54.6875 
L 48.1875 54.6875 
L 48.1875 46.484375 
L 14.40625 7.171875 
L 48.1875 7.171875 
L 48.1875 0 
L 4.296875 0 
L 4.296875 8.203125 
L 38.09375 47.515625 
L 5.515625 47.515625 
z
" id="DejaVuSans-122"/>
     </defs>
     <g style="fill:#262626;" transform="translate(355.880625 1416.366094)scale(0.18 -0.18)">
      <use xlink:href="#DejaVuSans-77"/>
      <use x="86.279297" xlink:href="#DejaVuSans-111"/>
      <use x="147.460938" xlink:href="#DejaVuSans-100"/>
      <use x="210.9375" xlink:href="#DejaVuSans-101"/>
      <use x="272.460938" xlink:href="#DejaVuSans-108"/>
      <use x="300.244141" xlink:href="#DejaVuSans-32"/>
      <use x="332.03125" xlink:href="#DejaVuSans-115"/>
      <use x="384.130859" xlink:href="#DejaVuSans-105"/>
      <use x="411.914062" xlink:href="#DejaVuSans-122"/>
      <use x="464.404297" xlink:href="#DejaVuSans-101"/>
     </g>
    </g>
   </g>
   <g id="matplotlib.axis_8">
    <g id="ytick_16">
     <g id="line2d_31">
      <path clip-path="url(#p4e7a5b337e)" d="M 105.87 1370.22 
L 700.56 1370.22 
" style="fill:none;stroke:#cccccc;stroke-linecap:round;stroke-width:1.5;"/>
     </g>
     <g id="text_43">
      <!-- 0 -->
      <g style="fill:#262626;" transform="translate(82.871875 1376.488711)scale(0.165 -0.165)">
       <use xlink:href="#DejaVuSans-48"/>
      </g>
     </g>
    </g>
    <g id="ytick_17">
     <g id="line2d_32">
      <path clip-path="url(#p4e7a5b337e)" d="M 105.87 1312.263913 
L 700.56 1312.263913 
" style="fill:none;stroke:#cccccc;stroke-linecap:round;stroke-width:1.5;"/>
     </g>
     <g id="text_44">
      <!-- 5000 -->
      <g style="fill:#262626;" transform="translate(51.3775 1318.532624)scale(0.165 -0.165)">
       <use xlink:href="#DejaVuSans-53"/>
       <use x="63.623047" xlink:href="#DejaVuSans-48"/>
       <use x="127.246094" xlink:href="#DejaVuSans-48"/>
       <use x="190.869141" xlink:href="#DejaVuSans-48"/>
      </g>
     </g>
    </g>
    <g id="ytick_18">
     <g id="line2d_33">
      <path clip-path="url(#p4e7a5b337e)" d="M 105.87 1254.307826 
L 700.56 1254.307826 
" style="fill:none;stroke:#cccccc;stroke-linecap:round;stroke-width:1.5;"/>
     </g>
     <g id="text_45">
      <!-- 10000 -->
      <g style="fill:#262626;" transform="translate(40.879375 1260.576537)scale(0.165 -0.165)">
       <use xlink:href="#DejaVuSans-49"/>
       <use x="63.623047" xlink:href="#DejaVuSans-48"/>
       <use x="127.246094" xlink:href="#DejaVuSans-48"/>
       <use x="190.869141" xlink:href="#DejaVuSans-48"/>
       <use x="254.492188" xlink:href="#DejaVuSans-48"/>
      </g>
     </g>
    </g>
    <g id="ytick_19">
     <g id="line2d_34">
      <path clip-path="url(#p4e7a5b337e)" d="M 105.87 1196.351738 
L 700.56 1196.351738 
" style="fill:none;stroke:#cccccc;stroke-linecap:round;stroke-width:1.5;"/>
     </g>
     <g id="text_46">
      <!-- 15000 -->
      <g style="fill:#262626;" transform="translate(40.879375 1202.620449)scale(0.165 -0.165)">
       <use xlink:href="#DejaVuSans-49"/>
       <use x="63.623047" xlink:href="#DejaVuSans-53"/>
       <use x="127.246094" xlink:href="#DejaVuSans-48"/>
       <use x="190.869141" xlink:href="#DejaVuSans-48"/>
       <use x="254.492188" xlink:href="#DejaVuSans-48"/>
      </g>
     </g>
    </g>
    <g id="ytick_20">
     <g id="line2d_35">
      <path clip-path="url(#p4e7a5b337e)" d="M 105.87 1138.395651 
L 700.56 1138.395651 
" style="fill:none;stroke:#cccccc;stroke-linecap:round;stroke-width:1.5;"/>
     </g>
     <g id="text_47">
      <!-- 20000 -->
      <g style="fill:#262626;" transform="translate(40.879375 1144.664362)scale(0.165 -0.165)">
       <use xlink:href="#DejaVuSans-50"/>
       <use x="63.623047" xlink:href="#DejaVuSans-48"/>
       <use x="127.246094" xlink:href="#DejaVuSans-48"/>
       <use x="190.869141" xlink:href="#DejaVuSans-48"/>
       <use x="254.492188" xlink:href="#DejaVuSans-48"/>
      </g>
     </g>
    </g>
    <g id="text_48">
     <!-- Total effect -->
     <g style="fill:#262626;" transform="translate(33.135937 1289.673281)rotate(-90)scale(0.18 -0.18)">
      <use xlink:href="#DejaVuSans-84"/>
      <use x="60.818359" xlink:href="#DejaVuSans-111"/>
      <use x="122" xlink:href="#DejaVuSans-116"/>
      <use x="161.208984" xlink:href="#DejaVuSans-97"/>
      <use x="222.488281" xlink:href="#DejaVuSans-108"/>
      <use x="250.271484" xlink:href="#DejaVuSans-32"/>
      <use x="282.058594" xlink:href="#DejaVuSans-101"/>
      <use x="343.582031" xlink:href="#DejaVuSans-102"/>
      <use x="378.787109" xlink:href="#DejaVuSans-102"/>
      <use x="413.992188" xlink:href="#DejaVuSans-101"/>
      <use x="475.515625" xlink:href="#DejaVuSans-99"/>
      <use x="530.496094" xlink:href="#DejaVuSans-116"/>
     </g>
    </g>
   </g>
   <g id="patch_27">
    <path clip-path="url(#p4e7a5b337e)" d="M 117.7638 1370.22 
L 212.9142 1370.22 
L 212.9142 1364.935168 
L 117.7638 1364.935168 
z
" style="fill:#3274a1;stroke:#ffffff;stroke-linejoin:miter;stroke-width:1.5;"/>
   </g>
   <g id="patch_28">
    <path clip-path="url(#p4e7a5b337e)" d="M 236.7018 1370.22 
L 331.8522 1370.22 
L 331.8522 1365.432552 
L 236.7018 1365.432552 
z
" style="fill:#3274a1;stroke:#ffffff;stroke-linejoin:miter;stroke-width:1.5;"/>
   </g>
   <g id="patch_29">
    <path clip-path="url(#p4e7a5b337e)" d="M 355.6398 1370.22 
L 450.7902 1370.22 
L 450.7902 1359.135046 
L 355.6398 1359.135046 
z
" style="fill:#3274a1;stroke:#ffffff;stroke-linejoin:miter;stroke-width:1.5;"/>
   </g>
   <g id="patch_30">
    <path clip-path="url(#p4e7a5b337e)" d="M 474.5778 1370.22 
L 569.7282 1370.22 
L 569.7282 1360.538678 
L 474.5778 1360.538678 
z
" style="fill:#3274a1;stroke:#ffffff;stroke-linejoin:miter;stroke-width:1.5;"/>
   </g>
   <g id="patch_31">
    <path clip-path="url(#p4e7a5b337e)" d="M 593.5158 1370.22 
L 688.6662 1370.22 
L 688.6662 1360.049403 
L 593.5158 1360.049403 
z
" style="fill:#3274a1;stroke:#ffffff;stroke-linejoin:miter;stroke-width:1.5;"/>
   </g>
   <g id="line2d_36">
    <path clip-path="url(#p4e7a5b337e)" d="M 165.339 1365.957128 
L 165.339 1363.745966 
" style="fill:none;stroke:#424242;stroke-linecap:round;stroke-width:4.05;"/>
   </g>
   <g id="line2d_37">
    <path clip-path="url(#p4e7a5b337e)" d="M 284.277 1366.285235 
L 284.277 1364.55101 
" style="fill:none;stroke:#424242;stroke-linecap:round;stroke-width:4.05;"/>
   </g>
   <g id="line2d_38">
    <path clip-path="url(#p4e7a5b337e)" d="M 403.215 1361.108252 
L 403.215 1357.124214 
" style="fill:none;stroke:#424242;stroke-linecap:round;stroke-width:4.05;"/>
   </g>
   <g id="line2d_39">
    <path clip-path="url(#p4e7a5b337e)" d="M 522.153 1362.48631 
L 522.153 1358.530748 
" style="fill:none;stroke:#424242;stroke-linecap:round;stroke-width:4.05;"/>
   </g>
   <g id="line2d_40">
    <path clip-path="url(#p4e7a5b337e)" d="M 641.091 1361.977872 
L 641.091 1357.858483 
" style="fill:none;stroke:#424242;stroke-linecap:round;stroke-width:4.05;"/>
   </g>
   <g id="patch_32">
    <path d="M 105.87 1370.22 
L 105.87 1106.58 
" style="fill:none;stroke:#cccccc;stroke-linecap:square;stroke-linejoin:miter;stroke-width:1.875;"/>
   </g>
   <g id="patch_33">
    <path d="M 105.87 1370.22 
L 700.56 1370.22 
" style="fill:none;stroke:#cccccc;stroke-linecap:square;stroke-linejoin:miter;stroke-width:1.875;"/>
   </g>
   <g id="text_49">
    <!-- Intervening tokens = Singular attractor -->
    <g style="fill:#262626;" transform="translate(225.927656 1100.58)scale(0.18 -0.18)">
     <use xlink:href="#DejaVuSans-73"/>
     <use x="29.492188" xlink:href="#DejaVuSans-110"/>
     <use x="92.871094" xlink:href="#DejaVuSans-116"/>
     <use x="132.080078" xlink:href="#DejaVuSans-101"/>
     <use x="193.603516" xlink:href="#DejaVuSans-114"/>
     <use x="234.716797" xlink:href="#DejaVuSans-118"/>
     <use x="293.896484" xlink:href="#DejaVuSans-101"/>
     <use x="355.419922" xlink:href="#DejaVuSans-110"/>
     <use x="418.798828" xlink:href="#DejaVuSans-105"/>
     <use x="446.582031" xlink:href="#DejaVuSans-110"/>
     <use x="509.960938" xlink:href="#DejaVuSans-103"/>
     <use x="573.4375" xlink:href="#DejaVuSans-32"/>
     <use x="605.224609" xlink:href="#DejaVuSans-116"/>
     <use x="644.433594" xlink:href="#DejaVuSans-111"/>
     <use x="705.615234" xlink:href="#DejaVuSans-107"/>
     <use x="763.478516" xlink:href="#DejaVuSans-101"/>
     <use x="825.001953" xlink:href="#DejaVuSans-110"/>
     <use x="888.380859" xlink:href="#DejaVuSans-115"/>
     <use x="940.480469" xlink:href="#DejaVuSans-32"/>
     <use x="972.267578" xlink:href="#DejaVuSans-61"/>
     <use x="1056.056641" xlink:href="#DejaVuSans-32"/>
     <use x="1087.84375" xlink:href="#DejaVuSans-83"/>
     <use x="1151.320312" xlink:href="#DejaVuSans-105"/>
     <use x="1179.103516" xlink:href="#DejaVuSans-110"/>
     <use x="1242.482422" xlink:href="#DejaVuSans-103"/>
     <use x="1305.958984" xlink:href="#DejaVuSans-117"/>
     <use x="1369.337891" xlink:href="#DejaVuSans-108"/>
     <use x="1397.121094" xlink:href="#DejaVuSans-97"/>
     <use x="1458.400391" xlink:href="#DejaVuSans-114"/>
     <use x="1499.513672" xlink:href="#DejaVuSans-32"/>
     <use x="1531.300781" xlink:href="#DejaVuSans-97"/>
     <use x="1592.580078" xlink:href="#DejaVuSans-116"/>
     <use x="1631.789062" xlink:href="#DejaVuSans-116"/>
     <use x="1670.998047" xlink:href="#DejaVuSans-114"/>
     <use x="1712.111328" xlink:href="#DejaVuSans-97"/>
     <use x="1773.390625" xlink:href="#DejaVuSans-99"/>
     <use x="1828.371094" xlink:href="#DejaVuSans-116"/>
     <use x="1867.580078" xlink:href="#DejaVuSans-111"/>
     <use x="1928.761719" xlink:href="#DejaVuSans-114"/>
    </g>
   </g>
  </g>
  <g id="text_50">
   <!-- Total effects -->
   <g style="fill:#262626;" transform="translate(292.845937 45.212625)scale(0.216 -0.216)">
    <use xlink:href="#DejaVuSans-84"/>
    <use x="60.818359" xlink:href="#DejaVuSans-111"/>
    <use x="122" xlink:href="#DejaVuSans-116"/>
    <use x="161.208984" xlink:href="#DejaVuSans-97"/>
    <use x="222.488281" xlink:href="#DejaVuSans-108"/>
    <use x="250.271484" xlink:href="#DejaVuSans-32"/>
    <use x="282.058594" xlink:href="#DejaVuSans-101"/>
    <use x="343.582031" xlink:href="#DejaVuSans-102"/>
    <use x="378.787109" xlink:href="#DejaVuSans-102"/>
    <use x="413.992188" xlink:href="#DejaVuSans-101"/>
    <use x="475.515625" xlink:href="#DejaVuSans-99"/>
    <use x="530.496094" xlink:href="#DejaVuSans-116"/>
    <use x="569.705078" xlink:href="#DejaVuSans-115"/>
   </g>
  </g>
 </g>
 <defs>
  <clipPath id="p2fa5fae88d">
   <rect height="263.64" width="594.69" x="105.87" y="111.12"/>
  </clipPath>
  <clipPath id="p3d7391b71c">
   <rect height="263.64" width="594.69" x="105.87" y="442.94"/>
  </clipPath>
  <clipPath id="pa8dad97924">
   <rect height="263.64" width="594.69" x="105.87" y="774.76"/>
  </clipPath>
  <clipPath id="p4e7a5b337e">
   <rect height="263.64" width="594.69" x="105.87" y="1106.58"/>
  </clipPath>
 </defs>
</svg>
